SplineFontDB: 3.2
FontName: Robomatn
FullName: Robomatn
FamilyName: Robomatn
Weight: Regular
Copyright: Copyright 2015 The Vazirmatn Project Authors (https://github.com/rastikerdar/vazirmatn)\nCopyright Roboto AUtors
Version: 33.003
ItalicAngle: 0
UnderlinePosition: -780
UnderlineWidth: 100
Ascent: 1638
Descent: 410
InvalidEm: 0
sfntRevision: 0x002100c5
LayerCount: 2
Layer: 0 1 "Back" 1
Layer: 1 1 "Fore" 0
XUID: [1021 569 -1486673895 8460488]
StyleMap: 0x0040
FSType: 0
OS2Version: 4
OS2_WeightWidthSlopeOnly: 0
OS2_UseTypoMetrics: 1
CreationTime: 1431850356
ModificationTime: 1765387250
PfmFamily: 81
TTFWeight: 400
TTFWidth: 5
LineGap: 0
VLineGap: 0
Panose: 0 0 0 0 0 0 0 0 0 0
OS2TypoAscent: 2100
OS2TypoAOffset: 0
OS2TypoDescent: -1100
OS2TypoDOffset: 0
OS2TypoLinegap: 0
OS2WinAscent: 2200
OS2WinAOffset: 0
OS2WinDescent: 1300
OS2WinDOffset: 0
HheadAscent: 2100
HheadAOffset: 0
HheadDescent: -1100
HheadDOffset: 0
OS2SubXSize: 1331
OS2SubYSize: 1433
OS2SubXOff: 0
OS2SubYOff: 286
OS2SupXSize: 1331
OS2SupYSize: 1433
OS2SupXOff: 0
OS2SupYOff: 983
OS2StrikeYSize: 102
OS2StrikeYPos: 530
OS2CapHeight: 1638
OS2XHeight: 1082
OS2Vendor: '    '
OS2CodePages: 00000041.20080000
OS2UnicodeRanges: 80002003.80000000.00000008.00000000
Lookup: 1 0 0 "'c2sc' Capitals to Small Capitals lookup 0" { "'c2sc' Capitals to Small Capitals lookup 0 subtable"  } ['c2sc' ('DFLT' <'dflt' > 'cyrl' <'dflt' > 'grek' <'dflt' > 'latn' <'AZE ' 'CRT ' 'FRA ' 'MOL ' 'NAV ' 'ROM ' 'TRK ' 'dflt' > ) ]
Lookup: 1 0 0 "'smcp' Lowercase to Small Capitals lookup 1" { "'smcp' Lowercase to Small Capitals lookup 1 subtable"  } ['smcp' ('DFLT' <'dflt' > 'cyrl' <'dflt' > 'grek' <'dflt' > 'latn' <'AZE ' 'CRT ' 'FRA ' 'MOL ' 'NAV ' 'ROM ' 'TRK ' 'dflt' > ) ]
Lookup: 1 0 0 "'unic' Unicase lookup 2" { "'unic' Unicase lookup 2 subtable"  } ['unic' ('DFLT' <'dflt' > 'cyrl' <'dflt' > 'grek' <'dflt' > 'latn' <'AZE ' 'CRT ' 'FRA ' 'MOL ' 'NAV ' 'ROM ' 'TRK ' 'dflt' > ) ]

StartChar: A
Encoding: 65 65 2
Width: 1336
GlyphClass: 2
Flags: W
AnchorPoint: "Anchor-1" 686 0 basechar 0
AnchorPoint: "Anchor-0" 672 1601 basechar 0
LayerCount: 2
Fore
SplineSet
1112 0 m 1,0,-1
 973 381 l 1,1,-1
 364 381 l 1,2,-1
 226 0 l 1,3,-1
 29 0 l 1,4,-1
 584 1456 l 1,5,-1
 753 1456 l 1,6,-1
 1310 0 l 1,7,-1
 1112 0 l 1,0,-1
422 539 m 1,8,-1
 916 539 l 1,9,-1
 669 1218 l 1,10,-1
 422 539 l 1,8,-1
EndSplineSet
Substitution2: "'unic' Unicase lookup 2 subtable" A.unic
Substitution2: "'c2sc' Capitals to Small Capitals lookup 0 subtable" A.smcp
Position2: "'cpsp' Capital Spacing lookup 0 subtable" dx=36 dy=0 dh=72 dv=0
EndChar

StartChar: A.smcp
Encoding: 65537 -1 3
Width: 1158
GlyphClass: 2
Flags: W
AnchorPoint: "Anchor-1" 592 0 basechar 0
AnchorPoint: "Anchor-0" 581 1320 basechar 0
LayerCount: 2
Fore
SplineSet
949 0 m 1,0,-1
 840 279 l 1,1,-1
 320 279 l 1,2,-1
 209 0 l 1,3,-1
 20 0 l 1,4,-1
 499 1165 l 1,5,-1
 664 1165 l 1,6,-1
 1137 0 l 1,7,-1
 949 0 l 1,0,-1
380 431 m 1,8,-1
 780 431 l 1,9,-1
 581 939 l 1,10,-1
 380 431 l 1,8,-1
EndSplineSet
EndChar

StartChar: A.unic
Encoding: 65538 -1 4
Width: 1394
GlyphClass: 2
Flags: W
AnchorPoint: "Anchor-1" 682 0 basechar 0
AnchorPoint: "Anchor-0" 701 1632 basechar 0
LayerCount: 2
Fore
SplineSet
1074 0 m 1,0,1
 1063 25 1063 25 1056 65 c 128,-1,2
 1049 105 1049 105 1046 145 c 1,3,4
 976 80 976 80 859.5 30 c 128,-1,5
 743 -20 743 -20 588 -20 c 0,6,7
 448 -20 448 -20 341.5 33 c 128,-1,8
 235 86 235 86 175.5 179.5 c 128,-1,9
 116 273 116 273 116 396 c 0,10,11
 116 631 116 631 280 735.5 c 128,-1,12
 444 840 444 840 781 840 c 2,13,-1
 1045 840 l 1,14,-1
 1045 988 l 2,15,16
 1045 1135 1045 1135 957.5 1223.5 c 128,-1,17
 870 1312 870 1312 694 1312 c 0,18,19
 536 1312 536 1312 438 1245 c 128,-1,20
 340 1178 340 1178 340 1038 c 1,21,-1
 152 1038 l 1,22,23
 152 1167 152 1167 217.5 1266 c 128,-1,24
 283 1365 283 1365 406.5 1420.5 c 128,-1,25
 530 1476 530 1476 702 1476 c 0,26,27
 859 1476 859 1476 979 1422 c 128,-1,28
 1099 1368 1099 1368 1167 1259 c 128,-1,29
 1235 1150 1235 1150 1235 986 c 2,30,-1
 1235 240 l 2,31,32
 1235 185 1235 185 1244.5 122.5 c 128,-1,33
 1254 60 1254 60 1273 16 c 1,34,-1
 1273 0 l 1,35,-1
 1074 0 l 1,0,1
615 144 m 0,36,37
 722 144 722 144 809.5 171 c 128,-1,38
 897 198 897 198 957.5 239 c 128,-1,39
 1018 280 1018 280 1045 325 c 1,40,-1
 1045 683 l 1,41,-1
 811 683 l 2,42,43
 545 683 545 683 426 620.5 c 128,-1,44
 307 558 307 558 307 410 c 0,45,46
 307 295 307 295 385 219.5 c 128,-1,47
 463 144 463 144 615 144 c 0,36,37
EndSplineSet
EndChar

StartChar: AE
Encoding: 198 198 5
Width: 1914
GlyphClass: 2
Flags: W
AnchorPoint: "Anchor-0" 939 1612 basechar 0
LayerCount: 2
Fore
SplineSet
1880 152 m 1,0,-1
 1880 0 l 1,1,-1
 996 0 l 1,2,-1
 981 353 l 1,3,-1
 417 353 l 1,4,-1
 212 0 l 1,5,-1
 -15 0 l 1,6,-1
 866 1456 l 1,7,-1
 1818 1456 l 1,8,-1
 1818 1304 l 1,9,-1
 1127 1304 l 1,10,-1
 1147 834 l 1,11,-1
 1737 834 l 1,12,-1
 1737 682 l 1,13,-1
 1153 682 l 1,14,-1
 1176 152 l 1,15,-1
 1880 152 l 1,0,-1
518 528 m 1,16,-1
 974 528 l 1,17,-1
 943 1261 l 1,18,-1
 518 528 l 1,16,-1
EndSplineSet
Substitution2: "'c2sc' Capitals to Small Capitals lookup 0 subtable" AE.smcp
Position2: "'cpsp' Capital Spacing lookup 0 subtable" dx=36 dy=0 dh=72 dv=0
EndChar

StartChar: AE.smcp
Encoding: 65539 -1 6
Width: 1594
GlyphClass: 2
Flags: W
AnchorPoint: "Anchor-1" 896 0 basechar 0
AnchorPoint: "Anchor-0" 896 1290 basechar 0
LayerCount: 2
Fore
SplineSet
1522 150 m 1,0,-1
 1522 0 l 1,1,-1
 792 0 l 1,2,-1
 781 302 l 1,3,-1
 371 302 l 1,4,-1
 208 0 l 1,5,-1
 9 0 l 1,6,-1
 672 1165 l 1,7,-1
 1481 1165 l 1,8,-1
 1481 1015 l 1,9,-1
 941 1015 l 1,10,-1
 953 683 l 1,11,-1
 1417 683 l 1,12,-1
 1417 534 l 1,13,-1
 958 534 l 1,14,-1
 971 150 l 1,15,-1
 1522 150 l 1,0,-1
453 452 m 1,16,-1
 776 452 l 1,17,-1
 756 1013 l 1,18,-1
 453 452 l 1,16,-1
EndSplineSet
EndChar

StartChar: Aogonek
Encoding: 260 260 27
Width: 1336
GlyphClass: 2
Flags: W
AnchorPoint: "Anchor-1" 686 0 basechar 0
AnchorPoint: "Anchor-0" 672 1601 basechar 0
LayerCount: 2
Fore
SplineSet
29 0 m 1,0,-1
 584 1456 l 1,1,-1
 753 1456 l 1,2,-1
 1310 0 l 1,3,-1
 1272 0 l 1,4,5
 1208 -48 1208 -48 1154.5 -102.5 c 128,-1,6
 1101 -157 1101 -157 1101 -222 c 0,7,8
 1101 -255 1101 -255 1118.5 -275 c 128,-1,9
 1136 -295 1136 -295 1179 -295 c 0,10,11
 1212 -295 1212 -295 1238 -285.5 c 128,-1,12
 1264 -276 1264 -276 1279 -268 c 1,13,-1
 1293 -390 l 1,14,15
 1268 -405 1268 -405 1229.5 -419.5 c 128,-1,16
 1191 -434 1191 -434 1132 -434 c 0,17,18
 1051 -434 1051 -434 995.5 -385.5 c 128,-1,19
 940 -337 940 -337 940 -243 c 0,20,21
 940 -177 940 -177 980 -112.5 c 128,-1,22
 1020 -48 1020 -48 1109 9 c 1,23,-1
 973 381 l 1,24,-1
 364 381 l 1,25,-1
 226 0 l 1,26,-1
 29 0 l 1,0,-1
422 539 m 1,27,-1
 916 539 l 1,28,-1
 669 1218 l 1,29,-1
 422 539 l 1,27,-1
EndSplineSet
Substitution2: "'locl' Localized Forms in Latin lookup 8 subtable" Aogonek.NAV
Substitution2: "'unic' Unicase lookup 2 subtable" Aogonek.unic
Substitution2: "'c2sc' Capitals to Small Capitals lookup 0 subtable" Aogonek.smcp
Position2: "'cpsp' Capital Spacing lookup 0 subtable" dx=36 dy=0 dh=72 dv=0
EndChar

StartChar: Aogonek.smcp
Encoding: 65554 -1 29
Width: 1158
GlyphClass: 2
Flags: W
AnchorPoint: "Anchor-1" 592 0 basechar 0
AnchorPoint: "Anchor-0" 581 1320 basechar 0
LayerCount: 2
Fore
SplineSet
20 0 m 1,0,-1
 499 1165 l 1,1,-1
 664 1165 l 1,2,-1
 1137 0 l 1,3,-1
 1098 0 l 1,4,5
 1034 -48 1034 -48 980.5 -102.5 c 128,-1,6
 927 -157 927 -157 927 -222 c 0,7,8
 927 -255 927 -255 944.5 -275 c 128,-1,9
 962 -295 962 -295 1005 -295 c 0,10,11
 1038 -295 1038 -295 1064 -285.5 c 128,-1,12
 1090 -276 1090 -276 1105 -268 c 1,13,-1
 1119 -390 l 1,14,15
 1094 -405 1094 -405 1055.5 -419.5 c 128,-1,16
 1017 -434 1017 -434 958 -434 c 0,17,18
 877 -434 877 -434 821.5 -385.5 c 128,-1,19
 766 -337 766 -337 766 -243 c 0,20,21
 766 -176 766 -176 808 -109.5 c 128,-1,22
 850 -43 850 -43 943 14 c 1,23,-1
 840 279 l 1,24,-1
 320 279 l 1,25,-1
 209 0 l 1,26,-1
 20 0 l 1,0,-1
380 431 m 1,27,-1
 780 431 l 1,28,-1
 581 939 l 1,29,-1
 380 431 l 1,27,-1
EndSplineSet
Substitution2: "'locl' Localized Forms in Latin lookup 8 subtable" Aogonek.smcp.NAV
EndChar

StartChar: B
Encoding: 66 66 41
Width: 1276
GlyphClass: 2
Flags: W
AnchorPoint: "Anchor-1" 613 10 basechar 0
AnchorPoint: "Anchor-0" 606 1612 basechar 0
LayerCount: 2
Fore
SplineSet
679 0 m 2,0,-1
 169 0 l 1,1,-1
 169 1456 l 1,2,-1
 646 1456 l 2,3,4
 870 1456 870 1456 995.5 1363.5 c 128,-1,5
 1121 1271 1121 1271 1121 1068 c 0,6,7
 1121 967 1121 967 1063.5 888.5 c 128,-1,8
 1006 810 1006 810 906 767 c 1,9,10
 1029 733 1029 733 1094.5 638 c 128,-1,11
 1160 543 1160 543 1160 420 c 0,12,13
 1160 216 1160 216 1028.5 108 c 128,-1,14
 897 0 897 0 679 0 c 2,0,-1
646 1298 m 2,15,-1
 362 1298 l 1,16,-1
 362 836 l 1,17,-1
 652 836 l 2,18,19
 777 836 777 836 852.5 898 c 128,-1,20
 928 960 928 960 928 1070 c 0,21,22
 928 1190 928 1190 858.5 1244 c 128,-1,23
 789 1298 789 1298 646 1298 c 2,15,-1
968 418 m 0,24,25
 968 540 968 540 901.5 610.5 c 128,-1,26
 835 681 835 681 688 681 c 2,27,-1
 362 681 l 1,28,-1
 362 157 l 1,29,-1
 679 157 l 2,30,31
 816 157 816 157 892 227.5 c 128,-1,32
 968 298 968 298 968 418 c 0,24,25
EndSplineSet
Substitution2: "'c2sc' Capitals to Small Capitals lookup 0 subtable" B.smcp
Position2: "'cpsp' Capital Spacing lookup 0 subtable" dx=36 dy=0 dh=72 dv=0
EndChar

StartChar: B.smcp
Encoding: 65563 -1 42
Width: 1105
GlyphClass: 2
Flags: W
AnchorPoint: "Anchor-1" 536 10 basechar 0
AnchorPoint: "Anchor-0" 529 1320 basechar 0
LayerCount: 2
Fore
SplineSet
585 0 m 2,0,-1
 139 0 l 1,1,-1
 139 1165 l 1,2,-1
 545 1165 l 2,3,4
 742 1165 742 1165 858.5 1088 c 128,-1,5
 975 1011 975 1011 975 847 c 0,6,7
 975 767 975 767 928 704 c 128,-1,8
 881 641 881 641 793 608 c 1,9,10
 899 582 899 582 953.5 504.5 c 128,-1,11
 1008 427 1008 427 1008 334 c 0,12,13
 1008 168 1008 168 893.5 84 c 128,-1,14
 779 0 779 0 585 0 c 2,0,-1
545 1012 m 2,15,-1
 324 1012 l 1,16,-1
 324 671 l 1,17,-1
 558 671 l 2,18,19
 665 671 665 671 727.5 714 c 128,-1,20
 790 757 790 757 790 839 c 0,21,22
 790 929 790 929 727 970.5 c 128,-1,23
 664 1012 664 1012 545 1012 c 2,15,-1
822 335 m 0,24,25
 822 423 822 423 768 477 c 128,-1,26
 714 531 714 531 594 531 c 2,27,-1
 324 531 l 1,28,-1
 324 152 l 1,29,-1
 585 152 l 2,30,31
 700 152 700 152 761 201 c 128,-1,32
 822 250 822 250 822 335 c 0,24,25
EndSplineSet
EndChar

StartChar: C
Encoding: 67 67 43
Width: 1333
GlyphClass: 2
Flags: W
AnchorPoint: "Anchor-1" 680 -10 basechar 0
AnchorPoint: "Anchor-0" 680 1633 basechar 0
LayerCount: 2
Fore
SplineSet
1048 463 m 1,0,-1
 1240 463 l 1,1,2
 1225 325 1225 325 1161 216 c 128,-1,3
 1097 107 1097 107 980 43.5 c 128,-1,4
 863 -20 863 -20 688 -20 c 0,5,6
 517 -20 517 -20 389.5 63.5 c 128,-1,7
 262 147 262 147 191 299 c 128,-1,8
 120 451 120 451 120 655 c 2,9,-1
 120 800 l 2,10,11
 120 1004 120 1004 191 1156 c 128,-1,12
 262 1308 262 1308 393.5 1392 c 128,-1,13
 525 1476 525 1476 705 1476 c 0,14,15
 870 1476 870 1476 984 1414 c 128,-1,16
 1098 1352 1098 1352 1161.5 1242.5 c 128,-1,17
 1225 1133 1225 1133 1240 989 c 1,18,-1
 1048 989 l 1,19,20
 1026 1141 1026 1141 950 1229.5 c 128,-1,21
 874 1318 874 1318 705 1318 c 0,22,23
 512 1318 512 1318 412 1176 c 128,-1,24
 312 1034 312 1034 312 802 c 2,25,-1
 312 655 l 2,26,27
 312 512 312 512 352 394.5 c 128,-1,28
 392 277 392 277 475.5 207 c 128,-1,29
 559 137 559 137 688 137 c 0,30,31
 811 137 811 137 884 176 c 128,-1,32
 957 215 957 215 994.5 288 c 128,-1,33
 1032 361 1032 361 1048 463 c 1,0,-1
EndSplineSet
Substitution2: "'c2sc' Capitals to Small Capitals lookup 0 subtable" C.smcp
Position2: "'cpsp' Capital Spacing lookup 0 subtable" dx=36 dy=0 dh=72 dv=0
EndChar

StartChar: C.smcp
Encoding: 65564 -1 44
Width: 1148
GlyphClass: 2
Flags: W
AnchorPoint: "Anchor-1" 586 -4 basechar 0
AnchorPoint: "Anchor-0" 587 1320 basechar 0
LayerCount: 2
Fore
SplineSet
887 377 m 1,0,-1
 1073 377 l 1,1,2
 1054 207 1054 207 936 95.5 c 128,-1,3
 818 -16 818 -16 592 -16 c 0,4,5
 442 -16 442 -16 330.5 51.5 c 128,-1,6
 219 119 219 119 158 242 c 128,-1,7
 97 365 97 365 97 531 c 2,8,-1
 97 633 l 2,9,10
 97 800 97 800 158.5 923 c 128,-1,11
 220 1046 220 1046 333.5 1113.5 c 128,-1,12
 447 1181 447 1181 602 1181 c 0,13,14
 820 1181 820 1181 937 1070 c 128,-1,15
 1054 959 1054 959 1073 783 c 1,16,-1
 887 783 l 1,17,18
 871 899 871 899 808 964 c 128,-1,19
 745 1029 745 1029 602 1029 c 0,20,21
 445 1029 445 1029 363 924.5 c 128,-1,22
 281 820 281 820 281 634 c 2,23,-1
 281 531 l 2,24,25
 281 355 281 355 356.5 245 c 128,-1,26
 432 135 432 135 592 135 c 0,27,28
 741 135 741 135 805 198 c 128,-1,29
 869 261 869 261 887 377 c 1,0,-1
EndSplineSet
EndChar

StartChar: D
Encoding: 68 68 54
Width: 1344
GlyphClass: 2
Flags: W
AnchorPoint: "Anchor-1" 613 10 basechar 0
AnchorPoint: "Anchor-0" 609 1612 basechar 0
LayerCount: 2
Fore
SplineSet
563 0 m 2,0,-1
 169 0 l 1,1,-1
 169 1456 l 1,2,-1
 581 1456 l 2,3,4
 772 1456 772 1456 916.5 1372.5 c 128,-1,5
 1061 1289 1061 1289 1142 1135.5 c 128,-1,6
 1223 982 1223 982 1223 771 c 2,7,-1
 1223 684 l 2,8,9
 1223 473 1223 473 1142 320 c 128,-1,10
 1061 167 1061 167 913 83.5 c 128,-1,11
 765 0 765 0 563 0 c 2,0,-1
581 1298 m 2,12,-1
 362 1298 l 1,13,-1
 362 157 l 1,14,-1
 563 157 l 2,15,16
 796 157 796 157 914 301 c 128,-1,17
 1032 445 1032 445 1032 684 c 2,18,-1
 1032 773 l 2,19,20
 1032 1024 1032 1024 914 1161 c 128,-1,21
 796 1298 796 1298 581 1298 c 2,12,-1
EndSplineSet
Substitution2: "'c2sc' Capitals to Small Capitals lookup 0 subtable" D.smcp
Position2: "'cpsp' Capital Spacing lookup 0 subtable" dx=36 dy=0 dh=72 dv=0
EndChar

StartChar: D.smcp
Encoding: 65569 -1 55
Width: 1152
GlyphClass: 2
Flags: W
AnchorPoint: "Anchor-1" 500 10 basechar 0
AnchorPoint: "Anchor-0" 500 1320 basechar 0
LayerCount: 2
Fore
SplineSet
487 0 m 2,0,-1
 139 0 l 1,1,-1
 139 1165 l 1,2,-1
 499 1165 l 2,3,4
 665 1165 665 1165 790 1097 c 128,-1,5
 915 1029 915 1029 985.5 905.5 c 128,-1,6
 1056 782 1056 782 1056 614 c 2,7,-1
 1056 550 l 2,8,9
 1056 383 1056 383 985.5 259 c 128,-1,10
 915 135 915 135 787.5 67.5 c 128,-1,11
 660 0 660 0 487 0 c 2,0,-1
499 1012 m 2,12,-1
 324 1012 l 1,13,-1
 324 152 l 1,14,-1
 487 152 l 2,15,16
 681 152 681 152 776 259 c 128,-1,17
 871 366 871 366 871 550 c 2,18,-1
 871 616 l 2,19,20
 871 807 871 807 776 909.5 c 128,-1,21
 681 1012 681 1012 499 1012 c 2,12,-1
EndSplineSet
EndChar

StartChar: Dcroat
Encoding: 272 272 58
Width: 1374
GlyphClass: 2
Flags: W
AnchorPoint: "Anchor-1" 613 10 basechar 0
AnchorPoint: "Anchor-0" 609 1612 basechar 0
LayerCount: 2
Fore
SplineSet
593 0 m 2,0,-1
 199 0 l 1,1,-1
 199 665 l 1,2,-1
 37 665 l 1,3,-1
 37 817 l 1,4,-1
 199 817 l 1,5,-1
 199 1456 l 1,6,-1
 611 1456 l 2,7,8
 802 1456 802 1456 946.5 1372.5 c 128,-1,9
 1091 1289 1091 1289 1172 1135.5 c 128,-1,10
 1253 982 1253 982 1253 771 c 2,11,-1
 1253 684 l 2,12,13
 1253 473 1253 473 1172 320 c 128,-1,14
 1091 167 1091 167 943 83.5 c 128,-1,15
 795 0 795 0 593 0 c 2,0,-1
674 817 m 1,16,-1
 674 665 l 1,17,-1
 392 665 l 1,18,-1
 392 157 l 1,19,-1
 593 157 l 2,20,21
 826 157 826 157 944 301 c 128,-1,22
 1062 445 1062 445 1062 684 c 2,23,-1
 1062 773 l 2,24,25
 1062 1024 1062 1024 944 1161 c 128,-1,26
 826 1298 826 1298 611 1298 c 2,27,-1
 392 1298 l 1,28,-1
 392 817 l 1,29,-1
 674 817 l 1,16,-1
EndSplineSet
Substitution2: "'c2sc' Capitals to Small Capitals lookup 0 subtable" Dcroat.smcp
Position2: "'cpsp' Capital Spacing lookup 0 subtable" dx=36 dy=0 dh=72 dv=0
EndChar

StartChar: Delta
Encoding: 8710 8710 60
Width: 1444
GlyphClass: 2
Flags: W
LayerCount: 2
Fore
SplineSet
32 0 m 1,0,-1
 646 1456 l 1,1,-1
 816 1456 l 1,2,-1
 1396 0 l 1,3,-1
 32 0 l 1,0,-1
294 157 m 1,4,-1
 1138 157 l 1,5,-1
 729 1220 l 1,6,-1
 294 157 l 1,4,-1
EndSplineSet
Substitution2: "'c2sc' Capitals to Small Capitals lookup 0 subtable" Delta.smcp
Position2: "'cpsp' Capital Spacing lookup 0 subtable" dx=36 dy=0 dh=72 dv=0
EndChar

StartChar: Delta.smcp
Encoding: 65572 -1 61
Width: 1128
GlyphClass: 2
Flags: W
LayerCount: 2
Fore
SplineSet
20 0 m 1,0,-1
 477 1165 l 1,1,-1
 651 1165 l 1,2,-1
 1108 0 l 1,3,-1
 20 0 l 1,0,-1
590 874 m 1,4,-1
 564 967 l 1,5,-1
 538 873 l 1,6,-1
 275 152 l 1,7,-1
 854 152 l 1,8,-1
 590 874 l 1,4,-1
EndSplineSet
EndChar

StartChar: E
Encoding: 69 69 62
Width: 1164
GlyphClass: 2
Flags: W
AnchorPoint: "Anchor-1" 619 10 basechar 0
AnchorPoint: "Anchor-0" 619 1612 basechar 0
LayerCount: 2
Fore
SplineSet
1094 157 m 1,0,-1
 1094 0 l 1,1,-1
 169 0 l 1,2,-1
 169 1456 l 1,3,-1
 1084 1456 l 1,4,-1
 1084 1298 l 1,5,-1
 362 1298 l 1,6,-1
 362 830 l 1,7,-1
 992 830 l 1,8,-1
 992 673 l 1,9,-1
 362 673 l 1,10,-1
 362 157 l 1,11,-1
 1094 157 l 1,0,-1
EndSplineSet
Substitution2: "'unic' Unicase lookup 2 subtable" E.unic
Substitution2: "'c2sc' Capitals to Small Capitals lookup 0 subtable" E.smcp
Position2: "'cpsp' Capital Spacing lookup 0 subtable" dx=36 dy=0 dh=72 dv=0
EndChar

StartChar: E.smcp
Encoding: 65573 -1 63
Width: 998
GlyphClass: 2
Flags: W
AnchorPoint: "Anchor-1" 537 8 basechar 0
AnchorPoint: "Anchor-0" 537 1320 basechar 0
LayerCount: 2
Fore
SplineSet
943 152 m 1,0,-1
 943 0 l 1,1,-1
 139 0 l 1,2,-1
 139 1165 l 1,3,-1
 937 1165 l 1,4,-1
 937 1012 l 1,5,-1
 324 1012 l 1,6,-1
 324 678 l 1,7,-1
 856 678 l 1,8,-1
 856 527 l 1,9,-1
 324 527 l 1,10,-1
 324 152 l 1,11,-1
 943 152 l 1,0,-1
EndSplineSet
EndChar

StartChar: E.unic
Encoding: 65574 -1 64
Width: 1425
GlyphClass: 2
Flags: W
AnchorPoint: "Anchor-1" 743 10 basechar 0
AnchorPoint: "Anchor-0" 735 1643 basechar 0
LayerCount: 2
Fore
SplineSet
747 -22 m 0,0,1
 543 -22 543 -22 403 68 c 128,-1,2
 263 158 263 158 191 316.5 c 128,-1,3
 119 475 119 475 119 681 c 2,4,-1
 119 774 l 2,5,6
 119 982 119 982 199 1140 c 128,-1,7
 279 1298 279 1298 417.5 1386.5 c 128,-1,8
 556 1475 556 1475 729 1474 c 0,9,10
 1018 1473 1018 1473 1165 1302 c 128,-1,11
 1312 1131 1312 1131 1312 813 c 2,12,-1
 1312 677 l 1,13,-1
 311 677 l 1,14,15
 312 528 312 528 359 406 c 128,-1,16
 406 284 406 284 502.5 212 c 128,-1,17
 599 140 599 140 747 140 c 0,18,19
 881 140 881 140 981 195.5 c 128,-1,20
 1081 251 1081 251 1144 313 c 1,21,-1
 1253 205 l 1,22,23
 1170 117 1170 117 1047 47.5 c 128,-1,24
 924 -22 924 -22 747 -22 c 0,0,1
729 1312 m 0,25,26
 601 1312 601 1312 511.5 1249 c 128,-1,27
 422 1186 422 1186 372 1078 c 128,-1,28
 322 970 322 970 313 834 c 1,29,-1
 1120 834 l 1,30,-1
 1120 872 l 2,31,32
 1120 998 1120 998 1080.5 1097.5 c 128,-1,33
 1041 1197 1041 1197 955 1254.5 c 128,-1,34
 869 1312 869 1312 729 1312 c 0,25,26
EndSplineSet
EndChar

StartChar: Eng
Encoding: 330 330 89
Width: 1419
GlyphClass: 2
Flags: W
AnchorPoint: "Anchor-1" 720 10 basechar 0
AnchorPoint: "Anchor-0" 726 1601 basechar 0
LayerCount: 2
Fore
SplineSet
162 1456 m 1,0,-1
 355 1456 l 1,1,-1
 1072 327 l 1,2,-1
 1072 1456 l 1,3,-1
 1265 1456 l 1,4,-1
 1265 -84 l 2,5,6
 1265 -255 1265 -255 1178 -346 c 128,-1,7
 1091 -437 1091 -437 938 -437 c 0,8,9
 907 -437 907 -437 880 -433.5 c 128,-1,10
 853 -430 853 -430 823 -420 c 1,11,-1
 837 -266 l 1,12,13
 854 -272 854 -272 887 -275.5 c 128,-1,14
 920 -279 920 -279 935 -279 c 0,15,16
 1000 -279 1000 -279 1036 -227 c 128,-1,17
 1072 -175 1072 -175 1072 -84 c 2,18,-1
 1072 0 l 1,19,-1
 355 1129 l 1,20,-1
 355 0 l 1,21,-1
 162 0 l 1,22,-1
 162 1456 l 1,0,-1
EndSplineSet
Substitution2: "'c2sc' Capitals to Small Capitals lookup 0 subtable" Eng.smcp
Position2: "'cpsp' Capital Spacing lookup 0 subtable" dx=36 dy=0 dh=72 dv=0
EndChar

StartChar: Eng.smcp
Encoding: 65591 -1 90
Width: 1251
GlyphClass: 2
Flags: W
AnchorPoint: "Anchor-1" 619 4 basechar 0
AnchorPoint: "Anchor-0" 624 1320 basechar 0
LayerCount: 2
Fore
SplineSet
1113 1165 m 1,0,-1
 1113 -89 l 2,1,2
 1113 -258 1113 -258 1028 -347.5 c 128,-1,3
 943 -437 943 -437 791 -437 c 0,4,5
 760 -437 760 -437 734 -433.5 c 128,-1,6
 708 -430 708 -430 679 -420 c 1,7,-1
 693 -263 l 1,8,9
 708 -269 708 -269 742.5 -272 c 128,-1,10
 777 -275 777 -275 791 -275 c 0,11,12
 856 -275 856 -275 892 -228 c 128,-1,13
 928 -181 928 -181 928 -89 c 2,14,-1
 928 0 l 1,15,-1
 324 876 l 1,16,-1
 324 0 l 1,17,-1
 139 0 l 1,18,-1
 139 1165 l 1,19,-1
 324 1165 l 1,20,-1
 928 289 l 1,21,-1
 928 1165 l 1,22,-1
 1113 1165 l 1,0,-1
EndSplineSet
EndChar

StartChar: Eogonek
Encoding: 280 280 91
Width: 1164
GlyphClass: 2
Flags: W
AnchorPoint: "Anchor-1" 619 10 basechar 0
AnchorPoint: "Anchor-0" 619 1612 basechar 0
LayerCount: 2
Fore
SplineSet
1094 157 m 1,0,-1
 1094 0 l 1,1,-1
 1022 0 l 1,2,3
 958 -48 958 -48 904.5 -102.5 c 128,-1,4
 851 -157 851 -157 851 -222 c 0,5,6
 851 -255 851 -255 868.5 -275 c 128,-1,7
 886 -295 886 -295 929 -295 c 0,8,9
 962 -295 962 -295 988 -285.5 c 128,-1,10
 1014 -276 1014 -276 1029 -268 c 1,11,-1
 1043 -390 l 1,12,13
 1018 -405 1018 -405 979.5 -419.5 c 128,-1,14
 941 -434 941 -434 882 -434 c 0,15,16
 801 -434 801 -434 745.5 -385.5 c 128,-1,17
 690 -337 690 -337 690 -243 c 0,18,19
 690 -180 690 -180 727 -117.5 c 128,-1,20
 764 -55 764 -55 846 0 c 1,21,-1
 169 0 l 1,22,-1
 169 1456 l 1,23,-1
 1084 1456 l 1,24,-1
 1084 1298 l 1,25,-1
 362 1298 l 1,26,-1
 362 830 l 1,27,-1
 992 830 l 1,28,-1
 992 673 l 1,29,-1
 362 673 l 1,30,-1
 362 157 l 1,31,-1
 1094 157 l 1,0,-1
EndSplineSet
Substitution2: "'locl' Localized Forms in Latin lookup 8 subtable" Eogonek.NAV
Substitution2: "'unic' Unicase lookup 2 subtable" Eogonek.unic
Substitution2: "'c2sc' Capitals to Small Capitals lookup 0 subtable" Eogonek.smcp
Position2: "'cpsp' Capital Spacing lookup 0 subtable" dx=36 dy=0 dh=72 dv=0
EndChar

StartChar: Eogonek.smcp
Encoding: 65593 -1 93
Width: 998
GlyphClass: 2
Flags: W
AnchorPoint: "Anchor-1" 537 8 basechar 0
AnchorPoint: "Anchor-0" 537 1320 basechar 0
LayerCount: 2
Fore
SplineSet
943 152 m 1,0,-1
 943 0 l 1,1,-1
 882 0 l 1,2,3
 818 -48 818 -48 764.5 -102.5 c 128,-1,4
 711 -157 711 -157 711 -222 c 0,5,6
 711 -255 711 -255 728.5 -275 c 128,-1,7
 746 -295 746 -295 789 -295 c 0,8,9
 822 -295 822 -295 848 -285.5 c 128,-1,10
 874 -276 874 -276 889 -268 c 1,11,-1
 903 -390 l 1,12,13
 878 -405 878 -405 839.5 -419.5 c 128,-1,14
 801 -434 801 -434 742 -434 c 0,15,16
 661 -434 661 -434 605.5 -385.5 c 128,-1,17
 550 -337 550 -337 550 -243 c 0,18,19
 550 -180 550 -180 587 -117.5 c 128,-1,20
 624 -55 624 -55 706 0 c 1,21,-1
 139 0 l 1,22,-1
 139 1165 l 1,23,-1
 937 1165 l 1,24,-1
 937 1012 l 1,25,-1
 324 1012 l 1,26,-1
 324 678 l 1,27,-1
 856 678 l 1,28,-1
 856 527 l 1,29,-1
 324 527 l 1,30,-1
 324 152 l 1,31,-1
 943 152 l 1,0,-1
EndSplineSet
Substitution2: "'locl' Localized Forms in Latin lookup 8 subtable" Eogonek.smcp.NAV
EndChar

StartChar: Eth
Encoding: 208 208 96
Width: 1374
GlyphClass: 2
Flags: W
AnchorPoint: "Anchor-1" 613 10 basechar 0
AnchorPoint: "Anchor-0" 609 1612 basechar 0
LayerCount: 2
Fore
SplineSet
593 0 m 2,0,-1
 199 0 l 1,1,-1
 199 665 l 1,2,-1
 37 665 l 1,3,-1
 37 817 l 1,4,-1
 199 817 l 1,5,-1
 199 1456 l 1,6,-1
 611 1456 l 2,7,8
 802 1456 802 1456 946.5 1372.5 c 128,-1,9
 1091 1289 1091 1289 1172 1135.5 c 128,-1,10
 1253 982 1253 982 1253 771 c 2,11,-1
 1253 684 l 2,12,13
 1253 473 1253 473 1172 320 c 128,-1,14
 1091 167 1091 167 943 83.5 c 128,-1,15
 795 0 795 0 593 0 c 2,0,-1
674 817 m 1,16,-1
 674 665 l 1,17,-1
 392 665 l 1,18,-1
 392 157 l 1,19,-1
 593 157 l 2,20,21
 826 157 826 157 944 301 c 128,-1,22
 1062 445 1062 445 1062 684 c 2,23,-1
 1062 773 l 2,24,25
 1062 1024 1062 1024 944 1161 c 128,-1,26
 826 1298 826 1298 611 1298 c 2,27,-1
 392 1298 l 1,28,-1
 392 817 l 1,29,-1
 674 817 l 1,16,-1
EndSplineSet
Substitution2: "'c2sc' Capitals to Small Capitals lookup 0 subtable" Eth.smcp
Position2: "'cpsp' Capital Spacing lookup 0 subtable" dx=36 dy=0 dh=72 dv=0
EndChar

StartChar: Euro
Encoding: 8364 8364 98
Width: 1151
GlyphClass: 2
Flags: W
LayerCount: 2
Fore
SplineSet
815 136 m 0,0,1
 929 136 929 136 1033 170 c 1,2,-1
 1053 10 l 1,3,4
 997 -4 997 -4 936 -12 c 128,-1,5
 875 -20 875 -20 813 -20 c 0,6,7
 657 -20 657 -20 536.5 42.5 c 128,-1,8
 416 105 416 105 346.5 230 c 128,-1,9
 277 355 277 355 273 542 c 1,10,-1
 95 542 l 1,11,-1
 95 666 l 1,12,-1
 273 666 l 1,13,-1
 273 802 l 1,14,-1
 95 802 l 1,15,-1
 95 927 l 1,16,-1
 274 927 l 1,17,18
 283 1201 283 1201 431.5 1338.5 c 128,-1,19
 580 1476 580 1476 812 1476 c 0,20,21
 875 1476 875 1476 933.5 1467.5 c 128,-1,22
 992 1459 992 1459 1053 1445 c 1,23,-1
 1033 1284 l 1,24,25
 984 1300 984 1300 928 1309.5 c 128,-1,26
 872 1319 872 1319 814 1319 c 0,27,28
 660 1319 660 1319 567 1223 c 128,-1,29
 474 1127 474 1127 467 927 c 1,30,-1
 850 927 l 1,31,-1
 850 802 l 1,32,-1
 466 802 l 1,33,-1
 466 666 l 1,34,-1
 850 666 l 1,35,-1
 850 542 l 1,36,-1
 466 542 l 1,37,38
 470 335 470 335 564.5 235.5 c 128,-1,39
 659 136 659 136 815 136 c 0,0,1
EndSplineSet
Substitution2: "'c2sc' Capitals to Small Capitals lookup 0 subtable" Euro.smcp
Position2: "'cpsp' Capital Spacing lookup 0 subtable" dx=36 dy=0 dh=72 dv=0
EndChar

StartChar: Euro.smcp
Encoding: 65597 -1 99
Width: 996
GlyphClass: 2
Flags: W
LayerCount: 2
Fore
SplineSet
698 135 m 0,0,1
 757 135 757 135 802.5 142.5 c 128,-1,2
 848 150 848 150 900 164 c 1,3,-1
 927 15 l 1,4,5
 872 0 872 0 816 -8 c 128,-1,6
 760 -16 760 -16 698 -16 c 0,7,8
 491 -16 491 -16 366.5 91 c 128,-1,9
 242 198 242 198 222 406 c 1,10,-1
 67 406 l 1,11,-1
 67 527 l 1,12,-1
 218 527 l 1,13,-1
 218 636 l 1,14,-1
 67 636 l 1,15,-1
 67 757 l 1,16,-1
 222 757 l 1,17,18
 243 964 243 964 366 1072.5 c 128,-1,19
 489 1181 489 1181 696 1181 c 0,20,21
 759 1181 759 1181 812.5 1172.5 c 128,-1,22
 866 1164 866 1164 927 1150 c 1,23,-1
 906 1002 l 1,24,25
 855 1018 855 1018 805 1023.5 c 128,-1,26
 755 1029 755 1029 696 1029 c 0,27,28
 438 1029 438 1029 407 757 c 1,29,-1
 816 757 l 1,30,-1
 816 636 l 1,31,-1
 403 636 l 1,32,-1
 403 527 l 1,33,-1
 816 527 l 1,34,-1
 816 406 l 1,35,-1
 407 406 l 1,36,37
 438 135 438 135 698 135 c 0,0,1
EndSplineSet
EndChar

StartChar: F
Encoding: 70 70 100
Width: 1132
GlyphClass: 2
Flags: W
AnchorPoint: "Anchor-1" 619 10 basechar 0
AnchorPoint: "Anchor-0" 619 1612 basechar 0
LayerCount: 2
Fore
SplineSet
972 801 m 1,0,-1
 972 643 l 1,1,-1
 362 643 l 1,2,-1
 362 0 l 1,3,-1
 169 0 l 1,4,-1
 169 1456 l 1,5,-1
 1071 1456 l 1,6,-1
 1071 1298 l 1,7,-1
 362 1298 l 1,8,-1
 362 801 l 1,9,-1
 972 801 l 1,0,-1
EndSplineSet
Substitution2: "'c2sc' Capitals to Small Capitals lookup 0 subtable" F.smcp
Position2: "'cpsp' Capital Spacing lookup 0 subtable" dx=36 dy=0 dh=72 dv=0
EndChar

StartChar: F.smcp
Encoding: 65598 -1 101
Width: 972
GlyphClass: 2
Flags: W
AnchorPoint: "Anchor-1" 489 10 basechar 0
AnchorPoint: "Anchor-0" 541 1320 basechar 0
LayerCount: 2
Fore
SplineSet
844 652 m 1,0,-1
 844 500 l 1,1,-1
 324 500 l 1,2,-1
 324 0 l 1,3,-1
 139 0 l 1,4,-1
 139 1165 l 1,5,-1
 923 1165 l 1,6,-1
 923 1012 l 1,7,-1
 324 1012 l 1,8,-1
 324 652 l 1,9,-1
 844 652 l 1,0,-1
EndSplineSet
EndChar

StartChar: G
Encoding: 71 71 102
Width: 1395
GlyphClass: 2
Flags: W
AnchorPoint: "Anchor-1" 730 -9 basechar 0
AnchorPoint: "Anchor-0" 672 1633 basechar 0
LayerCount: 2
Fore
SplineSet
1245 725 m 1,0,-1
 1245 192 l 1,1,2
 1218 152 1218 152 1159 102.5 c 128,-1,3
 1100 53 1100 53 996.5 16.5 c 128,-1,4
 893 -20 893 -20 730 -20 c 0,5,6
 553 -20 553 -20 415.5 62 c 128,-1,7
 278 144 278 144 200 299 c 128,-1,8
 122 454 122 454 122 672 c 2,9,-1
 122 785 l 2,10,11
 122 1111 122 1111 274 1293.5 c 128,-1,12
 426 1476 426 1476 708 1476 c 0,13,14
 875 1476 875 1476 987.5 1418.5 c 128,-1,15
 1100 1361 1100 1361 1163.5 1260 c 128,-1,16
 1227 1159 1227 1159 1245 1030 c 1,17,-1
 1052 1030 l 1,18,19
 1039 1109 1039 1109 1000.5 1174 c 128,-1,20
 962 1239 962 1239 891 1278.5 c 128,-1,21
 820 1318 820 1318 708 1318 c 0,22,23
 506 1318 506 1318 411 1175 c 128,-1,24
 316 1032 316 1032 316 787 c 2,25,-1
 316 672 l 2,26,27
 316 420 316 420 430 278.5 c 128,-1,28
 544 137 544 137 731 137 c 0,29,30
 834 137 834 137 898 154.5 c 128,-1,31
 962 172 962 172 998 196.5 c 128,-1,32
 1034 221 1034 221 1053 243 c 1,33,-1
 1053 569 l 1,34,-1
 716 569 l 1,35,-1
 716 725 l 1,36,-1
 1245 725 l 1,0,-1
EndSplineSet
Substitution2: "'c2sc' Capitals to Small Capitals lookup 0 subtable" G.smcp
Position2: "'cpsp' Capital Spacing lookup 0 subtable" dx=36 dy=0 dh=72 dv=0
EndChar

StartChar: G.smcp
Encoding: 65599 -1 103
Width: 1196
GlyphClass: 2
Flags: W
AnchorPoint: "Anchor-1" 591 -4 basechar 0
AnchorPoint: "Anchor-0" 584 1320 basechar 0
LayerCount: 2
Fore
SplineSet
1078 592 m 1,0,-1
 1078 150 l 1,1,2
 1053 118 1053 118 1000.5 79 c 128,-1,3
 948 40 948 40 857.5 12 c 128,-1,4
 767 -16 767 -16 627 -16 c 0,5,6
 473 -16 473 -16 354 50 c 128,-1,7
 235 116 235 116 167.5 240.5 c 128,-1,8
 100 365 100 365 100 541 c 2,9,-1
 100 625 l 2,10,11
 100 888 100 888 233.5 1034.5 c 128,-1,12
 367 1181 367 1181 608 1181 c 0,13,14
 830 1181 830 1181 942.5 1077.5 c 128,-1,15
 1055 974 1055 974 1077 813 c 1,16,-1
 894 813 l 1,17,18
 877 905 877 905 812.5 967 c 128,-1,19
 748 1029 748 1029 610 1029 c 0,20,21
 445 1029 445 1029 365.5 922.5 c 128,-1,22
 286 816 286 816 286 627 c 2,23,-1
 286 541 l 2,24,25
 286 347 286 347 380 241 c 128,-1,26
 474 135 474 135 631 135 c 0,27,28
 755 135 755 135 812 161.5 c 128,-1,29
 869 188 869 188 893 210 c 1,30,-1
 893 448 l 1,31,-1
 612 448 l 1,32,-1
 612 592 l 1,33,-1
 1078 592 l 1,0,-1
EndSplineSet
EndChar

StartChar: Germandbls.smcp
Encoding: 65604 -1 111
Width: 1105
GlyphClass: 2
Flags: W
LayerCount: 2
Fore
SplineSet
399 30 m 1,0,-1
 452 182 l 1,1,2
 483 163 483 163 525 147 c 128,-1,3
 567 131 567 131 622 131 c 0,4,5
 722 131 722 131 777 193.5 c 128,-1,6
 832 256 832 256 832 353 c 0,7,8
 832 451 832 451 764 493 c 128,-1,9
 696 535 696 535 561 535 c 2,10,-1
 477 535 l 1,11,-1
 477 673 l 1,12,-1
 715 968 l 1,13,14
 685 991 685 991 643 1010.5 c 128,-1,15
 601 1030 601 1030 538 1030 c 0,16,17
 455 1030 455 1030 408 991.5 c 128,-1,18
 361 953 361 953 342 890 c 128,-1,19
 323 827 323 827 323 751 c 2,20,-1
 323 0 l 1,21,-1
 139 0 l 1,22,-1
 139 753 l 1,23,-1
 139 753 l 1,24,25
 141 1181 141 1181 538 1181 c 0,26,27
 669 1181 669 1181 765 1127.5 c 128,-1,28
 861 1074 861 1074 940 998 c 1,29,-1
 668 670 l 1,30,31
 830 655 830 655 924 575 c 128,-1,32
 1018 495 1018 495 1018 356 c 0,33,34
 1018 176 1018 176 907 77.5 c 128,-1,35
 796 -21 796 -21 622 -21 c 0,36,37
 566 -21 566 -21 510 -9 c 128,-1,38
 454 3 454 3 399 30 c 1,0,-1
EndSplineSet
EndChar

StartChar: H
Encoding: 72 72 112
Width: 1461
GlyphClass: 2
Flags: W
AnchorPoint: "Anchor-1" 714 10 basechar 0
AnchorPoint: "Anchor-0" 712 1612 basechar 0
LayerCount: 2
Fore
SplineSet
362 1456 m 1,0,-1
 362 830 l 1,1,-1
 1096 830 l 1,2,-1
 1096 1456 l 1,3,-1
 1288 1456 l 1,4,-1
 1288 0 l 1,5,-1
 1096 0 l 1,6,-1
 1096 673 l 1,7,-1
 362 673 l 1,8,-1
 362 0 l 1,9,-1
 169 0 l 1,10,-1
 169 1456 l 1,11,-1
 362 1456 l 1,0,-1
EndSplineSet
Substitution2: "'c2sc' Capitals to Small Capitals lookup 0 subtable" H.smcp
Position2: "'cpsp' Capital Spacing lookup 0 subtable" dx=36 dy=0 dh=72 dv=0
EndChar

StartChar: H.smcp
Encoding: 65605 -1 113
Width: 1252
GlyphClass: 2
Flags: W
AnchorPoint: "Anchor-1" 615 10 basechar 0
AnchorPoint: "Anchor-0" 615 1320 basechar 0
LayerCount: 2
Fore
SplineSet
324 1165 m 1,0,-1
 324 651 l 1,1,-1
 928 651 l 1,2,-1
 928 1165 l 1,3,-1
 1113 1165 l 1,4,-1
 1113 0 l 1,5,-1
 928 0 l 1,6,-1
 928 498 l 1,7,-1
 324 498 l 1,8,-1
 324 0 l 1,9,-1
 139 0 l 1,10,-1
 139 1165 l 1,11,-1
 324 1165 l 1,0,-1
EndSplineSet
EndChar

StartChar: Hbar
Encoding: 294 294 114
Width: 1435
GlyphClass: 2
Flags: W
AnchorPoint: "Anchor-1" 724 10 basechar 0
AnchorPoint: "Anchor-0" 724 1612 basechar 0
LayerCount: 2
Fore
SplineSet
356 1456 m 1,0,-1
 356 1167 l 1,1,-1
 1090 1167 l 1,2,-1
 1090 1456 l 1,3,-1
 1283 1456 l 1,4,-1
 1283 1167 l 1,5,-1
 1417 1167 l 1,6,-1
 1417 1024 l 1,7,-1
 1283 1024 l 1,8,-1
 1283 0 l 1,9,-1
 1090 0 l 1,10,-1
 1090 673 l 1,11,-1
 356 673 l 1,12,-1
 356 0 l 1,13,-1
 164 0 l 1,14,-1
 164 1024 l 1,15,-1
 30 1024 l 1,16,-1
 30 1167 l 1,17,-1
 164 1167 l 1,18,-1
 164 1456 l 1,19,-1
 356 1456 l 1,0,-1
356 830 m 1,20,-1
 1090 830 l 1,21,-1
 1090 1024 l 1,22,-1
 356 1024 l 1,23,-1
 356 830 l 1,20,-1
EndSplineSet
Substitution2: "'c2sc' Capitals to Small Capitals lookup 0 subtable" Hbar.smcp
Position2: "'cpsp' Capital Spacing lookup 0 subtable" dx=36 dy=0 dh=72 dv=0
EndChar

StartChar: Hbar.smcp
Encoding: 65606 -1 115
Width: 1251
GlyphClass: 2
Flags: W
AnchorPoint: "Anchor-1" 615 10 basechar 0
AnchorPoint: "Anchor-0" 615 1320 basechar 0
LayerCount: 2
Fore
SplineSet
324 1165 m 1,0,-1
 324 999 l 1,1,-1
 928 999 l 1,2,-1
 928 1165 l 1,3,-1
 1113 1165 l 1,4,-1
 1113 999 l 1,5,-1
 1203 999 l 1,6,-1
 1203 847 l 1,7,-1
 1113 847 l 1,8,-1
 1113 0 l 1,9,-1
 928 0 l 1,10,-1
 928 498 l 1,11,-1
 324 498 l 1,12,-1
 324 0 l 1,13,-1
 139 0 l 1,14,-1
 139 847 l 1,15,-1
 48 847 l 1,16,-1
 48 999 l 1,17,-1
 139 999 l 1,18,-1
 139 1165 l 1,19,-1
 324 1165 l 1,0,-1
324 651 m 1,20,-1
 928 651 l 1,21,-1
 928 847 l 1,22,-1
 324 847 l 1,23,-1
 324 651 l 1,20,-1
EndSplineSet
EndChar

StartChar: I
Encoding: 73 73 118
Width: 557
GlyphClass: 2
Flags: W
AnchorPoint: "Anchor-1" 279 9 basechar 0
AnchorPoint: "Anchor-0" 279 1612 basechar 0
LayerCount: 2
Fore
SplineSet
376 1456 m 1,0,-1
 376 0 l 1,1,-1
 183 0 l 1,2,-1
 183 1456 l 1,3,-1
 376 1456 l 1,0,-1
EndSplineSet
Substitution2: "'c2sc' Capitals to Small Capitals lookup 0 subtable" I.smcp
Position2: "'cpsp' Capital Spacing lookup 0 subtable" dx=36 dy=0 dh=72 dv=0
EndChar

StartChar: I.smcp
Encoding: 65608 -1 119
Width: 489
GlyphClass: 2
Flags: W
AnchorPoint: "Anchor-1" 244 4 basechar 0
AnchorPoint: "Anchor-0" 244 1320 basechar 0
LayerCount: 2
Fore
SplineSet
337 1165 m 1,0,-1
 337 0 l 1,1,-1
 152 0 l 1,2,-1
 152 1165 l 1,3,-1
 337 1165 l 1,0,-1
EndSplineSet
EndChar

StartChar: J
Encoding: 74 74 140
Width: 1130
GlyphClass: 2
Flags: W
AnchorPoint: "Anchor-1" 512 -10 basechar 0
AnchorPoint: "Anchor-0" 852 1599 basechar 0
LayerCount: 2
Fore
SplineSet
780 425 m 2,0,-1
 780 1456 l 1,1,-1
 972 1456 l 1,2,-1
 972 425 l 2,3,4
 972 281 972 281 913 182 c 128,-1,5
 854 83 854 83 750.5 31.5 c 128,-1,6
 647 -20 647 -20 513 -20 c 256,7,8
 379 -20 379 -20 275 26 c 128,-1,9
 171 72 171 72 112 166 c 128,-1,10
 53 260 53 260 53 403 c 1,11,-1
 246 403 l 1,12,13
 246 265 246 265 320.5 201 c 128,-1,14
 395 137 395 137 513 137 c 0,15,16
 627 137 627 137 703.5 210 c 128,-1,17
 780 283 780 283 780 425 c 2,0,-1
EndSplineSet
Substitution2: "'c2sc' Capitals to Small Capitals lookup 0 subtable" J.smcp
Position2: "'cpsp' Capital Spacing lookup 0 subtable" dx=36 dy=0 dh=72 dv=0
EndChar

StartChar: J.smcp
Encoding: 65619 -1 141
Width: 975
GlyphClass: 2
Flags: W
AnchorPoint: "Anchor-1" 457 -10 basechar 0
AnchorPoint: "Anchor-0" 734 1320 basechar 0
LayerCount: 2
Fore
SplineSet
659 339 m 2,0,-1
 659 1165 l 1,1,-1
 845 1165 l 1,2,-1
 845 339 l 2,3,4
 845 228 845 228 794.5 148.5 c 128,-1,5
 744 69 744 69 656.5 26.5 c 128,-1,6
 569 -16 569 -16 457 -16 c 0,7,8
 339 -16 339 -16 245.5 21.5 c 128,-1,9
 152 59 152 59 98 136 c 128,-1,10
 44 213 44 213 44 331 c 1,11,-1
 230 331 l 1,12,13
 230 227 230 227 292 181 c 128,-1,14
 354 135 354 135 457 135 c 0,15,16
 547 135 547 135 603 189 c 128,-1,17
 659 243 659 243 659 339 c 2,0,-1
EndSplineSet
EndChar

StartChar: K
Encoding: 75 75 144
Width: 1285
GlyphClass: 2
Flags: W
AnchorPoint: "Anchor-1" 660 90 basechar 0
AnchorPoint: "Anchor-0" 605 1595 basechar 0
LayerCount: 2
Fore
SplineSet
1055 0 m 1,0,-1
 540 678 l 1,1,-1
 362 493 l 1,2,-1
 362 0 l 1,3,-1
 169 0 l 1,4,-1
 169 1456 l 1,5,-1
 362 1456 l 1,6,-1
 362 738 l 1,7,-1
 520 912 l 1,8,-1
 1009 1456 l 1,9,-1
 1241 1456 l 1,10,-1
 669 813 l 1,11,-1
 1285 0 l 1,12,-1
 1055 0 l 1,0,-1
EndSplineSet
Substitution2: "'salt' Stylistic Alternatives lookup 13 subtable" K.alt
Substitution2: "'c2sc' Capitals to Small Capitals lookup 0 subtable" K.smcp
Position2: "'cpsp' Capital Spacing lookup 0 subtable" dx=36 dy=0 dh=72 dv=0
EndChar

StartChar: K.alt
Encoding: 65621 -1 145
Width: 1316
GlyphClass: 2
Flags: W
LayerCount: 2
Fore
SplineSet
1074 0 m 1,0,-1
 547 655 l 1,1,-1
 371 655 l 1,2,-1
 371 0 l 1,3,-1
 178 0 l 1,4,-1
 178 1456 l 1,5,-1
 371 1456 l 1,6,-1
 371 815 l 1,7,-1
 521 815 l 1,8,-1
 1029 1456 l 1,9,-1
 1268 1456 l 1,10,-1
 712 752 l 1,11,-1
 1310 0 l 1,12,-1
 1074 0 l 1,0,-1
EndSplineSet
EndChar

StartChar: K.smcp
Encoding: 65622 -1 146
Width: 1109
GlyphClass: 2
Flags: W
AnchorPoint: "Anchor-1" 532 6 basechar 0
AnchorPoint: "Anchor-0" 518 1320 basechar 0
LayerCount: 2
Fore
SplineSet
886 0 m 1,0,-1
 472 520 l 1,1,-1
 324 377 l 1,2,-1
 324 0 l 1,3,-1
 139 0 l 1,4,-1
 139 1165 l 1,5,-1
 324 1165 l 1,6,-1
 324 611 l 1,7,-1
 454 754 l 1,8,-1
 850 1165 l 1,9,-1
 1078 1165 l 1,10,-1
 599 647 l 1,11,-1
 1111 0 l 1,12,-1
 886 0 l 1,0,-1
EndSplineSet
EndChar

StartChar: L
Encoding: 76 76 149
Width: 1103
GlyphClass: 2
Flags: W
AnchorPoint: "Anchor-1" 620 10 basechar 0
AnchorPoint: "Anchor-0" 264 1596 basechar 0
LayerCount: 2
Fore
SplineSet
1052 157 m 1,0,-1
 1052 0 l 1,1,-1
 169 0 l 1,2,-1
 169 1456 l 1,3,-1
 362 1456 l 1,4,-1
 362 157 l 1,5,-1
 1052 157 l 1,0,-1
EndSplineSet
Substitution2: "'c2sc' Capitals to Small Capitals lookup 0 subtable" L.smcp
Position2: "'cpsp' Capital Spacing lookup 0 subtable" dx=36 dy=0 dh=72 dv=0
EndChar

StartChar: L.smcp
Encoding: 65624 -1 150
Width: 949
GlyphClass: 2
Flags: W
AnchorPoint: "Anchor-1" 527 8 basechar 0
AnchorPoint: "Anchor-0" 233 1320 basechar 0
LayerCount: 2
Fore
SplineSet
907 152 m 1,0,-1
 907 0 l 1,1,-1
 139 0 l 1,2,-1
 139 1165 l 1,3,-1
 324 1165 l 1,4,-1
 324 152 l 1,5,-1
 907 152 l 1,0,-1
EndSplineSet
EndChar

StartChar: Lslash
Encoding: 321 321 161
Width: 1103
GlyphClass: 2
Flags: W
AnchorPoint: "Anchor-1" 618 10 basechar 0
AnchorPoint: "Anchor-0" 262 1596 basechar 0
LayerCount: 2
Fore
SplineSet
1052 157 m 1,0,-1
 1052 0 l 1,1,-1
 169 0 l 1,2,-1
 169 659 l 1,3,-1
 35 616 l 1,4,-1
 35 741 l 1,5,-1
 169 784 l 1,6,-1
 169 1456 l 1,7,-1
 361 1456 l 1,8,-1
 361 845 l 1,9,-1
 624 928 l 1,10,-1
 624 803 l 1,11,-1
 361 720 l 1,12,-1
 361 157 l 1,13,-1
 1052 157 l 1,0,-1
EndSplineSet
Substitution2: "'c2sc' Capitals to Small Capitals lookup 0 subtable" Lslash.smcp
Position2: "'cpsp' Capital Spacing lookup 0 subtable" dx=36 dy=0 dh=72 dv=0
EndChar

StartChar: Lslash.smcp
Encoding: 65631 -1 162
Width: 949
GlyphClass: 2
Flags: W
AnchorPoint: "Anchor-1" 527 8 basechar 0
AnchorPoint: "Anchor-0" 233 1320 basechar 0
LayerCount: 2
Fore
SplineSet
907 152 m 1,0,-1
 907 0 l 1,1,-1
 139 0 l 1,2,-1
 139 515 l 1,3,-1
 1 471 l 1,4,-1
 1 596 l 1,5,-1
 139 640 l 1,6,-1
 139 1165 l 1,7,-1
 324 1165 l 1,8,-1
 324 699 l 1,9,-1
 590 783 l 1,10,-1
 590 658 l 1,11,-1
 324 574 l 1,12,-1
 324 152 l 1,13,-1
 907 152 l 1,0,-1
EndSplineSet
EndChar

StartChar: M
Encoding: 77 77 163
Width: 1788
GlyphClass: 2
Flags: W
AnchorPoint: "Anchor-1" 893 10 basechar 0
AnchorPoint: "Anchor-0" 890 1601 basechar 0
LayerCount: 2
Fore
SplineSet
169 1456 m 1,0,-1
 417 1456 l 1,1,-1
 894 269 l 1,2,-1
 1370 1456 l 1,3,-1
 1618 1456 l 1,4,-1
 1618 0 l 1,5,-1
 1426 0 l 1,6,-1
 1426 568 l 1,7,-1
 1445 1177 l 1,8,-1
 966 0 l 1,9,-1
 820 0 l 1,10,-1
 342 1179 l 1,11,-1
 361 568 l 1,12,-1
 361 0 l 1,13,-1
 169 0 l 1,14,-1
 169 1456 l 1,0,-1
EndSplineSet
Substitution2: "'unic' Unicase lookup 2 subtable" M.unic
Substitution2: "'c2sc' Capitals to Small Capitals lookup 0 subtable" M.smcp
Position2: "'cpsp' Capital Spacing lookup 0 subtable" dx=36 dy=0 dh=72 dv=0
EndChar

StartChar: M.smcp
Encoding: 65632 -1 164
Width: 1538
GlyphClass: 2
Flags: W
AnchorPoint: "Anchor-1" 765 10 basechar 0
AnchorPoint: "Anchor-0" 765 1320 basechar 0
LayerCount: 2
Fore
SplineSet
139 1165 m 1,0,-1
 378 1165 l 1,1,-1
 769 254 l 1,2,-1
 1159 1165 l 1,3,-1
 1400 1165 l 1,4,-1
 1400 0 l 1,5,-1
 1215 0 l 1,6,-1
 1215 402 l 1,7,-1
 1234 932 l 1,8,-1
 836 0 l 1,9,-1
 701 0 l 1,10,-1
 304 930 l 1,11,-1
 323 402 l 1,12,-1
 323 0 l 1,13,-1
 139 0 l 1,14,-1
 139 1165 l 1,0,-1
EndSplineSet
EndChar

StartChar: M.unic
Encoding: 65633 -1 165
Width: 2223
GlyphClass: 2
Flags: W
AnchorPoint: "Anchor-1" 1118 10 basechar 0
AnchorPoint: "Anchor-0" 1114 1632 basechar 0
LayerCount: 2
Fore
SplineSet
730 1312 m 0,0,1
 601 1312 601 1312 503 1234.5 c 128,-1,2
 405 1157 405 1157 362 1041 c 1,3,-1
 362 0 l 1,4,-1
 169 0 l 1,5,-1
 169 1456 l 1,6,-1
 352 1456 l 1,7,-1
 360 1271 l 1,8,9
 431 1366 431 1366 541.5 1421 c 128,-1,10
 652 1476 652 1476 785 1476 c 0,11,12
 923 1476 923 1476 1022 1421 c 128,-1,13
 1121 1366 1121 1366 1169 1241 c 1,14,15
 1240 1349 1240 1349 1360 1412.5 c 128,-1,16
 1480 1476 1480 1476 1629 1476 c 0,17,18
 1828 1476 1828 1476 1942.5 1363 c 128,-1,19
 2057 1250 2057 1250 2057 982 c 2,20,-1
 2057 0 l 1,21,-1
 1864 0 l 1,22,-1
 1864 984 l 2,23,24
 1864 1160 1864 1160 1789 1236 c 128,-1,25
 1714 1312 1714 1312 1577 1312 c 0,26,27
 1446 1312 1446 1312 1347.5 1233 c 128,-1,28
 1249 1154 1249 1154 1208 1036 c 1,29,30
 1209 1010 1209 1010 1209 982 c 2,31,-1
 1209 0 l 1,32,-1
 1017 0 l 1,33,-1
 1017 984 l 2,34,35
 1017 1160 1017 1160 942 1236 c 128,-1,36
 867 1312 867 1312 730 1312 c 0,0,1
EndSplineSet
EndChar

StartChar: N
Encoding: 78 78 166
Width: 1461
GlyphClass: 2
Flags: W
AnchorPoint: "Anchor-1" 720 10 basechar 0
AnchorPoint: "Anchor-0" 726 1601 basechar 0
LayerCount: 2
Fore
SplineSet
1289 1456 m 1,0,-1
 1289 0 l 1,1,-1
 1095 0 l 1,2,-1
 362 1123 l 1,3,-1
 362 0 l 1,4,-1
 169 0 l 1,5,-1
 169 1456 l 1,6,-1
 362 1456 l 1,7,-1
 1098 330 l 1,8,-1
 1098 1456 l 1,9,-1
 1289 1456 l 1,0,-1
EndSplineSet
Substitution2: "'unic' Unicase lookup 2 subtable" N.unic
Substitution2: "'c2sc' Capitals to Small Capitals lookup 0 subtable" N.smcp
Position2: "'cpsp' Capital Spacing lookup 0 subtable" dx=36 dy=0 dh=72 dv=0
EndChar

StartChar: N.smcp
Encoding: 65634 -1 167
Width: 1251
GlyphClass: 2
Flags: W
AnchorPoint: "Anchor-1" 619 4 basechar 0
AnchorPoint: "Anchor-0" 624 1320 basechar 0
LayerCount: 2
Fore
SplineSet
1113 1165 m 1,0,-1
 1113 0 l 1,1,-1
 928 0 l 1,2,-1
 324 876 l 1,3,-1
 324 0 l 1,4,-1
 139 0 l 1,5,-1
 139 1165 l 1,6,-1
 324 1165 l 1,7,-1
 928 289 l 1,8,-1
 928 1165 l 1,9,-1
 1113 1165 l 1,0,-1
EndSplineSet
EndChar

StartChar: N.unic
Encoding: 65635 -1 168
Width: 1461
GlyphClass: 2
Flags: W
AnchorPoint: "Anchor-1" 720 10 basechar 0
AnchorPoint: "Anchor-0" 726 1632 basechar 0
LayerCount: 2
Fore
SplineSet
770 1312 m 0,0,1
 625 1312 625 1312 516.5 1227.5 c 128,-1,2
 408 1143 408 1143 362 1016 c 1,3,-1
 362 0 l 1,4,-1
 169 0 l 1,5,-1
 169 1456 l 1,6,-1
 352 1456 l 1,7,-1
 361 1251 l 1,8,9
 437 1355 437 1355 557.5 1415.5 c 128,-1,10
 678 1476 678 1476 825 1476 c 0,11,12
 1040 1476 1040 1476 1164 1358.5 c 128,-1,13
 1288 1241 1288 1241 1288 964 c 2,14,-1
 1288 0 l 1,15,-1
 1096 0 l 1,16,-1
 1096 966 l 2,17,18
 1096 1151 1096 1151 1011 1231.5 c 128,-1,19
 926 1312 926 1312 770 1312 c 0,0,1
EndSplineSet
EndChar

StartChar: NameMe.65564
Encoding: 65638 -1 172
Width: 536
GlyphClass: 1
Flags: W
LayerCount: 2
Fore
SplineSet
153 1247 m 1,0,-1
 322 1247 l 1,1,-1
 322 421 l 2,2,3
 322 280 322 280 374 231 c 128,-1,4
 426 182 426 182 531 182 c 2,5,-1
 556 182 l 1,6,-1
 556 0 l 1,7,-1
 531 0 l 2,8,9
 340 0 340 0 246.5 101 c 128,-1,10
 153 202 153 202 153 421 c 2,11,-1
 153 1247 l 1,0,-1
EndSplineSet
EndChar

StartChar: NameMe.65565
Encoding: 65639 -1 173
Width: 720
GlyphClass: 1
Flags: W
LayerCount: 2
Fore
SplineSet
525 216 m 0,0,1
 540 216 540 216 567.5 213 c 128,-1,2
 595 210 595 210 622 199 c 1,3,-1
 604 109 l 1,4,5
 562 121 562 121 525 121 c 0,6,7
 456 121 456 121 414.5 78.5 c 128,-1,8
 373 36 373 36 373 -11 c 0,9,10
 373 -36 373 -36 381.5 -45 c 128,-1,11
 390 -54 390 -54 416 -54 c 2,12,-1
 510 -54 l 2,13,14
 567 -54 567 -54 596 -83 c 128,-1,15
 625 -112 625 -112 625 -157 c 0,16,17
 625 -284 625 -284 528.5 -352.5 c 128,-1,18
 432 -421 432 -421 277 -421 c 0,19,20
 223 -421 223 -421 177.5 -411.5 c 128,-1,21
 132 -402 132 -402 94 -386 c 1,22,-1
 137 -297 l 1,23,24
 166 -310 166 -310 200 -318 c 128,-1,25
 234 -326 234 -326 279 -326 c 0,26,27
 341 -326 341 -326 400 -308.5 c 128,-1,28
 459 -291 459 -291 497.5 -258 c 128,-1,29
 536 -225 536 -225 536 -178 c 0,30,31
 536 -161 536 -161 519 -155.5 c 128,-1,32
 502 -150 502 -150 485 -150 c 2,33,-1
 410 -150 l 2,34,35
 279 -150 279 -150 279 -19 c 0,36,37
 279 53 279 53 314 105.5 c 128,-1,38
 349 158 349 158 405 187 c 128,-1,39
 461 216 461 216 525 216 c 0,0,1
EndSplineSet
EndChar

StartChar: NameMe.65583
Encoding: 65641 -1 175
Width: 471
GlyphClass: 1
Flags: W
LayerCount: 2
Fore
SplineSet
-46 1333 m 1,0,-1
 -28 1416 l 1,1,2
 -15 1405 -15 1405 6.5 1388 c 128,-1,3
 28 1371 28 1371 46 1364 c 1,4,5
 127 1501 127 1501 192.5 1560.5 c 128,-1,6
 258 1620 258 1620 337 1620 c 0,7,8
 417 1620 417 1620 468 1570 c 128,-1,9
 519 1520 519 1520 519 1445 c 0,10,11
 519 1345 519 1345 449 1305 c 128,-1,12
 379 1265 379 1265 207 1265 c 2,13,-1
 182 1265 l 2,14,15
 92 1265 92 1265 34 1281.5 c 128,-1,16
 -24 1298 -24 1298 -46 1333 c 1,0,-1
205 1351 m 2,17,18
 334 1351 334 1351 384.5 1368.5 c 128,-1,19
 435 1386 435 1386 435 1441 c 0,20,21
 435 1480 435 1480 409.5 1506 c 128,-1,22
 384 1532 384 1532 342 1532 c 0,23,24
 287 1532 287 1532 243 1491 c 128,-1,25
 199 1450 199 1450 135 1351 c 1,26,-1
 205 1351 l 2,17,18
EndSplineSet
EndChar

StartChar: NameMe.65703
Encoding: 65642 -1 176
Width: 475
GlyphClass: 1
Flags: W
LayerCount: 2
Fore
SplineSet
322 1247 m 1,0,-1
 322 1 l 1,1,-1
 153 1 l 1,2,-1
 153 1247 l 1,3,-1
 322 1247 l 1,0,-1
EndSplineSet
EndChar

StartChar: O
Encoding: 79 79 186
Width: 1409
GlyphClass: 2
Flags: W
AnchorPoint: "Anchor-1" 707 0 basechar 0
AnchorPoint: "Anchor-0" 707 1603 basechar 0
LayerCount: 2
Fore
SplineSet
1290 774 m 2,0,-1
 1290 682 l 2,1,2
 1290 464 1290 464 1217.5 306.5 c 128,-1,3
 1145 149 1145 149 1014 64.5 c 128,-1,4
 883 -20 883 -20 706 -20 c 0,5,6
 534 -20 534 -20 401.5 64.5 c 128,-1,7
 269 149 269 149 194 306.5 c 128,-1,8
 119 464 119 464 119 682 c 2,9,-1
 119 774 l 2,10,11
 119 992 119 992 193.5 1149.5 c 128,-1,12
 268 1307 268 1307 400 1391.5 c 128,-1,13
 532 1476 532 1476 704 1476 c 0,14,15
 881 1476 881 1476 1013 1391.5 c 128,-1,16
 1145 1307 1145 1307 1217.5 1149.5 c 128,-1,17
 1290 992 1290 992 1290 774 c 2,0,-1
1099 682 m 2,18,-1
 1099 776 l 2,19,20
 1099 1036 1099 1036 995 1174 c 128,-1,21
 891 1312 891 1312 704 1312 c 0,22,23
 525 1312 525 1312 417.5 1174 c 128,-1,24
 310 1036 310 1036 310 776 c 2,25,-1
 310 682 l 2,26,27
 310 420 310 420 418.5 281.5 c 128,-1,28
 527 143 527 143 706 143 c 0,29,30
 894 143 894 143 996.5 281.5 c 128,-1,31
 1099 420 1099 420 1099 682 c 2,18,-1
EndSplineSet
Substitution2: "'c2sc' Capitals to Small Capitals lookup 0 subtable" O.smcp
Position2: "'cpsp' Capital Spacing lookup 0 subtable" dx=36 dy=0 dh=72 dv=0
EndChar

StartChar: O.smcp
Encoding: 65649 -1 187
Width: 1212
GlyphClass: 2
Flags: W
AnchorPoint: "Anchor-1" 631 0 basechar 0
AnchorPoint: "Anchor-0" 606 1320 basechar 0
LayerCount: 2
Fore
SplineSet
1115 615 m 2,0,-1
 1115 549 l 2,1,2
 1115 373 1115 373 1052 246.5 c 128,-1,3
 989 120 989 120 875 52 c 128,-1,4
 761 -16 761 -16 607 -16 c 0,5,6
 457 -16 457 -16 341.5 52 c 128,-1,7
 226 120 226 120 161 246.5 c 128,-1,8
 96 373 96 373 96 549 c 2,9,-1
 96 615 l 2,10,11
 96 791 96 791 160.5 918 c 128,-1,12
 225 1045 225 1045 340 1113 c 128,-1,13
 455 1181 455 1181 605 1181 c 0,14,15
 759 1181 759 1181 873.5 1113 c 128,-1,16
 988 1045 988 1045 1051.5 918 c 128,-1,17
 1115 791 1115 791 1115 615 c 2,0,-1
932 549 m 2,18,-1
 932 617 l 2,19,20
 932 814 932 814 846 920 c 128,-1,21
 760 1026 760 1026 605 1026 c 0,22,23
 457 1026 457 1026 368.5 920 c 128,-1,24
 280 814 280 814 280 617 c 2,25,-1
 280 549 l 2,26,27
 280 351 280 351 369.5 244.5 c 128,-1,28
 459 138 459 138 607 138 c 0,29,30
 762 138 762 138 847 244.5 c 128,-1,31
 932 351 932 351 932 549 c 2,18,-1
EndSplineSet
EndChar

StartChar: OE
Encoding: 338 338 188
Width: 1953
GlyphClass: 2
Flags: W
AnchorPoint: "Anchor-1" 953 0 basechar 0
AnchorPoint: "Anchor-0" 953 1603 basechar 0
LayerCount: 2
Fore
SplineSet
660 1477 m 0,0,1
 737 1477 737 1477 812 1470.5 c 128,-1,2
 887 1464 887 1464 954 1456 c 1,3,-1
 1791 1456 l 1,4,-1
 1791 1298 l 1,5,-1
 1069 1298 l 1,6,-1
 1069 830 l 1,7,-1
 1699 830 l 1,8,-1
 1699 673 l 1,9,-1
 1069 673 l 1,10,-1
 1069 157 l 1,11,-1
 1801 157 l 1,12,-1
 1801 0 l 1,13,-1
 954 0 l 1,14,15
 887 -7 887 -7 813 -14 c 128,-1,16
 739 -21 739 -21 662 -21 c 0,17,18
 496 -21 496 -21 371 54.5 c 128,-1,19
 246 130 246 130 175.5 265 c 128,-1,20
 105 400 105 400 105 576 c 2,21,-1
 105 880 l 2,22,23
 105 1057 105 1057 175 1191.5 c 128,-1,24
 245 1326 245 1326 369.5 1401.5 c 128,-1,25
 494 1477 494 1477 660 1477 c 0,0,1
290 576 m 2,26,27
 290 358 290 358 391 244.5 c 128,-1,28
 492 131 492 131 662 131 c 0,29,30
 718 131 718 131 772 135 c 128,-1,31
 826 139 826 139 876 146 c 1,32,-1
 876 1310 l 1,33,34
 825 1317 825 1317 770.5 1321 c 128,-1,35
 716 1325 716 1325 660 1325 c 0,36,37
 490 1325 490 1325 390 1212.5 c 128,-1,38
 290 1100 290 1100 290 882 c 2,39,-1
 290 576 l 2,26,27
EndSplineSet
Substitution2: "'c2sc' Capitals to Small Capitals lookup 0 subtable" OE.smcp
Position2: "'cpsp' Capital Spacing lookup 0 subtable" dx=36 dy=0 dh=72 dv=0
EndChar

StartChar: OE.smcp
Encoding: 65650 -1 189
Width: 1700
GlyphClass: 2
Flags: W
LayerCount: 2
Fore
SplineSet
1010 1165 m 2,0,-1
 1639 1165 l 1,1,-1
 1639 1012 l 1,2,-1
 1026 1012 l 1,3,-1
 1026 678 l 1,4,-1
 1558 678 l 1,5,-1
 1558 527 l 1,6,-1
 1026 527 l 1,7,-1
 1026 152 l 1,8,-1
 1645 152 l 1,9,-1
 1645 0 l 1,10,-1
 1014 0 l 2,11,12
 892 0 892 0 785.5 -8 c 128,-1,13
 679 -16 679 -16 607 -16 c 0,14,15
 457 -16 457 -16 341.5 52 c 128,-1,16
 226 120 226 120 161 246.5 c 128,-1,17
 96 373 96 373 96 549 c 2,18,-1
 96 615 l 2,19,20
 96 791 96 791 160.5 918 c 128,-1,21
 225 1045 225 1045 340 1113 c 128,-1,22
 455 1181 455 1181 605 1181 c 0,23,24
 676 1181 676 1181 784.5 1173 c 128,-1,25
 893 1165 893 1165 1010 1165 c 2,0,-1
280 549 m 2,26,27
 280 351 280 351 369.5 244.5 c 128,-1,28
 459 138 459 138 607 138 c 0,29,30
 641 138 641 138 708 140.5 c 128,-1,31
 775 143 775 143 841 146 c 1,32,-1
 841 1016 l 1,33,34
 774 1019 774 1019 706 1022.5 c 128,-1,35
 638 1026 638 1026 605 1026 c 0,36,37
 457 1026 457 1026 368.5 920 c 128,-1,38
 280 814 280 814 280 617 c 2,39,-1
 280 549 l 2,26,27
EndSplineSet
EndChar

StartChar: Ohorn
Encoding: 416 416 200
Width: 1407
GlyphClass: 2
Flags: W
AnchorPoint: "Anchor-1" 692 0 basechar 0
AnchorPoint: "Anchor-0" 703 1595 basechar 0
LayerCount: 2
Fore
SplineSet
1273 774 m 2,0,-1
 1273 682 l 2,1,2
 1273 464 1273 464 1201 306.5 c 128,-1,3
 1129 149 1129 149 998 64.5 c 128,-1,4
 867 -20 867 -20 689 -20 c 0,5,6
 517 -20 517 -20 384.5 64.5 c 128,-1,7
 252 149 252 149 177 306.5 c 128,-1,8
 102 464 102 464 102 682 c 2,9,-1
 102 774 l 2,10,11
 102 992 102 992 176.5 1149.5 c 128,-1,12
 251 1307 251 1307 383 1391.5 c 128,-1,13
 515 1476 515 1476 687 1476 c 0,14,15
 928 1476 928 1476 1082 1322 c 1,16,17
 1186 1330 1186 1330 1228 1400.5 c 128,-1,18
 1270 1471 1270 1471 1270 1592 c 1,19,-1
 1437 1592 l 1,20,21
 1437 1431 1437 1431 1371.5 1330 c 128,-1,22
 1306 1229 1306 1229 1175 1199 c 1,23,24
 1223 1114 1223 1114 1248 1007.5 c 128,-1,25
 1273 901 1273 901 1273 774 c 2,0,-1
1082 682 m 2,26,-1
 1082 776 l 2,27,28
 1082 1036 1082 1036 978 1174 c 128,-1,29
 874 1312 874 1312 687 1312 c 0,30,31
 509 1312 509 1312 401 1174 c 128,-1,32
 293 1036 293 1036 293 776 c 2,33,-1
 293 682 l 2,34,35
 293 420 293 420 402 281.5 c 128,-1,36
 511 143 511 143 689 143 c 0,37,38
 877 143 877 143 979.5 281.5 c 128,-1,39
 1082 420 1082 420 1082 682 c 2,26,-1
EndSplineSet
EndChar

StartChar: Omega
Encoding: 8486 8486 205
Width: 1362
GlyphClass: 2
Flags: W
AnchorPoint: "Anchor-1" 679 10 basechar 0
LayerCount: 2
Fore
SplineSet
118 0 m 1,0,-1
 118 157 l 1,1,-1
 341 157 l 1,2,3
 236 258 236 258 175 410 c 128,-1,4
 114 562 114 562 114 726 c 2,5,-1
 114 840 l 2,6,7
 114 1029 114 1029 184 1172.5 c 128,-1,8
 254 1316 254 1316 379 1396 c 128,-1,9
 504 1476 504 1476 669 1476 c 0,10,11
 835 1476 835 1476 961 1396 c 128,-1,12
 1087 1316 1087 1316 1157.5 1172.5 c 128,-1,13
 1228 1029 1228 1029 1228 840 c 2,14,-1
 1228 726 l 2,15,16
 1228 562 1228 562 1167 410 c 128,-1,17
 1106 258 1106 258 1002 157 c 1,18,-1
 1221 157 l 1,19,-1
 1221 0 l 1,20,-1
 738 0 l 1,21,-1
 738 163 l 1,22,23
 871 190 871 190 952 330.5 c 128,-1,24
 1033 471 1033 471 1033 726 c 2,25,-1
 1033 842 l 2,26,27
 1033 1075 1033 1075 935 1197 c 128,-1,28
 837 1319 837 1319 669 1319 c 0,29,30
 503 1319 503 1319 406 1197 c 128,-1,31
 309 1075 309 1075 309 842 c 2,32,-1
 309 726 l 2,33,34
 309 470 309 470 392.5 329.5 c 128,-1,35
 476 189 476 189 610 163 c 1,36,-1
 610 0 l 1,37,-1
 118 0 l 1,0,-1
EndSplineSet
Substitution2: "'c2sc' Capitals to Small Capitals lookup 0 subtable" Omega.smcp
Position2: "'cpsp' Capital Spacing lookup 0 subtable" dx=36 dy=0 dh=72 dv=0
EndChar

StartChar: Omega.smcp
Encoding: 65658 -1 206
Width: 1267
GlyphClass: 2
Flags: W
AnchorPoint: "Anchor-1" 637 10 basechar 0
LayerCount: 2
Fore
SplineSet
122 0 m 1,0,-1
 122 152 l 1,1,-1
 296 152 l 1,2,3
 118 310 118 310 118 616 c 2,4,-1
 118 652 l 2,5,6
 118 801 118 801 178 921 c 128,-1,7
 238 1041 238 1041 353 1111 c 128,-1,8
 468 1181 468 1181 632 1181 c 0,9,10
 797 1181 797 1181 912 1111 c 128,-1,11
 1027 1041 1027 1041 1087 921 c 128,-1,12
 1147 801 1147 801 1147 652 c 2,13,-1
 1147 616 l 2,14,15
 1147 309 1147 309 970 152 c 1,16,-1
 1150 152 l 1,17,-1
 1150 0 l 1,18,-1
 700 0 l 1,19,-1
 700 157 l 1,20,21
 836 189 836 189 899 300 c 128,-1,22
 962 411 962 411 962 616 c 2,23,-1
 962 654 l 2,24,25
 962 818 962 818 882.5 922 c 128,-1,26
 803 1026 803 1026 632 1026 c 0,27,28
 462 1026 462 1026 382.5 922 c 128,-1,29
 303 818 303 818 303 654 c 2,30,-1
 303 616 l 2,31,32
 303 412 303 412 374 300.5 c 128,-1,33
 445 189 445 189 571 157 c 1,34,-1
 571 0 l 1,35,-1
 122 0 l 1,0,-1
EndSplineSet
EndChar

StartChar: Oslash
Encoding: 216 216 207
Width: 1409
GlyphClass: 2
Flags: W
AnchorPoint: "Anchor-0" 715 1674 basechar 0
LayerCount: 2
Fore
SplineSet
1290 774 m 2,0,-1
 1290 682 l 2,1,2
 1290 464 1290 464 1217.5 306.5 c 128,-1,3
 1145 149 1145 149 1014 64.5 c 128,-1,4
 883 -20 883 -20 706 -20 c 0,5,6
 536 -20 536 -20 404 63 c 1,7,-1
 307 -93 l 1,8,-1
 164 -93 l 1,9,-1
 309 139 l 1,10,11
 219 230 219 230 169 367.5 c 128,-1,12
 119 505 119 505 119 682 c 2,13,-1
 119 774 l 2,14,15
 119 992 119 992 193.5 1149.5 c 128,-1,16
 268 1307 268 1307 400 1391.5 c 128,-1,17
 532 1476 532 1476 704 1476 c 0,18,19
 919 1476 919 1476 1066 1352 c 1,20,-1
 1169 1516 l 1,21,-1
 1309 1516 l 1,22,-1
 1151 1262 l 1,23,24
 1218 1172 1218 1172 1254 1049 c 128,-1,25
 1290 926 1290 926 1290 774 c 2,0,-1
310 682 m 2,26,27
 310 558 310 558 335.5 461.5 c 128,-1,28
 361 365 361 365 407 297 c 1,29,-1
 972 1201 l 1,30,31
 872 1312 872 1312 704 1312 c 0,32,33
 525 1312 525 1312 417.5 1174 c 128,-1,34
 310 1036 310 1036 310 776 c 2,35,-1
 310 682 l 2,26,27
1099 682 m 2,36,-1
 1099 776 l 2,37,38
 1099 963 1099 963 1043 1089 c 1,39,-1
 494 207 l 1,40,41
 584 143 584 143 706 143 c 0,42,43
 894 143 894 143 996.5 281.5 c 128,-1,44
 1099 420 1099 420 1099 682 c 2,36,-1
EndSplineSet
Substitution2: "'c2sc' Capitals to Small Capitals lookup 0 subtable" Oslash.smcp
Position2: "'cpsp' Capital Spacing lookup 0 subtable" dx=36 dy=0 dh=72 dv=0
EndChar

StartChar: Oslash.smcp
Encoding: 65659 -1 208
Width: 1212
GlyphClass: 2
Flags: W
AnchorPoint: "Anchor-1" 631 0 basechar 0
AnchorPoint: "Anchor-0" 606 1320 basechar 0
LayerCount: 2
Fore
SplineSet
1115 615 m 2,0,-1
 1115 549 l 2,1,2
 1115 373 1115 373 1052 246.5 c 128,-1,3
 989 120 989 120 875 52 c 128,-1,4
 761 -16 761 -16 607 -16 c 0,5,6
 454 -16 454 -16 337 54 c 1,7,-1
 262 -58 l 1,8,-1
 112 -58 l 1,9,-1
 240 133 l 1,10,11
 172 206 172 206 134 311 c 128,-1,12
 96 416 96 416 96 549 c 2,13,-1
 96 615 l 2,14,15
 96 791 96 791 160.5 918 c 128,-1,16
 225 1045 225 1045 340 1113 c 128,-1,17
 455 1181 455 1181 605 1181 c 0,18,19
 769 1181 769 1181 889 1103 c 1,20,-1
 958 1207 l 1,21,-1
 1107 1207 l 1,22,-1
 983 1021 l 1,23,24
 1046 949 1046 949 1080.5 846 c 128,-1,25
 1115 743 1115 743 1115 615 c 2,0,-1
280 549 m 2,26,27
 280 389 280 389 341 285 c 1,28,-1
 798 967 l 1,29,30
 720 1026 720 1026 605 1026 c 0,31,32
 457 1026 457 1026 368.5 920 c 128,-1,33
 280 814 280 814 280 617 c 2,34,-1
 280 549 l 2,26,27
932 549 m 2,35,-1
 932 617 l 2,36,37
 932 768 932 768 880 867 c 1,38,-1
 428 190 l 1,39,40
 503 138 503 138 607 138 c 0,41,42
 762 138 762 138 847 244.5 c 128,-1,43
 932 351 932 351 932 549 c 2,35,-1
EndSplineSet
EndChar

StartChar: P
Encoding: 80 80 213
Width: 1292
GlyphClass: 2
Flags: W
AnchorPoint: "Anchor-1" 613 10 basechar 0
AnchorPoint: "Anchor-0" 606 1612 basechar 0
LayerCount: 2
Fore
SplineSet
706 571 m 2,0,-1
 362 571 l 1,1,-1
 362 0 l 1,2,-1
 169 0 l 1,3,-1
 169 1456 l 1,4,-1
 706 1456 l 2,5,6
 871 1456 871 1456 985 1399 c 128,-1,7
 1099 1342 1099 1342 1158 1241.5 c 128,-1,8
 1217 1141 1217 1141 1217 1012 c 0,9,10
 1217 801 1217 801 1085.5 686 c 128,-1,11
 954 571 954 571 706 571 c 2,0,-1
706 1298 m 2,12,-1
 362 1298 l 1,13,-1
 362 728 l 1,14,-1
 706 728 l 2,15,16
 876 728 876 728 950 807 c 128,-1,17
 1024 886 1024 886 1024 1010 c 0,18,19
 1024 1085 1024 1085 991.5 1151 c 128,-1,20
 959 1217 959 1217 889 1257.5 c 128,-1,21
 819 1298 819 1298 706 1298 c 2,12,-1
EndSplineSet
Substitution2: "'c2sc' Capitals to Small Capitals lookup 0 subtable" P.smcp
Position2: "'cpsp' Capital Spacing lookup 0 subtable" dx=36 dy=0 dh=72 dv=0
EndChar

StartChar: P.smcp
Encoding: 65662 -1 214
Width: 1117
GlyphClass: 2
Flags: W
AnchorPoint: "Anchor-1" 574 0 basechar 0
AnchorPoint: "Anchor-0" 576 1320 basechar 0
LayerCount: 2
Fore
SplineSet
606 438 m 2,0,-1
 324 438 l 1,1,-1
 324 0 l 1,2,-1
 139 0 l 1,3,-1
 139 1165 l 1,4,-1
 606 1165 l 2,5,6
 821 1165 821 1165 936 1061.5 c 128,-1,7
 1051 958 1051 958 1051 798 c 0,8,9
 1051 630 1051 630 936 534 c 128,-1,10
 821 438 821 438 606 438 c 2,0,-1
606 1012 m 2,11,-1
 324 1012 l 1,12,-1
 324 591 l 1,13,-1
 606 591 l 2,14,15
 743 591 743 591 804.5 648.5 c 128,-1,16
 866 706 866 706 866 796 c 0,17,18
 866 881 866 881 804.5 946.5 c 128,-1,19
 743 1012 743 1012 606 1012 c 2,11,-1
EndSplineSet
EndChar

StartChar: Q
Encoding: 81 81 215
Width: 1409
GlyphClass: 2
Flags: W
AnchorPoint: "Anchor-1" 698 -10 basechar 0
AnchorPoint: "Anchor-0" 700 1600 basechar 0
LayerCount: 2
Fore
SplineSet
1281 774 m 2,0,-1
 1281 682 l 2,1,2
 1281 472 1281 472 1214 318.5 c 128,-1,3
 1147 165 1147 165 1027 79 c 1,4,-1
 1286 -126 l 1,5,-1
 1156 -246 l 1,6,-1
 849 -2 l 1,7,8
 777 -20 777 -20 697 -20 c 0,9,10
 525 -20 525 -20 392.5 64.5 c 128,-1,11
 260 149 260 149 185 306.5 c 128,-1,12
 110 464 110 464 110 682 c 2,13,-1
 110 774 l 2,14,15
 110 992 110 992 184.5 1149.5 c 128,-1,16
 259 1307 259 1307 391 1391.5 c 128,-1,17
 523 1476 523 1476 695 1476 c 0,18,19
 873 1476 873 1476 1004.5 1391.5 c 128,-1,20
 1136 1307 1136 1307 1208.5 1149.5 c 128,-1,21
 1281 992 1281 992 1281 774 c 2,0,-1
1090 682 m 2,22,-1
 1090 776 l 2,23,24
 1090 1036 1090 1036 986.5 1174 c 128,-1,25
 883 1312 883 1312 695 1312 c 0,26,27
 517 1312 517 1312 409 1174 c 128,-1,28
 301 1036 301 1036 301 776 c 2,29,-1
 301 682 l 2,30,31
 301 420 301 420 410 281.5 c 128,-1,32
 519 143 519 143 697 143 c 0,33,34
 885 143 885 143 987.5 281.5 c 128,-1,35
 1090 420 1090 420 1090 682 c 2,22,-1
EndSplineSet
Substitution2: "'c2sc' Capitals to Small Capitals lookup 0 subtable" Q.smcp
Position2: "'cpsp' Capital Spacing lookup 0 subtable" dx=36 dy=0 dh=72 dv=0
EndChar

StartChar: Q.smcp
Encoding: 65663 -1 216
Width: 1212
GlyphClass: 2
Flags: W
AnchorPoint: "Anchor-1" 599 -10 basechar 0
AnchorPoint: "Anchor-0" 599 1320 basechar 0
LayerCount: 2
Fore
SplineSet
1110 615 m 2,0,-1
 1110 549 l 2,1,2
 1110 383 1110 383 1053.5 261 c 128,-1,3
 997 139 997 139 896 69 c 1,4,-1
 1112 -92 l 1,5,-1
 987 -202 l 1,6,-1
 726 -3 l 1,7,8
 667 -16 667 -16 601 -16 c 0,9,10
 451 -16 451 -16 335.5 52 c 128,-1,11
 220 120 220 120 155 246.5 c 128,-1,12
 90 373 90 373 90 549 c 2,13,-1
 90 615 l 2,14,15
 90 791 90 791 154.5 918 c 128,-1,16
 219 1045 219 1045 334 1113 c 128,-1,17
 449 1181 449 1181 599 1181 c 0,18,19
 753 1181 753 1181 868 1113 c 128,-1,20
 983 1045 983 1045 1046.5 918 c 128,-1,21
 1110 791 1110 791 1110 615 c 2,0,-1
926 549 m 2,22,-1
 926 617 l 2,23,24
 926 814 926 814 840 920 c 128,-1,25
 754 1026 754 1026 599 1026 c 0,26,27
 450 1026 450 1026 362 920 c 128,-1,28
 274 814 274 814 274 617 c 2,29,-1
 274 549 l 2,30,31
 274 351 274 351 363 244.5 c 128,-1,32
 452 138 452 138 601 138 c 0,33,34
 756 138 756 138 841 244.5 c 128,-1,35
 926 351 926 351 926 549 c 2,22,-1
EndSplineSet
EndChar

StartChar: R
Encoding: 82 82 217
Width: 1262
GlyphClass: 2
Flags: W
AnchorPoint: "Anchor-1" 611 10 basechar 0
AnchorPoint: "Anchor-0" 610 1601 basechar 0
LayerCount: 2
Fore
SplineSet
1020 0 m 1,0,-1
 704 590 l 1,1,-1
 362 590 l 1,2,-1
 362 0 l 1,3,-1
 169 0 l 1,4,-1
 169 1456 l 1,5,-1
 651 1456 l 2,6,7
 896 1456 896 1456 1028.5 1344 c 128,-1,8
 1161 1232 1161 1232 1161 1019 c 0,9,10
 1161 883 1161 883 1087.5 781.5 c 128,-1,11
 1014 680 1014 680 884 630 c 1,12,-1
 1226 12 l 1,13,-1
 1226 0 l 1,14,-1
 1020 0 l 1,0,-1
651 1298 m 2,15,-1
 362 1298 l 1,16,-1
 362 747 l 1,17,-1
 657 747 l 2,18,19
 812 747 812 747 890.5 826.5 c 128,-1,20
 969 906 969 906 969 1019 c 0,21,22
 969 1145 969 1145 893.5 1221.5 c 128,-1,23
 818 1298 818 1298 651 1298 c 2,15,-1
EndSplineSet
Substitution2: "'c2sc' Capitals to Small Capitals lookup 0 subtable" R.smcp
Position2: "'cpsp' Capital Spacing lookup 0 subtable" dx=36 dy=0 dh=72 dv=0
EndChar

StartChar: R.smcp
Encoding: 65664 -1 218
Width: 1098
GlyphClass: 2
Flags: W
AnchorPoint: "Anchor-1" 525 8 basechar 0
AnchorPoint: "Anchor-0" 520 1320 basechar 0
LayerCount: 2
Fore
SplineSet
863 0 m 1,0,-1
 603 449 l 1,1,-1
 324 449 l 1,2,-1
 324 0 l 1,3,-1
 138 0 l 1,4,-1
 138 1165 l 1,5,-1
 564 1165 l 2,6,7
 776 1165 776 1165 892.5 1073 c 128,-1,8
 1009 981 1009 981 1009 810 c 0,9,10
 1009 693 1009 693 946.5 613.5 c 128,-1,11
 884 534 884 534 774 493 c 1,12,-1
 1062 10 l 1,13,-1
 1062 0 l 1,14,-1
 863 0 l 1,0,-1
564 1012 m 2,15,-1
 324 1012 l 1,16,-1
 324 601 l 1,17,-1
 569 601 l 2,18,19
 696 601 696 601 759.5 658.5 c 128,-1,20
 823 716 823 716 823 802 c 0,21,22
 823 896 823 896 761 954 c 128,-1,23
 699 1012 699 1012 564 1012 c 2,15,-1
EndSplineSet
EndChar

StartChar: S
Encoding: 83 83 225
Width: 1216
GlyphClass: 2
Flags: W
AnchorPoint: "Anchor-1" 628 -1 basechar 0
AnchorPoint: "Anchor-0" 622 1603 basechar 0
LayerCount: 2
Fore
SplineSet
945 368 m 0,0,1
 945 436 945 436 916 484 c 128,-1,2
 887 532 887 532 812 571 c 128,-1,3
 737 610 737 610 599 650 c 0,4,5
 383 713 383 713 255 812 c 128,-1,6
 127 911 127 911 127 1080 c 0,7,8
 127 1193 127 1193 188.5 1282.5 c 128,-1,9
 250 1372 250 1372 361.5 1424 c 128,-1,10
 473 1476 473 1476 622 1476 c 0,11,12
 786 1476 786 1476 900.5 1413.5 c 128,-1,13
 1015 1351 1015 1351 1075 1250.5 c 128,-1,14
 1135 1150 1135 1150 1135 1036 c 1,15,-1
 943 1036 l 1,16,17
 943 1158 943 1158 864 1238 c 128,-1,18
 785 1318 785 1318 622 1318 c 0,19,20
 468 1318 468 1318 394 1250.5 c 128,-1,21
 320 1183 320 1183 320 1082 c 0,22,23
 320 991 320 991 400.5 929.5 c 128,-1,24
 481 868 481 868 661 818 c 0,25,26
 909 748 909 748 1024 644 c 128,-1,27
 1139 540 1139 540 1139 370 c 0,28,29
 1139 252 1139 252 1076 164 c 128,-1,30
 1013 76 1013 76 899 28 c 128,-1,31
 785 -20 785 -20 631 -20 c 0,32,33
 530 -20 530 -20 432.5 8 c 128,-1,34
 335 36 335 36 255.5 92 c 128,-1,35
 176 148 176 148 128.5 230.5 c 128,-1,36
 81 313 81 313 81 422 c 1,37,-1
 273 422 l 1,38,39
 273 323 273 323 323.5 260 c 128,-1,40
 374 197 374 197 456 167 c 128,-1,41
 538 137 538 137 631 137 c 0,42,43
 782 137 782 137 863.5 199.5 c 128,-1,44
 945 262 945 262 945 368 c 0,0,1
EndSplineSet
Substitution2: "'c2sc' Capitals to Small Capitals lookup 0 subtable" S.smcp
Position2: "'cpsp' Capital Spacing lookup 0 subtable" dx=36 dy=0 dh=72 dv=0
EndChar

StartChar: S.smcp
Encoding: 65668 -1 226
Width: 1056
GlyphClass: 2
Flags: W
AnchorPoint: "Anchor-1" 552 0 basechar 0
AnchorPoint: "Anchor-0" 543 1320 basechar 0
LayerCount: 2
Fore
SplineSet
803 298 m 0,0,1
 803 347 803 347 780 383.5 c 128,-1,2
 757 420 757 420 698.5 449 c 128,-1,3
 640 478 640 478 531 504 c 0,4,5
 338 551 338 551 223 633.5 c 128,-1,6
 108 716 108 716 108 861 c 0,7,8
 108 955 108 955 162 1027 c 128,-1,9
 216 1099 216 1099 314 1140 c 128,-1,10
 412 1181 412 1181 542 1181 c 0,11,12
 682 1181 682 1181 781.5 1132.5 c 128,-1,13
 881 1084 881 1084 934 1003.5 c 128,-1,14
 987 923 987 923 987 826 c 1,15,-1
 801 826 l 1,16,17
 801 915 801 915 737 972.5 c 128,-1,18
 673 1030 673 1030 540 1030 c 0,19,20
 415 1030 415 1030 354 981.5 c 128,-1,21
 293 933 293 933 293 862 c 0,22,23
 293 794 293 794 360 749.5 c 128,-1,24
 427 705 427 705 587 664 c 0,25,26
 781 615 781 615 885.5 529.5 c 128,-1,27
 990 444 990 444 990 300 c 0,28,29
 990 154 990 154 868.5 69 c 128,-1,30
 747 -16 747 -16 548 -16 c 0,31,32
 430 -16 430 -16 320 24 c 128,-1,33
 210 64 210 64 139 145 c 128,-1,34
 68 226 68 226 68 349 c 1,35,-1
 254 349 l 1,36,37
 254 272 254 272 294 224.5 c 128,-1,38
 334 177 334 177 401 155.5 c 128,-1,39
 468 134 468 134 548 134 c 0,40,41
 673 134 673 134 738 179.5 c 128,-1,42
 803 225 803 225 803 298 c 0,0,1
EndSplineSet
EndChar

StartChar: Schwa
Encoding: 399 399 233
Width: 1415
GlyphClass: 2
Flags: W
AnchorPoint: "Anchor-1" 696 0 basechar 0
AnchorPoint: "Anchor-0" 661 1603 basechar 0
LayerCount: 2
Fore
SplineSet
697 -20 m 0,0,1
 400 -20 400 -20 247 159.5 c 128,-1,2
 94 339 94 339 94 643 c 2,3,-1
 94 767 l 1,4,-1
 1106 767 l 1,5,-1
 1106 774 l 2,6,7
 1106 924 1106 924 1058.5 1047 c 128,-1,8
 1011 1170 1011 1170 908.5 1243 c 128,-1,9
 806 1316 806 1316 641 1316 c 0,10,11
 511 1316 511 1316 423 1288 c 128,-1,12
 335 1260 335 1260 276 1232 c 1,13,-1
 229 1375 l 1,14,15
 265 1399 265 1399 366.5 1437.5 c 128,-1,16
 468 1476 468 1476 641 1476 c 0,17,18
 853 1476 853 1476 999.5 1386.5 c 128,-1,19
 1146 1297 1146 1297 1222 1138.5 c 128,-1,20
 1298 980 1298 980 1298 774 c 2,21,-1
 1298 680 l 2,22,23
 1298 473 1298 473 1217.5 315.5 c 128,-1,24
 1137 158 1137 158 1000.5 69 c 128,-1,25
 864 -20 864 -20 697 -20 c 0,0,1
697 139 m 0,26,27
 818 139 818 139 906 202.5 c 128,-1,28
 994 266 994 266 1044 374.5 c 128,-1,29
 1094 483 1094 483 1104 618 c 1,30,-1
 287 618 l 1,31,-1
 287 584 l 2,32,33
 287 460 287 460 326.5 359 c 128,-1,34
 366 258 366 258 456 198.5 c 128,-1,35
 546 139 546 139 697 139 c 0,26,27
EndSplineSet
EndChar

StartChar: T
Encoding: 84 84 237
Width: 1222
GlyphClass: 2
Flags: W
AnchorPoint: "Anchor-1" 614 0 basechar 0
AnchorPoint: "Anchor-0" 612 1600 basechar 0
LayerCount: 2
Fore
SplineSet
1175 1456 m 1,0,-1
 1175 1298 l 1,1,-1
 707 1298 l 1,2,-1
 707 0 l 1,3,-1
 517 0 l 1,4,-1
 517 1298 l 1,5,-1
 50 1298 l 1,6,-1
 50 1456 l 1,7,-1
 1175 1456 l 1,0,-1
EndSplineSet
Substitution2: "'c2sc' Capitals to Small Capitals lookup 0 subtable" T.smcp
Position2: "'cpsp' Capital Spacing lookup 0 subtable" dx=36 dy=0 dh=72 dv=0
EndChar

StartChar: T.smcp
Encoding: 65674 -1 238
Width: 1063
GlyphClass: 2
Flags: W
AnchorPoint: "Anchor-1" 531 3 basechar 0
AnchorPoint: "Anchor-0" 530 1320 basechar 0
LayerCount: 2
Fore
SplineSet
1021 1165 m 1,0,-1
 1021 1012 l 1,1,-1
 622 1012 l 1,2,-1
 622 0 l 1,3,-1
 438 0 l 1,4,-1
 438 1012 l 1,5,-1
 41 1012 l 1,6,-1
 41 1165 l 1,7,-1
 1021 1165 l 1,0,-1
EndSplineSet
EndChar

StartChar: Tbar
Encoding: 358 358 239
Width: 1222
GlyphClass: 2
Flags: W
AnchorPoint: "Anchor-1" 614 0 basechar 0
AnchorPoint: "Anchor-0" 612 1600 basechar 0
LayerCount: 2
Fore
SplineSet
939 974 m 1,0,-1
 939 822 l 1,1,-1
 707 822 l 1,2,-1
 707 0 l 1,3,-1
 517 0 l 1,4,-1
 517 822 l 1,5,-1
 302 822 l 1,6,-1
 302 974 l 1,7,-1
 517 974 l 1,8,-1
 517 1298 l 1,9,-1
 50 1298 l 1,10,-1
 50 1456 l 1,11,-1
 1175 1456 l 1,12,-1
 1175 1298 l 1,13,-1
 707 1298 l 1,14,-1
 707 974 l 1,15,-1
 939 974 l 1,0,-1
EndSplineSet
Substitution2: "'c2sc' Capitals to Small Capitals lookup 0 subtable" Tbar.smcp
Position2: "'cpsp' Capital Spacing lookup 0 subtable" dx=36 dy=0 dh=72 dv=0
EndChar

StartChar: Thorn
Encoding: 222 222 244
Width: 1210
GlyphClass: 2
Flags: W
LayerCount: 2
Fore
SplineSet
167 1456 m 1,0,-1
 352 1456 l 1,1,-1
 352 1163 l 1,2,-1
 630 1163 l 2,3,4
 788 1163 788 1163 896.5 1108 c 128,-1,5
 1005 1053 1005 1053 1061 957 c 128,-1,6
 1117 861 1117 861 1117 738 c 0,7,8
 1117 616 1117 616 1061 520 c 128,-1,9
 1005 424 1005 424 896.5 369 c 128,-1,10
 788 314 788 314 630 314 c 2,11,-1
 352 314 l 1,12,-1
 352 0 l 1,13,-1
 167 0 l 1,14,-1
 167 1456 l 1,0,-1
630 1012 m 2,15,-1
 352 1012 l 1,16,-1
 352 465 l 1,17,-1
 630 465 l 2,18,19
 738 465 738 465 804.5 504.5 c 128,-1,20
 871 544 871 544 901.5 606 c 128,-1,21
 932 668 932 668 932 736 c 0,22,23
 932 806 932 806 901.5 869 c 128,-1,24
 871 932 871 932 804.5 972 c 128,-1,25
 738 1012 738 1012 630 1012 c 2,15,-1
EndSplineSet
Substitution2: "'c2sc' Capitals to Small Capitals lookup 0 subtable" Thorn.smcp
Position2: "'cpsp' Capital Spacing lookup 0 subtable" dx=36 dy=0 dh=72 dv=0
EndChar

StartChar: Thorn.smcp
Encoding: 65678 -1 245
Width: 1017
GlyphClass: 2
Flags: W
AnchorPoint: "Anchor-1" 450 10 basechar 0
AnchorPoint: "Anchor-0" 526 1320 basechar 0
LayerCount: 2
Fore
SplineSet
139 0 m 1,0,-1
 139 1165 l 1,1,-1
 324 1165 l 1,2,-1
 324 963 l 1,3,-1
 506 963 l 2,4,5
 721 963 721 963 836 859.5 c 128,-1,6
 951 756 951 756 951 596 c 0,7,8
 951 427 951 427 836 331.5 c 128,-1,9
 721 236 721 236 506 236 c 2,10,-1
 324 236 l 1,11,-1
 324 0 l 1,12,-1
 139 0 l 1,0,-1
506 810 m 2,13,-1
 324 810 l 1,14,-1
 324 389 l 1,15,-1
 506 389 l 2,16,17
 643 389 643 389 704.5 446.5 c 128,-1,18
 766 504 766 504 766 594 c 0,19,20
 766 679 766 679 704.5 744.5 c 128,-1,21
 643 810 643 810 506 810 c 2,13,-1
EndSplineSet
EndChar

StartChar: U
Encoding: 85 85 246
Width: 1328
GlyphClass: 2
Flags: W
AnchorPoint: "Anchor-1" 666 0 basechar 0
AnchorPoint: "Anchor-0" 667 1601 basechar 0
LayerCount: 2
Fore
SplineSet
1002 1456 m 1,0,-1
 1194 1456 l 1,1,-1
 1194 471 l 2,2,3
 1194 307 1194 307 1121 198 c 128,-1,4
 1048 89 1048 89 927.5 34.5 c 128,-1,5
 807 -20 807 -20 666 -20 c 0,6,7
 518 -20 518 -20 398.5 34.5 c 128,-1,8
 279 89 279 89 209.5 198 c 128,-1,9
 140 307 140 307 140 471 c 2,10,-1
 140 1456 l 1,11,-1
 331 1456 l 1,12,-1
 331 471 l 2,13,14
 331 300 331 300 423.5 218.5 c 128,-1,15
 516 137 516 137 666 137 c 0,16,17
 818 137 818 137 910 218.5 c 128,-1,18
 1002 300 1002 300 1002 471 c 2,19,-1
 1002 1456 l 1,0,-1
EndSplineSet
Substitution2: "'unic' Unicase lookup 2 subtable" U.unic
Substitution2: "'c2sc' Capitals to Small Capitals lookup 0 subtable" U.smcp
Position2: "'cpsp' Capital Spacing lookup 0 subtable" dx=36 dy=0 dh=72 dv=0
EndChar

StartChar: U.smcp
Encoding: 65679 -1 247
Width: 1149
GlyphClass: 2
Flags: W
AnchorPoint: "Anchor-1" 574 0 basechar 0
AnchorPoint: "Anchor-0" 576 1320 basechar 0
LayerCount: 2
Fore
SplineSet
849 1165 m 1,0,-1
 1035 1165 l 1,1,-1
 1035 385 l 2,2,3
 1035 253 1035 253 972.5 163.5 c 128,-1,4
 910 74 910 74 805.5 29 c 128,-1,5
 701 -16 701 -16 575 -16 c 0,6,7
 444 -16 444 -16 340.5 29 c 128,-1,8
 237 74 237 74 177 163.5 c 128,-1,9
 117 253 117 253 117 385 c 2,10,-1
 117 1165 l 1,11,-1
 300 1165 l 1,12,-1
 300 385 l 2,13,14
 300 256 300 256 376 195.5 c 128,-1,15
 452 135 452 135 575 135 c 0,16,17
 700 135 700 135 774.5 195.5 c 128,-1,18
 849 256 849 256 849 385 c 2,19,-1
 849 1165 l 1,0,-1
EndSplineSet
EndChar

StartChar: U.unic
Encoding: 65680 -1 248
Width: 1461
GlyphClass: 2
Flags: W
AnchorPoint: "Anchor-1" 721 0 basechar 0
AnchorPoint: "Anchor-0" 722 1632 basechar 0
LayerCount: 2
Fore
SplineSet
1106 0 m 1,0,-1
 1099 174 l 1,1,2
 1022 83 1022 83 901 31.5 c 128,-1,3
 780 -20 780 -20 639 -20 c 0,4,5
 497 -20 497 -20 391 31 c 128,-1,6
 285 82 285 82 227 195 c 128,-1,7
 169 308 169 308 169 493 c 2,8,-1
 169 1456 l 1,9,-1
 362 1456 l 1,10,-1
 362 491 l 2,11,12
 362 305 362 305 450 224.5 c 128,-1,13
 538 144 538 144 694 144 c 0,14,15
 827 144 827 144 938 216 c 128,-1,16
 1049 288 1049 288 1096 400 c 1,17,-1
 1096 1456 l 1,18,-1
 1288 1456 l 1,19,-1
 1288 0 l 1,20,-1
 1106 0 l 1,0,-1
EndSplineSet
EndChar

StartChar: Uhorn
Encoding: 431 431 263
Width: 1424
GlyphClass: 2
Flags: W
AnchorPoint: "Anchor-1" 692 -9 basechar 0
AnchorPoint: "Anchor-0" 694 1612 basechar 0
LayerCount: 2
Fore
SplineSet
1002 1456 m 1,0,-1
 1194 1456 l 1,1,-1
 1194 1244 l 1,2,3
 1319 1255 1319 1255 1363 1329.5 c 128,-1,4
 1407 1404 1407 1404 1407 1538 c 1,5,-1
 1565 1538 l 1,6,7
 1565 1338 1565 1338 1480 1228.5 c 128,-1,8
 1395 1119 1395 1119 1194 1108 c 1,9,-1
 1194 471 l 2,10,11
 1194 307 1194 307 1121 198 c 128,-1,12
 1048 89 1048 89 927.5 34.5 c 128,-1,13
 807 -20 807 -20 666 -20 c 0,14,15
 518 -20 518 -20 398.5 34.5 c 128,-1,16
 279 89 279 89 209.5 198 c 128,-1,17
 140 307 140 307 140 471 c 2,18,-1
 140 1456 l 1,19,-1
 331 1456 l 1,20,-1
 331 471 l 2,21,22
 331 300 331 300 423.5 218.5 c 128,-1,23
 516 137 516 137 666 137 c 0,24,25
 818 137 818 137 910 218.5 c 128,-1,26
 1002 300 1002 300 1002 471 c 2,27,-1
 1002 1456 l 1,0,-1
EndSplineSet
EndChar

StartChar: Uogonek
Encoding: 370 370 270
Width: 1328
GlyphClass: 2
Flags: W
AnchorPoint: "Anchor-1" 666 0 basechar 0
AnchorPoint: "Anchor-0" 667 1601 basechar 0
LayerCount: 2
Fore
SplineSet
1002 1456 m 1,0,-1
 1194 1456 l 1,1,-1
 1194 471 l 2,2,3
 1194 307 1194 307 1120 198 c 128,-1,4
 1046 89 1046 89 928 34 c 1,5,6
 867 -12 867 -12 818.5 -64 c 128,-1,7
 770 -116 770 -116 770 -178 c 0,8,9
 770 -211 770 -211 787.5 -231 c 128,-1,10
 805 -251 805 -251 848 -251 c 0,11,12
 881 -251 881 -251 907 -241.5 c 128,-1,13
 933 -232 933 -232 948 -224 c 1,14,-1
 962 -346 l 1,15,16
 937 -361 937 -361 898.5 -375.5 c 128,-1,17
 860 -390 860 -390 801 -390 c 0,18,19
 720 -390 720 -390 664.5 -341.5 c 128,-1,20
 609 -293 609 -293 609 -199 c 0,21,22
 609 -153 609 -153 628 -108 c 128,-1,23
 647 -63 647 -63 688 -20 c 1,24,25
 677 -20 677 -20 666 -20 c 0,26,27
 518 -20 518 -20 398.5 34.5 c 128,-1,28
 279 89 279 89 209.5 198 c 128,-1,29
 140 307 140 307 140 471 c 2,30,-1
 140 1456 l 1,31,-1
 331 1456 l 1,32,-1
 331 471 l 2,33,34
 331 300 331 300 423.5 218.5 c 128,-1,35
 516 137 516 137 666 137 c 0,36,37
 818 137 818 137 910 218.5 c 128,-1,38
 1002 300 1002 300 1002 471 c 2,39,-1
 1002 1456 l 1,0,-1
EndSplineSet
Substitution2: "'unic' Unicase lookup 2 subtable" Uogonek.unic
Substitution2: "'c2sc' Capitals to Small Capitals lookup 0 subtable" Uogonek.smcp
Position2: "'cpsp' Capital Spacing lookup 0 subtable" dx=36 dy=0 dh=72 dv=0
EndChar

StartChar: Uogonek.smcp
Encoding: 65694 -1 271
Width: 1149
GlyphClass: 2
Flags: W
AnchorPoint: "Anchor-1" 574 0 basechar 0
AnchorPoint: "Anchor-0" 576 1320 basechar 0
LayerCount: 2
Fore
SplineSet
849 1165 m 1,0,-1
 1035 1165 l 1,1,-1
 1035 385 l 2,2,3
 1035 252 1035 252 971 162.5 c 128,-1,4
 907 73 907 73 805 29 c 1,5,6
 743 -18 743 -18 694 -70.5 c 128,-1,7
 645 -123 645 -123 645 -185 c 0,8,9
 645 -218 645 -218 662.5 -238 c 128,-1,10
 680 -258 680 -258 723 -258 c 0,11,12
 756 -258 756 -258 782 -248.5 c 128,-1,13
 808 -239 808 -239 823 -231 c 1,14,-1
 837 -353 l 1,15,16
 812 -368 812 -368 773.5 -382.5 c 128,-1,17
 735 -397 735 -397 676 -397 c 0,18,19
 595 -397 595 -397 539.5 -348.5 c 128,-1,20
 484 -300 484 -300 484 -206 c 0,21,22
 484 -158 484 -158 505.5 -109.5 c 128,-1,23
 527 -61 527 -61 574 -16 c 1,24,25
 443 -16 443 -16 339.5 29 c 128,-1,26
 236 74 236 74 176.5 163.5 c 128,-1,27
 117 253 117 253 117 385 c 2,28,-1
 117 1165 l 1,29,-1
 300 1165 l 1,30,-1
 300 385 l 2,31,32
 300 256 300 256 376 195.5 c 128,-1,33
 452 135 452 135 575 135 c 0,34,35
 700 135 700 135 774.5 195.5 c 128,-1,36
 849 256 849 256 849 385 c 2,37,-1
 849 1165 l 1,0,-1
EndSplineSet
EndChar

StartChar: V
Encoding: 86 86 279
Width: 1304
GlyphClass: 2
Flags: W
AnchorPoint: "Anchor-1" 655 10 basechar 0
AnchorPoint: "Anchor-0" 655 1612 basechar 0
LayerCount: 2
Fore
SplineSet
238 1456 m 1,0,-1
 651 256 l 1,1,-1
 1068 1456 l 1,2,-1
 1277 1456 l 1,3,-1
 738 0 l 1,4,-1
 567 0 l 1,5,-1
 29 1456 l 1,6,-1
 238 1456 l 1,0,-1
EndSplineSet
Substitution2: "'c2sc' Capitals to Small Capitals lookup 0 subtable" V.smcp
Position2: "'cpsp' Capital Spacing lookup 0 subtable" dx=36 dy=0 dh=72 dv=0
EndChar

StartChar: V.smcp
Encoding: 65700 -1 280
Width: 1128
GlyphClass: 2
Flags: W
AnchorPoint: "Anchor-1" 561 10 basechar 0
AnchorPoint: "Anchor-0" 561 1320 basechar 0
LayerCount: 2
Fore
SplineSet
590 291 m 1,0,-1
 910 1165 l 1,1,-1
 1108 1165 l 1,2,-1
 651 0 l 1,3,-1
 477 0 l 1,4,-1
 20 1165 l 1,5,-1
 220 1165 l 1,6,-1
 538 292 l 1,7,-1
 564 198 l 1,8,-1
 590 291 l 1,0,-1
EndSplineSet
EndChar

StartChar: W
Encoding: 87 87 281
Width: 1817
GlyphClass: 2
Flags: W
AnchorPoint: "Anchor-1" 922 10 basechar 0
AnchorPoint: "Anchor-0" 924 1601 basechar 0
LayerCount: 2
Fore
SplineSet
552 440 m 1,0,-1
 841 1456 l 1,1,-1
 1002 1456 l 1,2,-1
 1283 440 l 1,3,-1
 1324 263 l 1,4,-1
 1355 461 l 1,5,-1
 1580 1456 l 1,6,-1
 1773 1456 l 1,7,-1
 1421 0 l 1,8,-1
 1246 0 l 1,9,-1
 946 1061 l 1,10,-1
 923 1172 l 1,11,-1
 900 1061 l 1,12,-1
 589 0 l 1,13,-1
 414 0 l 1,14,-1
 61 1456 l 1,15,-1
 253 1456 l 1,16,-1
 483 460 l 1,17,-1
 512 267 l 1,18,-1
 552 440 l 1,0,-1
EndSplineSet
Substitution2: "'c2sc' Capitals to Small Capitals lookup 0 subtable" W.smcp
Position2: "'cpsp' Capital Spacing lookup 0 subtable" dx=36 dy=0 dh=72 dv=0
EndChar

StartChar: W.smcp
Encoding: 65701 -1 282
Width: 1557
GlyphClass: 2
Flags: W
AnchorPoint: "Anchor-1" 786 10 basechar 0
AnchorPoint: "Anchor-0" 786 1320 basechar 0
LayerCount: 2
Fore
SplineSet
457 278 m 1,0,-1
 705 1165 l 1,1,-1
 870 1165 l 1,2,-1
 1114 275 l 1,3,-1
 1128 214 l 1,4,-1
 1140 297 l 1,5,-1
 1337 1165 l 1,6,-1
 1521 1165 l 1,7,-1
 1223 0 l 1,8,-1
 1050 0 l 1,9,-1
 790 918 l 1,10,-1
 789 923 l 1,11,-1
 788 918 l 1,12,-1
 520 0 l 1,13,-1
 347 0 l 1,14,-1
 49 1165 l 1,15,-1
 233 1165 l 1,16,-1
 432 295 l 1,17,-1
 443 217 l 1,18,-1
 457 278 l 1,0,-1
EndSplineSet
EndChar

StartChar: X
Encoding: 88 88 289
Width: 1284
GlyphClass: 2
Flags: W
AnchorPoint: "Anchor-1" 645 10 basechar 0
AnchorPoint: "Anchor-0" 653 1612 basechar 0
LayerCount: 2
Fore
SplineSet
294 1456 m 1,0,-1
 644 898 l 1,1,-1
 994 1456 l 1,2,-1
 1219 1456 l 1,3,-1
 759 735 l 1,4,-1
 1230 0 l 1,5,-1
 1003 0 l 1,6,-1
 644 569 l 1,7,-1
 285 0 l 1,8,-1
 58 0 l 1,9,-1
 529 735 l 1,10,-1
 69 1456 l 1,11,-1
 294 1456 l 1,0,-1
EndSplineSet
Substitution2: "'c2sc' Capitals to Small Capitals lookup 0 subtable" X.smcp
Position2: "'cpsp' Capital Spacing lookup 0 subtable" dx=36 dy=0 dh=72 dv=0
EndChar

StartChar: X.smcp
Encoding: 65707 -1 290
Width: 1108
GlyphClass: 2
Flags: W
AnchorPoint: "Anchor-1" 550 8 basechar 0
AnchorPoint: "Anchor-0" 550 1320 basechar 0
LayerCount: 2
Fore
SplineSet
267 1165 m 1,0,-1
 552 730 l 1,1,-1
 839 1165 l 1,2,-1
 1060 1165 l 1,3,-1
 665 587 l 1,4,-1
 1074 0 l 1,5,-1
 853 0 l 1,6,-1
 555 443 l 1,7,-1
 259 0 l 1,8,-1
 39 0 l 1,9,-1
 445 587 l 1,10,-1
 48 1165 l 1,11,-1
 267 1165 l 1,0,-1
EndSplineSet
EndChar

StartChar: Y
Encoding: 89 89 291
Width: 1230
GlyphClass: 2
Flags: W
AnchorPoint: "Anchor-1" 615 1 basechar 0
AnchorPoint: "Anchor-0" 618 1600 basechar 0
LayerCount: 2
Fore
SplineSet
236 1456 m 1,0,-1
 614 725 l 1,1,-1
 993 1456 l 1,2,-1
 1212 1456 l 1,3,-1
 710 544 l 1,4,-1
 710 0 l 1,5,-1
 517 0 l 1,6,-1
 517 544 l 1,7,-1
 15 1456 l 1,8,-1
 236 1456 l 1,0,-1
EndSplineSet
Substitution2: "'c2sc' Capitals to Small Capitals lookup 0 subtable" Y.smcp
Position2: "'cpsp' Capital Spacing lookup 0 subtable" dx=36 dy=0 dh=72 dv=0
EndChar

StartChar: Y.smcp
Encoding: 65708 -1 292
Width: 1067
GlyphClass: 2
Flags: W
AnchorPoint: "Anchor-1" 533 10 basechar 0
AnchorPoint: "Anchor-0" 533 1320 basechar 0
LayerCount: 2
Fore
SplineSet
222 1165 m 1,0,-1
 533 588 l 1,1,-1
 844 1165 l 1,2,-1
 1052 1165 l 1,3,-1
 622 406 l 1,4,-1
 622 0 l 1,5,-1
 438 0 l 1,6,-1
 438 418 l 1,7,-1
 14 1165 l 1,8,-1
 222 1165 l 1,0,-1
EndSplineSet
EndChar

StartChar: Z
Encoding: 90 90 301
Width: 1227
GlyphClass: 2
Flags: W
AnchorPoint: "Anchor-1" 613 10 basechar 0
AnchorPoint: "Anchor-0" 616 1601 basechar 0
LayerCount: 2
Fore
SplineSet
1146 157 m 1,0,-1
 1146 0 l 1,1,-1
 87 0 l 1,2,-1
 87 144 l 1,3,-1
 885 1298 l 1,4,-1
 100 1298 l 1,5,-1
 100 1456 l 1,6,-1
 1114 1456 l 1,7,-1
 1114 1316 l 1,8,-1
 314 157 l 1,9,-1
 1146 157 l 1,0,-1
EndSplineSet
Substitution2: "'c2sc' Capitals to Small Capitals lookup 0 subtable" Z.smcp
Position2: "'cpsp' Capital Spacing lookup 0 subtable" dx=36 dy=0 dh=72 dv=0
EndChar

StartChar: Z.smcp
Encoding: 65714 -1 302
Width: 1059
GlyphClass: 2
Flags: W
AnchorPoint: "Anchor-1" 533 10 basechar 0
AnchorPoint: "Anchor-0" 533 1320 basechar 0
LayerCount: 2
Fore
SplineSet
993 152 m 1,0,-1
 993 0 l 1,1,-1
 72 0 l 1,2,-1
 72 124 l 1,3,-1
 736 1013 l 1,4,-1
 81 1013 l 1,5,-1
 81 1165 l 1,6,-1
 968 1165 l 1,7,-1
 968 1045 l 1,8,-1
 305 152 l 1,9,-1
 993 152 l 1,0,-1
EndSplineSet
EndChar

StartChar: a
Encoding: 97 97 309
Width: 1114
GlyphClass: 2
Flags: W
AnchorPoint: "Anchor-1" 502 0 basechar 0
AnchorPoint: "Anchor-0" 582 1290 basechar 0
LayerCount: 2
Fore
SplineSet
809 0 m 1,0,1
 800 20 800 20 793.5 50.5 c 128,-1,2
 787 81 787 81 783 114 c 1,3,4
 731 59 731 59 653 19.5 c 128,-1,5
 575 -20 575 -20 475 -20 c 0,6,7
 365 -20 365 -20 282.5 23 c 128,-1,8
 200 66 200 66 154.5 138.5 c 128,-1,9
 109 211 109 211 109 301 c 0,10,11
 109 475 109 475 241 565.5 c 128,-1,12
 373 656 373 656 596 656 c 2,13,-1
 779 656 l 1,14,-1
 779 742 l 2,15,16
 779 838 779 838 721.5 895.5 c 128,-1,17
 664 953 664 953 551 953 c 0,18,19
 446 953 446 953 381.5 901.5 c 128,-1,20
 317 850 317 850 317 782 c 1,21,-1
 132 782 l 1,22,23
 132 860 132 860 185 933.5 c 128,-1,24
 238 1007 238 1007 334.5 1054.5 c 128,-1,25
 431 1102 431 1102 562 1102 c 0,26,27
 738 1102 738 1102 851 1012 c 128,-1,28
 964 922 964 922 964 740 c 2,29,-1
 964 236 l 2,30,31
 964 182 964 182 973.5 121 c 128,-1,32
 983 60 983 60 1002 16 c 1,33,-1
 1002 0 l 1,34,-1
 809 0 l 1,0,1
502 142 m 0,35,36
 602 142 602 142 675.5 192 c 128,-1,37
 749 242 749 242 779 303 c 1,38,-1
 779 526 l 1,39,-1
 626 526 l 2,40,41
 467 526 467 526 381 476.5 c 128,-1,42
 295 427 295 427 295 326 c 0,43,44
 295 249 295 249 347 195.5 c 128,-1,45
 399 142 399 142 502 142 c 0,35,36
EndSplineSet
Substitution2: "'unic' Unicase lookup 2 subtable" A.unic
Substitution2: "'smcp' Lowercase to Small Capitals lookup 1 subtable" A.smcp
EndChar

StartChar: acute
Encoding: 180 180 313
Width: 642
GlyphClass: 2
Flags: W
LayerCount: 2
Fore
SplineSet
123 1242 m 1,0,-1
 317 1536 l 1,1,-1
 540 1536 l 1,2,-1
 272 1242 l 1,3,-1
 123 1242 l 1,0,-1
EndSplineSet
EndChar

StartChar: acutecomb
Encoding: 769 769 314
Width: 0
GlyphClass: 4
Flags: W
AnchorPoint: "Anchor-3" -566 1641 basemark 0
AnchorPoint: "Anchor-3" -566 1290 mark 0
AnchorPoint: "Anchor-0" -566 1290 mark 0
LayerCount: 2
Fore
SplineSet
-658 1242 m 1,0,-1
 -464 1536 l 1,1,-1
 -241 1536 l 1,2,-1
 -509 1242 l 1,3,-1
 -658 1242 l 1,0,-1
EndSplineSet
EndChar

StartChar: ae
Encoding: 230 230 316
Width: 1730
GlyphClass: 2
Flags: W
AnchorPoint: "Anchor-0" 859 1291 basechar 0
LayerCount: 2
Fore
SplineSet
1263 -21 m 0,0,1
 1129 -21 1129 -21 1029 27 c 128,-1,2
 929 75 929 75 865 160 c 1,3,4
 814 93 814 93 707.5 36 c 128,-1,5
 601 -21 601 -21 434 -21 c 0,6,7
 262 -21 262 -21 170.5 67.5 c 128,-1,8
 79 156 79 156 79 304 c 0,9,10
 79 462 79 462 193 549 c 128,-1,11
 307 636 307 636 527 636 c 2,12,-1
 749 636 l 1,13,-1
 749 720 l 2,14,15
 749 827 749 827 694 888.5 c 128,-1,16
 639 950 639 950 535 950 c 0,17,18
 423 950 423 950 357 893.5 c 128,-1,19
 291 837 291 837 291 760 c 1,20,-1
 107 778 l 1,21,22
 107 872 107 872 161 945 c 128,-1,23
 215 1018 215 1018 311.5 1060 c 128,-1,24
 408 1102 408 1102 535 1102 c 0,25,26
 651 1102 651 1102 739 1060.5 c 128,-1,27
 827 1019 827 1019 876 936 c 1,28,29
 938 1015 938 1015 1026.5 1059 c 128,-1,30
 1115 1103 1115 1103 1219 1102 c 0,31,32
 1434 1102 1434 1102 1547.5 971 c 128,-1,33
 1661 840 1661 840 1661 616 c 2,34,-1
 1661 498 l 1,35,-1
 933 498 l 1,36,37
 937 396 937 396 972.5 312.5 c 128,-1,38
 1008 229 1008 229 1079.5 180 c 128,-1,39
 1151 131 1151 131 1263 131 c 0,40,41
 1382 131 1382 131 1455 167.5 c 128,-1,42
 1528 204 1528 204 1578 238 c 1,43,-1
 1643 102 l 1,44,45
 1621 85 1621 85 1572.5 55.5 c 128,-1,46
 1524 26 1524 26 1447 2.5 c 128,-1,47
 1370 -21 1370 -21 1263 -21 c 0,0,1
1219 950 m 0,48,49
 1098 950 1098 950 1026 861.5 c 128,-1,50
 954 773 954 773 938 640 c 1,51,-1
 1475 640 l 1,52,-1
 1475 671 l 2,53,54
 1475 747 1475 747 1450 810 c 128,-1,55
 1425 873 1425 873 1369 911.5 c 128,-1,56
 1313 950 1313 950 1219 950 c 0,48,49
470 130 m 0,57,58
 546 130 546 130 624.5 169.5 c 128,-1,59
 703 209 703 209 749 258 c 1,60,-1
 749 496 l 1,61,-1
 529 496 l 2,62,63
 398 496 398 496 331 437 c 128,-1,64
 264 378 264 378 264 300 c 0,65,66
 264 229 264 229 314.5 179.5 c 128,-1,67
 365 130 365 130 470 130 c 0,57,58
EndSplineSet
Substitution2: "'unic' Unicase lookup 2 subtable" AE
Substitution2: "'smcp' Lowercase to Small Capitals lookup 1 subtable" AE.smcp
EndChar

StartChar: afii57636
Encoding: 8362 8362 321
Width: 1579
GlyphClass: 2
Flags: W
LayerCount: 2
Fore
SplineSet
140 1082 m 1,0,-1
 699 1082 l 2,1,2
 859 1082 859 1082 952.5 992 c 128,-1,3
 1046 902 1046 902 1046 678 c 2,4,-1
 1046 349 l 1,5,-1
 860 349 l 1,6,-1
 860 680 l 2,7,8
 860 819 860 819 804.5 874.5 c 128,-1,9
 749 930 749 930 644 930 c 2,10,-1
 326 930 l 1,11,-1
 326 0 l 1,12,-1
 140 0 l 1,13,-1
 140 1082 l 1,0,-1
1092 0 m 2,14,-1
 534 0 l 1,15,-1
 534 734 l 1,16,-1
 719 734 l 1,17,-1
 719 152 l 1,18,-1
 1037 152 l 2,19,20
 1143 152 1143 152 1198.5 207.5 c 128,-1,21
 1254 263 1254 263 1254 402 c 2,22,-1
 1254 1082 l 1,23,-1
 1439 1082 l 1,24,-1
 1439 404 l 2,25,26
 1439 180 1439 180 1345.5 90 c 128,-1,27
 1252 0 1252 0 1092 0 c 2,14,-1
EndSplineSet
EndChar

StartChar: ampersand
Encoding: 38 38 325
Width: 1274
GlyphClass: 2
Flags: W
LayerCount: 2
Fore
SplineSet
1045 0 m 1,0,-1
 949 115 l 1,1,2
 874 48 874 48 773 14 c 128,-1,3
 672 -20 672 -20 572 -20 c 0,4,5
 427 -20 427 -20 321.5 33 c 128,-1,6
 216 86 216 86 159 179 c 128,-1,7
 102 272 102 272 102 392 c 0,8,9
 102 522 102 522 180.5 611.5 c 128,-1,10
 259 701 259 701 384 789 c 1,11,12
 309 879 309 879 264.5 958 c 128,-1,13
 220 1037 220 1037 220 1123 c 0,14,15
 220 1293 220 1293 320 1384.5 c 128,-1,16
 420 1476 420 1476 585 1476 c 0,17,18
 692 1476 692 1476 769.5 1433.5 c 128,-1,19
 847 1391 847 1391 889 1321.5 c 128,-1,20
 931 1252 931 1252 931 1169 c 0,21,22
 931 1063 931 1063 876 990 c 128,-1,23
 821 917 821 917 733 852 c 2,24,-1
 624 771 l 1,25,-1
 948 383 l 1,26,27
 980 444 980 444 998 516.5 c 128,-1,28
 1016 589 1016 589 1016 672 c 1,29,-1
 1182 672 l 1,30,31
 1182 548 1182 548 1152 441.5 c 128,-1,32
 1122 335 1122 335 1059 249 c 1,33,-1
 1267 0 l 1,34,-1
 1045 0 l 1,0,-1
406 1129 m 0,35,36
 406 1074 406 1074 438.5 1014.5 c 128,-1,37
 471 955 471 955 524 889 c 1,38,-1
 628 963 l 2,39,40
 691 1006 691 1006 725.5 1049.5 c 128,-1,41
 760 1093 760 1093 760 1169 c 0,42,43
 760 1228 760 1228 714 1276.5 c 128,-1,44
 668 1325 668 1325 584 1325 c 0,45,46
 496 1325 496 1325 451 1266.5 c 128,-1,47
 406 1208 406 1208 406 1129 c 0,35,36
287 392 m 0,48,49
 287 286 287 286 357 209 c 128,-1,50
 427 132 427 132 572 132 c 0,51,52
 720 132 720 132 841 243 c 1,53,-1
 486 668 l 1,54,-1
 444 637 l 2,55,56
 372 584 372 584 339 536 c 128,-1,57
 306 488 306 488 296.5 451 c 128,-1,58
 287 414 287 414 287 392 c 0,48,49
EndSplineSet
Substitution2: "'smcp' Lowercase to Small Capitals lookup 1 subtable" ampersand.smcp
Substitution2: "'c2sc' Capitals to Small Capitals lookup 0 subtable" ampersand.smcp
Position2: "'cpsp' Capital Spacing lookup 0 subtable" dx=36 dy=0 dh=72 dv=0
EndChar

StartChar: ampersand.smcp
Encoding: 65718 -1 326
Width: 1238
GlyphClass: 2
Flags: W
LayerCount: 2
Fore
SplineSet
488 -16 m 0,0,1
 310 -16 310 -16 207 69 c 128,-1,2
 104 154 104 154 104 278 c 0,3,4
 104 380 104 380 153.5 446.5 c 128,-1,5
 203 513 203 513 289 576 c 2,6,-1
 361 628 l 1,7,8
 289 702 289 702 240.5 766 c 128,-1,9
 192 830 192 830 192 919 c 0,10,11
 192 1036 192 1036 279.5 1108.5 c 128,-1,12
 367 1181 367 1181 509 1181 c 0,13,14
 605 1181 605 1181 675 1144.5 c 128,-1,15
 745 1108 745 1108 783 1048.5 c 128,-1,16
 821 989 821 989 821 919 c 0,17,18
 821 843 821 843 779.5 780.5 c 128,-1,19
 738 718 738 718 678 674 c 2,20,-1
 593 613 l 1,21,-1
 861 328 l 1,22,23
 930 443 930 443 930 600 c 1,24,-1
 1098 600 l 1,25,26
 1098 490 1098 490 1065 391.5 c 128,-1,27
 1032 293 1032 293 971 212 c 1,28,-1
 1170 0 l 1,29,-1
 959 0 l 1,30,-1
 866 98 l 1,31,32
 793 44 793 44 698 14 c 128,-1,33
 603 -16 603 -16 488 -16 c 0,0,1
373 906 m 0,34,35
 373 857 373 857 407.5 814 c 128,-1,36
 442 771 442 771 491 721 c 1,37,-1
 556 767 l 2,38,39
 640 828 640 828 640 905 c 0,40,41
 640 957 640 957 604 992 c 128,-1,42
 568 1027 568 1027 502 1027 c 0,43,44
 438 1027 438 1027 405.5 988.5 c 128,-1,45
 373 950 373 950 373 906 c 0,34,35
287 303 m 0,46,47
 287 231 287 231 341 184.5 c 128,-1,48
 395 138 395 138 505 138 c 0,49,50
 651 138 651 138 756 213 c 1,51,-1
 464 520 l 1,52,-1
 379 458 l 2,53,54
 320 416 320 416 303.5 376 c 128,-1,55
 287 336 287 336 287 303 c 0,46,47
EndSplineSet
EndChar

StartChar: aogonek
Encoding: 261 261 327
Width: 1114
GlyphClass: 2
Flags: W
AnchorPoint: "Anchor-1" 502 0 basechar 0
AnchorPoint: "Anchor-0" 582 1290 basechar 0
LayerCount: 2
Fore
SplineSet
991 -390 m 1,0,1
 966 -405 966 -405 927.5 -419.5 c 128,-1,2
 889 -434 889 -434 830 -434 c 0,3,4
 749 -434 749 -434 693.5 -385.5 c 128,-1,5
 638 -337 638 -337 638 -243 c 0,6,7
 638 -178 638 -178 678 -113 c 128,-1,8
 718 -48 718 -48 806 8 c 1,9,10
 798 28 798 28 792 56 c 128,-1,11
 786 84 786 84 783 114 c 1,12,13
 731 59 731 59 653 19.5 c 128,-1,14
 575 -20 575 -20 475 -20 c 0,15,16
 365 -20 365 -20 282.5 23 c 128,-1,17
 200 66 200 66 154.5 138.5 c 128,-1,18
 109 211 109 211 109 301 c 0,19,20
 109 475 109 475 241 565.5 c 128,-1,21
 373 656 373 656 596 656 c 2,22,-1
 779 656 l 1,23,-1
 779 742 l 2,24,25
 779 838 779 838 721.5 895.5 c 128,-1,26
 664 953 664 953 551 953 c 0,27,28
 446 953 446 953 381.5 901.5 c 128,-1,29
 317 850 317 850 317 782 c 1,30,-1
 132 782 l 1,31,32
 132 860 132 860 185 933.5 c 128,-1,33
 238 1007 238 1007 334.5 1054.5 c 128,-1,34
 431 1102 431 1102 562 1102 c 0,35,36
 738 1102 738 1102 851 1012 c 128,-1,37
 964 922 964 922 964 740 c 2,38,-1
 964 236 l 2,39,40
 964 182 964 182 973.5 121 c 128,-1,41
 983 60 983 60 1002 16 c 1,42,-1
 1002 0 l 1,43,-1
 970 0 l 1,44,45
 906 -48 906 -48 852.5 -102.5 c 128,-1,46
 799 -157 799 -157 799 -222 c 0,47,48
 799 -255 799 -255 816.5 -275 c 128,-1,49
 834 -295 834 -295 877 -295 c 0,50,51
 910 -295 910 -295 936 -285.5 c 128,-1,52
 962 -276 962 -276 977 -268 c 1,53,-1
 991 -390 l 1,0,1
502 142 m 0,54,55
 602 142 602 142 675.5 192 c 128,-1,56
 749 242 749 242 779 303 c 1,57,-1
 779 526 l 1,58,-1
 626 526 l 2,59,60
 467 526 467 526 381 476.5 c 128,-1,61
 295 427 295 427 295 326 c 0,62,63
 295 249 295 249 347 195.5 c 128,-1,64
 399 142 399 142 502 142 c 0,54,55
EndSplineSet
Substitution2: "'locl' Localized Forms in Latin lookup 8 subtable" aogonek.NAV
Substitution2: "'unic' Unicase lookup 2 subtable" Aogonek.unic
Substitution2: "'smcp' Lowercase to Small Capitals lookup 1 subtable" Aogonek.smcp
EndChar

StartChar: approxequal
Encoding: 8776 8776 329
Width: 1154
GlyphClass: 2
Flags: W
LayerCount: 2
Fore
SplineSet
103 712 m 1,0,-1
 102 901 l 1,1,2
 149 952 149 952 215.5 981.5 c 128,-1,3
 282 1011 282 1011 347 1011 c 0,4,5
 427 1013 427 1013 472.5 991.5 c 128,-1,6
 518 970 518 970 581 938 c 0,7,8
 640 908 640 908 682.5 888 c 128,-1,9
 725 868 725 868 799 868 c 0,10,11
 864 868 864 868 926 902 c 128,-1,12
 988 936 988 936 1035 996 c 1,13,-1
 1036 807 l 1,14,15
 989 756 989 756 927 727 c 128,-1,16
 865 698 865 698 800 698 c 0,17,18
 726 698 726 698 683.5 717.5 c 128,-1,19
 641 737 641 737 582 767 c 0,20,21
 519 799 519 799 473 820.5 c 128,-1,22
 427 842 427 842 347 840 c 0,23,24
 282 840 282 840 216 806 c 128,-1,25
 150 772 150 772 103 712 c 1,0,-1
102 295 m 1,26,-1
 101 484 l 1,27,28
 148 535 148 535 214.5 564 c 128,-1,29
 281 593 281 593 346 593 c 0,30,31
 426 595 426 595 471.5 573.5 c 128,-1,32
 517 552 517 552 580 520 c 0,33,34
 639 490 639 490 681.5 470.5 c 128,-1,35
 724 451 724 451 798 451 c 0,36,37
 863 451 863 451 925 485 c 128,-1,38
 987 519 987 519 1034 579 c 1,39,-1
 1035 389 l 1,40,41
 988 338 988 338 926 309 c 128,-1,42
 864 280 864 280 799 280 c 0,43,44
 725 280 725 280 682.5 299.5 c 128,-1,45
 640 319 640 319 581 349 c 0,46,47
 518 381 518 381 472 403 c 128,-1,48
 426 425 426 425 346 423 c 0,49,50
 281 423 281 423 215 389 c 128,-1,51
 149 355 149 355 102 295 c 1,26,-1
EndSplineSet
EndChar

StartChar: arabic_2dots
Encoding: 65720 -1 330
Width: 517
GlyphClass: 1
Flags: W
LayerCount: 2
Fore
SplineSet
423 241 m 1,0,-1
 563 102 l 1,1,-1
 423 -39 l 1,2,-1
 284 102 l 1,3,-1
 423 241 l 1,0,-1
91 241 m 1,4,-1
 231 102 l 1,5,-1
 91 -39 l 1,6,-1
 -48 102 l 1,7,-1
 91 241 l 1,4,-1
EndSplineSet
EndChar

StartChar: arabic_3dots
Encoding: 65721 -1 331
Width: 528
GlyphClass: 1
Flags: W
LayerCount: 2
Fore
SplineSet
255 454 m 1,0,-1
 390 319 l 1,1,-1
 255 184 l 1,2,-1
 120 319 l 1,3,-1
 255 454 l 1,0,-1
426 201 m 1,4,-1
 561 66 l 1,5,-1
 426 -69 l 1,6,-1
 291 66 l 1,7,-1
 426 201 l 1,4,-1
84 201 m 1,8,-1
 219 66 l 1,9,-1
 84 -69 l 1,10,-1
 -51 66 l 1,11,-1
 84 201 l 1,8,-1
EndSplineSet
EndChar

StartChar: arabic_3dots_a
Encoding: 65722 -1 332
Width: 528
GlyphClass: 1
Flags: W
LayerCount: 2
Fore
SplineSet
426 269 m 1,0,-1
 561 134 l 1,1,-1
 426 -1 l 1,2,-1
 291 134 l 1,3,-1
 426 269 l 1,0,-1
84 269 m 1,4,-1
 219 134 l 1,5,-1
 84 -1 l 1,6,-1
 -51 134 l 1,7,-1
 84 269 l 1,4,-1
255 16 m 1,8,-1
 390 -119 l 1,9,-1
 255 -254 l 1,10,-1
 120 -119 l 1,11,-1
 255 16 l 1,8,-1
EndSplineSet
EndChar

StartChar: arabic_dot
Encoding: 65723 -1 333
Width: 197
GlyphClass: 1
Flags: W
LayerCount: 2
Fore
SplineSet
96 247 m 1,0,-1
 241 102 l 1,1,-1
 96 -43 l 1,2,-1
 -49 102 l 1,3,-1
 96 247 l 1,0,-1
EndSplineSet
EndChar

StartChar: arabic_gaf_bar
Encoding: 65724 -1 334
Width: 787
GlyphClass: 1
Flags: W
LayerCount: 2
Fore
SplineSet
-66 1566 m 1,0,-1
 -66 1676 l 1,1,-1
 694 1984 l 1,2,-1
 694 1874 l 1,3,-1
 -66 1566 l 1,0,-1
EndSplineSet
EndChar

StartChar: asciicircum
Encoding: 94 94 337
Width: 856
GlyphClass: 2
Flags: W
LayerCount: 2
Fore
SplineSet
617 729 m 1,0,-1
 427 1212 l 1,1,-1
 236 729 l 1,2,-1
 64 729 l 1,3,-1
 363 1456 l 1,4,-1
 491 1456 l 1,5,-1
 789 729 l 1,6,-1
 617 729 l 1,0,-1
EndSplineSet
EndChar

StartChar: asciitilde
Encoding: 126 126 338
Width: 1393
GlyphClass: 2
Flags: W
LayerCount: 2
Fore
SplineSet
1111 777 m 1,0,-1
 1263 778 l 1,1,2
 1263 675 1263 675 1221.5 590 c 128,-1,3
 1180 505 1180 505 1107 454 c 128,-1,4
 1034 403 1034 403 939 403 c 0,5,6
 852 403 852 403 785.5 438 c 128,-1,7
 719 473 719 473 641 541 c 0,8,9
 590 588 590 588 547 614 c 128,-1,10
 504 640 504 640 454 640 c 0,11,12
 378 640 378 640 335 586 c 128,-1,13
 292 532 292 532 292 438 c 1,14,-1
 131 436 l 1,15,16
 131 541 131 541 172 624 c 128,-1,17
 213 707 213 707 286 755 c 128,-1,18
 359 803 359 803 454 803 c 0,19,20
 542 803 542 803 610.5 766 c 128,-1,21
 679 729 679 729 752 664 c 0,22,23
 807 614 807 614 848.5 589.5 c 128,-1,24
 890 565 890 565 939 565 c 0,25,26
 1016 565 1016 565 1063.5 624 c 128,-1,27
 1111 683 1111 683 1111 777 c 1,0,-1
EndSplineSet
EndChar

StartChar: asterisk
Encoding: 42 42 339
Width: 882
GlyphClass: 2
Flags: W
LayerCount: 2
Fore
SplineSet
129 708 m 1,0,-1
 330 984 l 1,1,-1
 28 1074 l 1,2,-1
 75 1224 l 1,3,-1
 377 1113 l 1,4,-1
 368 1457 l 1,5,-1
 520 1457 l 1,6,-1
 510 1107 l 1,7,-1
 808 1218 l 1,8,-1
 854 1065 l 1,9,-1
 547 974 l 1,10,-1
 744 703 l 1,11,-1
 620 610 l 1,12,-1
 435 898 l 1,13,-1
 254 617 l 1,14,-1
 129 708 l 1,0,-1
EndSplineSet
EndChar

StartChar: at
Encoding: 64 64 340
Width: 1839
GlyphClass: 2
Flags: W
LayerCount: 2
Fore
SplineSet
1736 503 m 0,0,1
 1732 411 1732 411 1708 318.5 c 128,-1,2
 1684 226 1684 226 1636 149 c 128,-1,3
 1588 72 1588 72 1511.5 25.5 c 128,-1,4
 1435 -21 1435 -21 1327 -21 c 0,5,6
 1233 -21 1233 -21 1172.5 24 c 128,-1,7
 1112 69 1112 69 1087 149 c 1,8,9
 1033 65 1033 65 963 22 c 128,-1,10
 893 -21 893 -21 819 -21 c 0,11,12
 672 -21 672 -21 602 100 c 128,-1,13
 532 221 532 221 550 418 c 0,14,15
 566 594 566 594 630 722 c 128,-1,16
 694 850 694 850 787 920 c 128,-1,17
 880 990 880 990 983 990 c 0,18,19
 1091 990 1091 990 1153 958.5 c 128,-1,20
 1215 927 1215 927 1271 884 c 1,21,-1
 1220 330 l 2,22,23
 1212 233 1212 233 1231 183 c 128,-1,24
 1250 133 1250 133 1283 115.5 c 128,-1,25
 1316 98 1316 98 1348 98 c 0,26,27
 1429 98 1429 98 1484.5 152.5 c 128,-1,28
 1540 207 1540 207 1571 299 c 128,-1,29
 1602 391 1602 391 1607 503 c 0,30,31
 1624 877 1624 877 1468.5 1088.5 c 128,-1,32
 1313 1300 1313 1300 965 1300 c 0,33,34
 755 1300 755 1300 600.5 1196 c 128,-1,35
 446 1092 446 1092 358.5 907 c 128,-1,36
 271 722 271 722 261 478 c 0,37,38
 249 229 249 229 320.5 48 c 128,-1,39
 392 -133 392 -133 538 -230.5 c 128,-1,40
 684 -328 684 -328 897 -328 c 0,41,42
 985 -328 985 -328 1075.5 -307 c 128,-1,43
 1166 -286 1166 -286 1227 -250 c 1,44,-1
 1265 -364 l 1,45,46
 1195 -409 1195 -409 1090.5 -431 c 128,-1,47
 986 -453 986 -453 893 -453 c 0,48,49
 640 -453 640 -453 461.5 -340 c 128,-1,50
 283 -227 283 -227 193.5 -18 c 128,-1,51
 104 191 104 191 116 478 c 0,52,53
 125 684 125 684 188.5 857.5 c 128,-1,54
 252 1031 252 1031 363 1160 c 128,-1,55
 474 1289 474 1289 627 1360 c 128,-1,56
 780 1431 780 1431 969 1431 c 0,57,58
 1226 1431 1226 1431 1401 1317.5 c 128,-1,59
 1576 1204 1576 1204 1662 995.5 c 128,-1,60
 1748 787 1748 787 1736 503 c 0,0,1
709 418 m 0,61,62
 696 277 696 277 736.5 200 c 128,-1,63
 777 123 777 123 865 123 c 0,64,65
 916 123 916 123 974 169 c 128,-1,66
 1032 215 1032 215 1072 321 c 0,67,68
 1073 325 1073 325 1073 330 c 2,69,-1
 1119 832 l 1,70,71
 1094 845 1094 845 1064 853 c 128,-1,72
 1034 861 1034 861 999 861 c 0,73,74
 890 861 890 861 809.5 749 c 128,-1,75
 729 637 729 637 709 418 c 0,61,62
EndSplineSet
EndChar

StartChar: b
Encoding: 98 98 342
Width: 1150
GlyphClass: 2
Flags: W
AnchorPoint: "Anchor-1" 598 -10 basechar 0
AnchorPoint: "Anchor-0" 634 1611 basechar 0
LayerCount: 2
Fore
SplineSet
1057 550 m 2,0,-1
 1057 529 l 2,1,2
 1057 371 1057 371 1007.5 247 c 128,-1,3
 958 123 958 123 864 51.5 c 128,-1,4
 770 -20 770 -20 636 -20 c 0,5,6
 530 -20 530 -20 451.5 17.5 c 128,-1,7
 373 55 373 55 320 125 c 1,8,-1
 310 0 l 1,9,-1
 140 0 l 1,10,-1
 140 1536 l 1,11,-1
 326 1536 l 1,12,-1
 326 965 l 1,13,14
 379 1031 379 1031 455.5 1066.5 c 128,-1,15
 532 1102 532 1102 634 1102 c 0,16,17
 770 1102 770 1102 864.5 1033 c 128,-1,18
 959 964 959 964 1008 839.5 c 128,-1,19
 1057 715 1057 715 1057 550 c 2,0,-1
871 529 m 2,20,-1
 871 550 l 2,21,22
 871 658 871 658 844 748 c 128,-1,23
 817 838 817 838 755 892 c 128,-1,24
 693 946 693 946 588 946 c 0,25,26
 487 946 487 946 424 897.5 c 128,-1,27
 361 849 361 849 326 778 c 1,28,-1
 326 307 l 1,29,30
 362 235 362 235 426 186 c 128,-1,31
 490 137 490 137 590 137 c 256,32,33
 690 137 690 137 752 190 c 128,-1,34
 814 243 814 243 842.5 332.5 c 128,-1,35
 871 422 871 422 871 529 c 2,20,-1
EndSplineSet
Substitution2: "'unic' Unicase lookup 2 subtable" B
Substitution2: "'smcp' Lowercase to Small Capitals lookup 1 subtable" B.smcp
EndChar

StartChar: backslash
Encoding: 92 92 343
Width: 841
GlyphClass: 2
Flags: W
LayerCount: 2
Fore
SplineSet
649 -125 m 1,0,-1
 41 1456 l 1,1,-1
 217 1456 l 1,2,-1
 825 -125 l 1,3,-1
 649 -125 l 1,0,-1
EndSplineSet
EndChar

StartChar: bar
Encoding: 124 124 344
Width: 500
GlyphClass: 2
Flags: W
LayerCount: 2
Fore
SplineSet
325 1456 m 1,0,-1
 325 -270 l 1,1,-1
 176 -270 l 1,2,-1
 176 1456 l 1,3,-1
 325 1456 l 1,0,-1
EndSplineSet
EndChar

StartChar: braceleft
Encoding: 123 123 345
Width: 693
GlyphClass: 2
Flags: W
LayerCount: 2
Fore
SplineSet
671 -251 m 1,0,-1
 632 -366 l 1,1,2
 496 -327 496 -327 418.5 -258 c 128,-1,3
 341 -189 341 -189 308.5 -97.5 c 128,-1,4
 276 -6 276 -6 276 99 c 2,5,-1
 276 305 l 2,6,7
 276 414 276 414 226.5 478.5 c 128,-1,8
 177 543 177 543 64 543 c 1,9,-1
 64 688 l 1,10,11
 177 688 177 688 226.5 752 c 128,-1,12
 276 816 276 816 276 925 c 2,13,-1
 276 1132 l 2,14,15
 276 1237 276 1237 308.5 1328.5 c 128,-1,16
 341 1420 341 1420 418.5 1489.5 c 128,-1,17
 496 1559 496 1559 632 1597 c 1,18,-1
 671 1483 l 1,19,20
 552 1446 552 1446 507 1350.5 c 128,-1,21
 462 1255 462 1255 462 1132 c 2,22,-1
 462 925 l 2,23,24
 462 825 462 825 422 743.5 c 128,-1,25
 382 662 382 662 295 615 c 1,26,27
 382 569 382 569 422 487 c 128,-1,28
 462 405 462 405 462 305 c 2,29,-1
 462 99 l 2,30,31
 462 -24 462 -24 507.5 -118.5 c 128,-1,32
 553 -213 553 -213 671 -251 c 1,0,-1
EndSplineSet
EndChar

StartChar: braceright
Encoding: 125 125 346
Width: 693
GlyphClass: 2
Flags: W
LayerCount: 2
Fore
SplineSet
59 -366 m 1,0,-1
 20 -251 l 1,1,2
 139 -213 139 -213 184 -118.5 c 128,-1,3
 229 -24 229 -24 229 99 c 2,4,-1
 229 305 l 2,5,6
 229 410 229 410 272.5 491 c 128,-1,7
 316 572 316 572 411 615 c 1,8,9
 316 658 316 658 272.5 739.5 c 128,-1,10
 229 821 229 821 229 925 c 2,11,-1
 229 1132 l 2,12,13
 229 1255 229 1255 184 1350.5 c 128,-1,14
 139 1446 139 1446 20 1483 c 1,15,-1
 59 1597 l 1,16,17
 196 1559 196 1559 273.5 1489.5 c 128,-1,18
 351 1420 351 1420 383 1328.5 c 128,-1,19
 415 1237 415 1237 415 1132 c 2,20,-1
 415 925 l 2,21,22
 415 816 415 816 465 752 c 128,-1,23
 515 688 515 688 627 688 c 1,24,-1
 627 543 l 1,25,26
 515 543 515 543 465 478.5 c 128,-1,27
 415 414 415 414 415 305 c 2,28,-1
 415 99 l 2,29,30
 415 -6 415 -6 383 -97.5 c 128,-1,31
 351 -189 351 -189 273.5 -258 c 128,-1,32
 196 -327 196 -327 59 -366 c 1,0,-1
EndSplineSet
EndChar

StartChar: bracketleft
Encoding: 91 91 347
Width: 543
GlyphClass: 2
Flags: W
LayerCount: 2
Fore
SplineSet
523 1512 m 1,0,-1
 332 1512 l 1,1,-1
 332 -160 l 1,2,-1
 523 -160 l 1,3,-1
 523 -312 l 1,4,-1
 156 -312 l 1,5,-1
 156 1664 l 1,6,-1
 523 1664 l 1,7,-1
 523 1512 l 1,0,-1
EndSplineSet
Position2: "Single Positioning lookup 9 subtable" dx=0 dy=0 dh=100 dv=0
Position2: "Single Positioning lookup 8 subtable" dx=0 dy=0 dh=160 dv=0
EndChar

StartChar: bracketright
Encoding: 93 93 348
Width: 543
GlyphClass: 2
Flags: W
LayerCount: 2
Fore
SplineSet
9 1664 m 1,0,-1
 377 1664 l 1,1,-1
 377 -312 l 1,2,-1
 9 -312 l 1,3,-1
 9 -160 l 1,4,-1
 202 -160 l 1,5,-1
 202 1512 l 1,6,-1
 9 1512 l 1,7,-1
 9 1664 l 1,0,-1
EndSplineSet
EndChar

StartChar: breve
Encoding: 728 728 349
Width: 875
GlyphClass: 2
Flags: W
LayerCount: 2
Fore
SplineSet
578 1495 m 1,0,-1
 728 1495 l 1,1,2
 728 1377 728 1377 648 1302.5 c 128,-1,3
 568 1228 568 1228 430 1228 c 0,4,5
 291 1228 291 1228 210.5 1302.5 c 128,-1,6
 130 1377 130 1377 130 1495 c 1,7,-1
 280 1495 l 1,8,9
 280 1436 280 1436 314 1391 c 128,-1,10
 348 1346 348 1346 430 1346 c 0,11,12
 510 1346 510 1346 544 1391 c 128,-1,13
 578 1436 578 1436 578 1495 c 1,0,-1
EndSplineSet
EndChar

StartChar: brokenbar
Encoding: 166 166 350
Width: 492
GlyphClass: 2
Flags: W
LayerCount: 2
Fore
SplineSet
333 1456 m 1,0,-1
 333 698 l 1,1,-1
 148 698 l 1,2,-1
 148 1456 l 1,3,-1
 333 1456 l 1,0,-1
333 -270 m 1,4,-1
 148 -270 l 1,5,-1
 148 522 l 1,6,-1
 333 522 l 1,7,-1
 333 -270 l 1,4,-1
EndSplineSet
EndChar

StartChar: bullet
Encoding: 8226 8226 351
Width: 691
GlyphClass: 2
Flags: W
LayerCount: 2
Fore
SplineSet
139 732 m 2,0,-1
 139 773 l 2,1,2
 139 859 139 859 193.5 915 c 128,-1,3
 248 971 248 971 342 971 c 0,4,5
 437 971 437 971 492 915 c 128,-1,6
 547 859 547 859 547 773 c 2,7,-1
 547 732 l 2,8,9
 547 647 547 647 492.5 591.5 c 128,-1,10
 438 536 438 536 343 536 c 0,11,12
 249 536 249 536 194 591.5 c 128,-1,13
 139 647 139 647 139 732 c 2,0,-1
EndSplineSet
EndChar

StartChar: c
Encoding: 99 99 352
Width: 1072
GlyphClass: 2
Flags: W
AnchorPoint: "Anchor-1" 533 -10 basechar 0
AnchorPoint: "Anchor-0" 533 1290 basechar 0
LayerCount: 2
Fore
SplineSet
574 132 m 0,0,1
 673 132 673 132 747.5 191.5 c 128,-1,2
 822 251 822 251 829 342 c 1,3,-1
 1005 342 l 1,4,5
 1000 246 1000 246 940.5 163.5 c 128,-1,6
 881 81 881 81 785 30.5 c 128,-1,7
 689 -20 689 -20 574 -20 c 0,8,9
 411 -20 411 -20 304.5 54.5 c 128,-1,10
 198 129 198 129 145.5 252 c 128,-1,11
 93 375 93 375 93 520 c 2,12,-1
 93 562 l 2,13,14
 93 707 93 707 145.5 830 c 128,-1,15
 198 953 198 953 305 1027.5 c 128,-1,16
 412 1102 412 1102 574 1102 c 0,17,18
 701 1102 701 1102 796 1050.5 c 128,-1,19
 891 999 891 999 945.5 910.5 c 128,-1,20
 1000 822 1000 822 1005 710 c 1,21,-1
 829 710 l 1,22,23
 822 810 822 810 753.5 880 c 128,-1,24
 685 950 685 950 574 950 c 0,25,26
 460 950 460 950 395.5 892 c 128,-1,27
 331 834 331 834 304.5 745 c 128,-1,28
 278 656 278 656 278 562 c 2,29,-1
 278 520 l 2,30,31
 278 425 278 425 304 336 c 128,-1,32
 330 247 330 247 394.5 189.5 c 128,-1,33
 459 132 459 132 574 132 c 0,0,1
EndSplineSet
Substitution2: "'unic' Unicase lookup 2 subtable" C
Substitution2: "'smcp' Lowercase to Small Capitals lookup 1 subtable" C.smcp
EndChar

StartChar: caron
Encoding: 711 711 354
Width: 910
GlyphClass: 2
Flags: W
LayerCount: 2
Fore
SplineSet
298 1535 m 1,0,-1
 449 1365 l 1,1,-1
 600 1535 l 1,2,-1
 760 1535 l 1,3,-1
 760 1525 l 1,4,-1
 506 1251 l 1,5,-1
 392 1251 l 1,6,-1
 142 1525 l 1,7,-1
 142 1535 l 1,8,-1
 298 1535 l 1,0,-1
EndSplineSet
EndChar

StartChar: cedilla
Encoding: 184 184 358
Width: 508
GlyphClass: 2
Flags: W
LayerCount: 2
Fore
SplineSet
152 0 m 1,0,-1
 285 0 l 1,1,-1
 273 -53 l 1,2,3
 331 -63 331 -63 378.5 -101 c 128,-1,4
 426 -139 426 -139 426 -226 c 0,5,6
 426 -320 426 -320 349 -377.5 c 128,-1,7
 272 -435 272 -435 123 -435 c 1,8,-1
 116 -328 l 1,9,10
 185 -328 185 -328 233.5 -305 c 128,-1,11
 282 -282 282 -282 282 -229 c 0,12,13
 282 -179 282 -179 243.5 -160.5 c 128,-1,14
 205 -142 205 -142 121 -135 c 1,15,-1
 152 0 l 1,0,-1
EndSplineSet
EndChar

StartChar: cent
Encoding: 162 162 359
Width: 1121
GlyphClass: 2
Flags: W
LayerCount: 2
Fore
SplineSet
587 132 m 0,0,1
 686 132 686 132 760.5 191.5 c 128,-1,2
 835 251 835 251 842 342 c 1,3,-1
 1018 342 l 1,4,5
 1013 257 1013 257 966 183 c 128,-1,6
 919 109 919 109 842 57 c 128,-1,7
 765 5 765 5 670 -13 c 1,8,-1
 670 -245 l 1,9,-1
 484 -245 l 1,10,-1
 484 -11 l 1,11,12
 356 13 356 13 272 90 c 128,-1,13
 188 167 188 167 146.5 279 c 128,-1,14
 105 391 105 391 105 520 c 2,15,-1
 105 562 l 2,16,17
 105 691 105 691 146.5 803 c 128,-1,18
 188 915 188 915 272 992 c 128,-1,19
 356 1069 356 1069 484 1093 c 1,20,-1
 484 1318 l 1,21,-1
 670 1318 l 1,22,-1
 670 1096 l 1,23,24
 825 1071 825 1071 918 964.5 c 128,-1,25
 1011 858 1011 858 1018 710 c 1,26,-1
 842 710 l 1,27,28
 835 810 835 810 766.5 880 c 128,-1,29
 698 950 698 950 587 950 c 0,30,31
 473 950 473 950 408.5 892 c 128,-1,32
 344 834 344 834 317.5 745 c 128,-1,33
 291 656 291 656 291 562 c 2,34,-1
 291 520 l 2,35,36
 291 425 291 425 317 336 c 128,-1,37
 343 247 343 247 407.5 189.5 c 128,-1,38
 472 132 472 132 587 132 c 0,0,1
EndSplineSet
EndChar

StartChar: circumflex
Encoding: 710 710 360
Width: 964
GlyphClass: 2
Flags: W
LayerCount: 2
Fore
SplineSet
527 1536 m 1,0,-1
 775 1263 l 1,1,-1
 775 1253 l 1,2,-1
 621 1253 l 1,3,-1
 471 1422 l 1,4,-1
 322 1253 l 1,5,-1
 170 1253 l 1,6,-1
 170 1264 l 1,7,-1
 415 1536 l 1,8,-1
 527 1536 l 1,0,-1
EndSplineSet
EndChar

StartChar: colon
Encoding: 58 58 361
Width: 556
GlyphClass: 2
Flags: W
LayerCount: 2
Fore
SplineSet
145 722 m 0,0,1
 145 777 145 777 184 816.5 c 128,-1,2
 223 856 223 856 278 856 c 256,3,4
 333 856 333 856 372 816.5 c 128,-1,5
 411 777 411 777 411 722 c 256,6,7
 411 667 411 667 372 628 c 128,-1,8
 333 589 333 589 278 589 c 256,9,10
 223 589 223 589 184 627 c 128,-1,11
 145 665 145 665 145 722 c 0,0,1
145 134 m 0,12,13
 145 189 145 189 184 228.5 c 128,-1,14
 223 268 223 268 278 268 c 256,15,16
 333 268 333 268 372 228.5 c 128,-1,17
 411 189 411 189 411 134 c 256,18,19
 411 79 411 79 372 40 c 128,-1,20
 333 1 333 1 278 1 c 256,21,22
 223 1 223 1 184 39 c 128,-1,23
 145 77 145 77 145 134 c 0,12,13
EndSplineSet
EndChar

StartChar: comma
Encoding: 44 44 362
Width: 403
GlyphClass: 2
Flags: W
LayerCount: 2
Fore
SplineSet
309 220 m 1,0,-1
 309 71 l 2,1,2
 309 -20 309 -20 263 -121.5 c 128,-1,3
 217 -223 217 -223 134 -291 c 1,4,-1
 29 -218 l 1,5,6
 76 -152 76 -152 102 -82.5 c 128,-1,7
 128 -13 128 -13 128 68 c 2,8,-1
 128 220 l 1,9,-1
 309 220 l 1,0,-1
EndSplineSet
EndChar

StartChar: commaaccent
Encoding: 65725 -1 363
Width: 516
GlyphClass: 1
Flags: W
LayerCount: 2
Fore
SplineSet
343 239 m 1,0,-1
 343 160 l 2,1,2
 343 81 343 81 307.5 -10 c 128,-1,3
 272 -101 272 -101 198 -162 c 1,4,-1
 93 -89 l 1,5,6
 130 -32 130 -32 148.5 28 c 128,-1,7
 167 88 167 88 167 158 c 2,8,-1
 167 239 l 1,9,-1
 343 239 l 1,0,-1
EndSplineSet
EndChar

StartChar: commaaccentrotate
Encoding: 65726 -1 364
Width: 510
GlyphClass: 1
Flags: W
LayerCount: 2
Fore
SplineSet
159 1167 m 1,0,-1
 159 1296 l 2,1,2
 159 1355 159 1355 181 1413.5 c 128,-1,3
 203 1472 203 1472 235.5 1520 c 128,-1,4
 268 1568 268 1568 299 1596 c 1,5,-1
 406 1513 l 1,6,7
 372 1453 372 1453 358.5 1401 c 128,-1,8
 345 1349 345 1349 345 1287 c 2,9,-1
 345 1167 l 1,10,-1
 159 1167 l 1,0,-1
EndSplineSet
EndChar

StartChar: copyright
Encoding: 169 169 365
Width: 1609
GlyphClass: 2
Flags: W
LayerCount: 2
Fore
SplineSet
92 729 m 256,0,1
 92 888 92 888 147 1024 c 128,-1,2
 202 1160 202 1160 300 1261.5 c 128,-1,3
 398 1363 398 1363 526.5 1419.5 c 128,-1,4
 655 1476 655 1476 802 1476 c 256,5,6
 949 1476 949 1476 1077.5 1419.5 c 128,-1,7
 1206 1363 1206 1363 1303.5 1261.5 c 128,-1,8
 1401 1160 1401 1160 1456 1024 c 128,-1,9
 1511 888 1511 888 1511 729 c 256,10,11
 1511 570 1511 570 1456 434 c 128,-1,12
 1401 298 1401 298 1303.5 195.5 c 128,-1,13
 1206 93 1206 93 1077.5 36 c 128,-1,14
 949 -21 949 -21 802 -21 c 256,15,16
 655 -21 655 -21 526.5 36 c 128,-1,17
 398 93 398 93 300 195.5 c 128,-1,18
 202 298 202 298 147 434 c 128,-1,19
 92 570 92 570 92 729 c 256,0,1
207 729 m 0,20,21
 207 596 207 596 253 481 c 128,-1,22
 299 366 299 366 381 280 c 128,-1,23
 463 194 463 194 571 146 c 128,-1,24
 679 98 679 98 802 98 c 256,25,26
 925 98 925 98 1032.5 146 c 128,-1,27
 1140 194 1140 194 1221.5 280 c 128,-1,28
 1303 366 1303 366 1349 481 c 128,-1,29
 1395 596 1395 596 1395 729 c 0,30,31
 1395 863 1395 863 1349 977 c 128,-1,32
 1303 1091 1303 1091 1221.5 1176.5 c 128,-1,33
 1140 1262 1140 1262 1032.5 1309.5 c 128,-1,34
 925 1357 925 1357 802 1357 c 256,35,36
 679 1357 679 1357 571 1309.5 c 128,-1,37
 463 1262 463 1262 381 1176.5 c 128,-1,38
 299 1091 299 1091 253 977 c 128,-1,39
 207 863 207 863 207 729 c 0,20,21
974 598 m 1,40,-1
 1120 598 l 1,41,42
 1120 441 1120 441 1030.5 362.5 c 128,-1,43
 941 284 941 284 788 284 c 0,44,45
 629 284 629 284 535.5 391.5 c 128,-1,46
 442 499 442 499 442 671 c 2,47,-1
 442 786 l 2,48,49
 442 958 442 958 535.5 1065.5 c 128,-1,50
 629 1173 629 1173 788 1173 c 0,51,52
 941 1173 941 1173 1031 1095 c 128,-1,53
 1121 1017 1121 1017 1121 860 c 1,54,-1
 975 860 l 1,55,56
 975 959 975 959 927.5 1002 c 128,-1,57
 880 1045 880 1045 788 1045 c 0,58,59
 689 1045 689 1045 637.5 972.5 c 128,-1,60
 586 900 586 900 586 787 c 2,61,-1
 586 671 l 2,62,63
 586 557 586 557 637.5 484.5 c 128,-1,64
 689 412 689 412 788 412 c 0,65,66
 880 412 880 412 927 455 c 128,-1,67
 974 498 974 498 974 598 c 1,40,-1
EndSplineSet
EndChar

StartChar: crossbar
Encoding: 65727 -1 366
Width: 919
GlyphClass: 1
Flags: W
LayerCount: 2
Fore
SplineSet
780 803 m 1,0,-1
 780 651 l 1,1,-1
 143 651 l 1,2,-1
 143 803 l 1,3,-1
 780 803 l 1,0,-1
EndSplineSet
EndChar

StartChar: currency
Encoding: 164 164 367
Width: 1461
GlyphClass: 2
Flags: W
LayerCount: 2
Fore
SplineSet
140 608 m 0,0,1
 140 713 140 713 169.5 807 c 128,-1,2
 199 901 199 901 252 978 c 1,3,-1
 105 1128 l 1,4,-1
 236 1264 l 1,5,-1
 382 1115 l 1,6,7
 456 1171 456 1171 546 1202.5 c 128,-1,8
 636 1234 636 1234 735 1234 c 0,9,10
 835 1234 835 1234 925.5 1202 c 128,-1,11
 1016 1170 1016 1170 1090 1113 c 1,12,-1
 1239 1265 l 1,13,-1
 1371 1128 l 1,14,-1
 1220 974 l 1,15,16
 1272 898 1272 898 1301 805 c 128,-1,17
 1330 712 1330 712 1330 608 c 0,18,19
 1330 509 1330 509 1303.5 419 c 128,-1,20
 1277 329 1277 329 1229 254 c 1,21,-1
 1371 110 l 1,22,-1
 1239 -27 l 1,23,-1
 1103 112 l 1,24,25
 1027 50 1027 50 933 15 c 128,-1,26
 839 -20 839 -20 735 -20 c 0,27,28
 632 -20 632 -20 538.5 14.5 c 128,-1,29
 445 49 445 49 370 110 c 1,30,-1
 236 -26 l 1,31,-1
 105 110 l 1,32,-1
 244 251 l 1,33,34
 195 326 195 326 167.5 416.5 c 128,-1,35
 140 507 140 507 140 608 c 0,0,1
312 608 m 256,36,37
 312 482 312 482 369 378.5 c 128,-1,38
 426 275 426 275 522 213.5 c 128,-1,39
 618 152 618 152 735 152 c 256,40,41
 852 152 852 152 948 213.5 c 128,-1,42
 1044 275 1044 275 1100.5 378.5 c 128,-1,43
 1157 482 1157 482 1157 608 c 256,44,45
 1157 734 1157 734 1100.5 837 c 128,-1,46
 1044 940 1044 940 948 1001 c 128,-1,47
 852 1062 852 1062 735 1062 c 256,48,49
 618 1062 618 1062 522 1001 c 128,-1,50
 426 940 426 940 369 837 c 128,-1,51
 312 734 312 734 312 608 c 256,36,37
EndSplineSet
EndChar

StartChar: d
Encoding: 100 100 368
Width: 1155
GlyphClass: 2
Flags: W
AnchorPoint: "Anchor-1" 617 0 basechar 0
AnchorPoint: "Anchor-0" 549 1612 basechar 0
LayerCount: 2
Fore
SplineSet
95 529 m 2,0,-1
 95 550 l 2,1,2
 95 715 95 715 148.5 839.5 c 128,-1,3
 202 964 202 964 298 1033 c 128,-1,4
 394 1102 394 1102 523 1102 c 0,5,6
 621 1102 621 1102 695.5 1069 c 128,-1,7
 770 1036 770 1036 823 974 c 1,8,-1
 823 1536 l 1,9,-1
 1009 1536 l 1,10,-1
 1009 0 l 1,11,-1
 839 0 l 1,12,-1
 830 116 l 1,13,14
 777 51 777 51 700 15.5 c 128,-1,15
 623 -20 623 -20 521 -20 c 0,16,17
 394 -20 394 -20 298 51.5 c 128,-1,18
 202 123 202 123 148.5 247 c 128,-1,19
 95 371 95 371 95 529 c 2,0,-1
281 550 m 2,20,-1
 281 529 l 2,21,22
 281 422 281 422 311 332.5 c 128,-1,23
 341 243 341 243 404 190 c 128,-1,24
 467 137 467 137 567 137 c 0,25,26
 664 137 664 137 725 181 c 128,-1,27
 786 225 786 225 823 294 c 1,28,-1
 823 792 l 1,29,30
 787 859 787 859 725.5 902.5 c 128,-1,31
 664 946 664 946 569 946 c 0,32,33
 468 946 468 946 404.5 892 c 128,-1,34
 341 838 341 838 311 748 c 128,-1,35
 281 658 281 658 281 550 c 2,20,-1
EndSplineSet
Substitution2: "'unic' Unicase lookup 2 subtable" D
Substitution2: "'smcp' Lowercase to Small Capitals lookup 1 subtable" D.smcp
EndChar

StartChar: dagger
Encoding: 8224 8224 369
Width: 1130
GlyphClass: 2
Flags: W
LayerCount: 2
Fore
SplineSet
1060 1082 m 1,0,-1
 1060 929 l 1,1,-1
 656 929 l 1,2,-1
 656 0 l 1,3,-1
 471 0 l 1,4,-1
 471 929 l 1,5,-1
 70 929 l 1,6,-1
 70 1082 l 1,7,-1
 471 1082 l 1,8,-1
 471 1456 l 1,9,-1
 656 1456 l 1,10,-1
 656 1082 l 1,11,-1
 1060 1082 l 1,0,-1
EndSplineSet
EndChar

StartChar: daggerdbl
Encoding: 8225 8225 370
Width: 1168
GlyphClass: 2
Flags: W
LayerCount: 2
Fore
SplineSet
1076 152 m 1,0,-1
 1076 0 l 1,1,-1
 670 0 l 1,2,-1
 670 -416 l 1,3,-1
 485 -416 l 1,4,-1
 485 0 l 1,5,-1
 87 0 l 1,6,-1
 87 152 l 1,7,-1
 485 152 l 1,8,-1
 485 929 l 1,9,-1
 87 929 l 1,10,-1
 87 1082 l 1,11,-1
 485 1082 l 1,12,-1
 485 1456 l 1,13,-1
 670 1456 l 1,14,-1
 670 1082 l 1,15,-1
 1076 1082 l 1,16,-1
 1076 929 l 1,17,-1
 670 929 l 1,18,-1
 670 152 l 1,19,-1
 1076 152 l 1,0,-1
EndSplineSet
EndChar

StartChar: dcroat
Encoding: 273 273 372
Width: 1224
GlyphClass: 2
Flags: W
AnchorPoint: "Anchor-1" 617 0 basechar 0
AnchorPoint: "Anchor-0" 549 1611 basechar 0
LayerCount: 2
Fore
SplineSet
95 529 m 2,0,-1
 95 550 l 2,1,2
 95 715 95 715 148.5 839.5 c 128,-1,3
 202 964 202 964 298 1033 c 128,-1,4
 394 1102 394 1102 523 1102 c 0,5,6
 621 1102 621 1102 695.5 1069 c 128,-1,7
 770 1036 770 1036 823 974 c 1,8,-1
 823 1233 l 1,9,-1
 560 1233 l 1,10,-1
 560 1385 l 1,11,-1
 823 1385 l 1,12,-1
 823 1536 l 1,13,-1
 1009 1536 l 1,14,-1
 1009 1385 l 1,15,-1
 1197 1385 l 1,16,-1
 1197 1233 l 1,17,-1
 1009 1233 l 1,18,-1
 1009 0 l 1,19,-1
 839 0 l 1,20,-1
 830 116 l 1,21,22
 777 51 777 51 700 15.5 c 128,-1,23
 623 -20 623 -20 521 -20 c 0,24,25
 394 -20 394 -20 298 51.5 c 128,-1,26
 202 123 202 123 148.5 247 c 128,-1,27
 95 371 95 371 95 529 c 2,0,-1
281 550 m 2,28,-1
 281 529 l 2,29,30
 281 422 281 422 311 332.5 c 128,-1,31
 341 243 341 243 404 190 c 128,-1,32
 467 137 467 137 567 137 c 0,33,34
 664 137 664 137 725 181 c 128,-1,35
 786 225 786 225 823 294 c 1,36,-1
 823 792 l 1,37,38
 787 859 787 859 725.5 902.5 c 128,-1,39
 664 946 664 946 569 946 c 0,40,41
 468 946 468 946 404.5 892 c 128,-1,42
 341 838 341 838 311 748 c 128,-1,43
 281 658 281 658 281 550 c 2,28,-1
EndSplineSet
Substitution2: "'unic' Unicase lookup 2 subtable" Dcroat
Substitution2: "'smcp' Lowercase to Small Capitals lookup 1 subtable" Dcroat.smcp
EndChar

StartChar: degree
Encoding: 176 176 373
Width: 765
GlyphClass: 2
Flags: W
LayerCount: 2
Fore
SplineSet
131 1217 m 256,0,1
 131 1288 131 1288 166 1347 c 128,-1,2
 201 1406 201 1406 259 1441.5 c 128,-1,3
 317 1477 317 1477 386 1477 c 256,4,5
 455 1477 455 1477 512 1441.5 c 128,-1,6
 569 1406 569 1406 603 1347 c 128,-1,7
 637 1288 637 1288 637 1217 c 256,8,9
 637 1146 637 1146 603 1087.5 c 128,-1,10
 569 1029 569 1029 512 994.5 c 128,-1,11
 455 960 455 960 386 960 c 256,12,13
 317 960 317 960 259 994.5 c 128,-1,14
 201 1029 201 1029 166 1087.5 c 128,-1,15
 131 1146 131 1146 131 1217 c 256,0,1
255 1217 m 0,16,17
 255 1162 255 1162 293.5 1125 c 128,-1,18
 332 1088 332 1088 386 1088 c 256,19,20
 440 1088 440 1088 476.5 1125 c 128,-1,21
 513 1162 513 1162 513 1217 c 0,22,23
 513 1273 513 1273 476.5 1311 c 128,-1,24
 440 1349 440 1349 386 1349 c 256,25,26
 332 1349 332 1349 293.5 1311 c 128,-1,27
 255 1273 255 1273 255 1217 c 0,16,17
EndSplineSet
EndChar

StartChar: dieresis
Encoding: 168 168 374
Width: 857
GlyphClass: 2
Flags: W
LayerCount: 2
Fore
SplineSet
101 1371 m 0,0,1
 101 1416 101 1416 129 1447 c 128,-1,2
 157 1478 157 1478 210 1478 c 0,3,4
 264 1478 264 1478 292 1447 c 128,-1,5
 320 1416 320 1416 320 1371 c 0,6,7
 320 1328 320 1328 292 1297.5 c 128,-1,8
 264 1267 264 1267 210 1267 c 0,9,10
 157 1267 157 1267 129 1297.5 c 128,-1,11
 101 1328 101 1328 101 1371 c 0,0,1
532 1369 m 0,12,13
 532 1414 532 1414 559.5 1445 c 128,-1,14
 587 1476 587 1476 641 1476 c 0,15,16
 694 1476 694 1476 722.5 1445 c 128,-1,17
 751 1414 751 1414 751 1369 c 0,18,19
 751 1326 751 1326 722.5 1295.5 c 128,-1,20
 694 1265 694 1265 641 1265 c 0,21,22
 587 1265 587 1265 559.5 1295.5 c 128,-1,23
 532 1326 532 1326 532 1369 c 0,12,13
EndSplineSet
EndChar

StartChar: divide
Encoding: 247 247 375
Width: 1164
GlyphClass: 2
Flags: W
LayerCount: 2
Fore
SplineSet
469 851 m 0,0,1
 469 899 469 899 503.5 934 c 128,-1,2
 538 969 538 969 586 969 c 256,3,4
 634 969 634 969 668.5 934 c 128,-1,5
 703 899 703 899 703 851 c 256,6,7
 703 803 703 803 668.5 768.5 c 128,-1,8
 634 734 634 734 586 734 c 256,9,10
 538 734 538 734 503.5 768 c 128,-1,11
 469 802 469 802 469 851 c 0,0,1
140 447 m 1,12,-1
 140 598 l 1,13,-1
 1024 598 l 1,14,-1
 1024 447 l 1,15,-1
 140 447 l 1,12,-1
469 189 m 0,16,17
 469 237 469 237 503.5 272 c 128,-1,18
 538 307 538 307 586 307 c 256,19,20
 634 307 634 307 668.5 272 c 128,-1,21
 703 237 703 237 703 189 c 256,22,23
 703 141 703 141 668.5 106.5 c 128,-1,24
 634 72 634 72 586 72 c 256,25,26
 538 72 538 72 503.5 106 c 128,-1,27
 469 140 469 140 469 189 c 0,16,17
EndSplineSet
EndChar

StartChar: dollar
Encoding: 36 36 376
Width: 1151
GlyphClass: 2
Flags: W
LayerCount: 2
Fore
SplineSet
856 375 m 0,0,1
 856 464 856 464 793 529 c 128,-1,2
 730 594 730 594 574 645 c 0,3,4
 384 704 384 704 275 803 c 128,-1,5
 166 902 166 902 166 1080 c 0,6,7
 166 1246 166 1246 262.5 1349.5 c 128,-1,8
 359 1453 359 1453 524 1473 c 1,9,-1
 524 1692 l 1,10,-1
 674 1692 l 1,11,-1
 674 1472 l 1,12,13
 842 1450 842 1450 935.5 1331.5 c 128,-1,14
 1029 1213 1029 1213 1029 1008 c 1,15,-1
 845 1008 l 1,16,17
 845 1142 845 1142 781 1228.5 c 128,-1,18
 717 1315 717 1315 597 1315 c 0,19,20
 471 1315 471 1315 411.5 1251 c 128,-1,21
 352 1187 352 1187 352 1083 c 0,22,23
 352 986 352 986 413 925.5 c 128,-1,24
 474 865 474 865 639 809 c 0,25,26
 832 747 832 747 937 651 c 128,-1,27
 1042 555 1042 555 1042 377 c 0,28,29
 1042 203 1042 203 937.5 102.5 c 128,-1,30
 833 2 833 2 656 -17 c 1,31,-1
 656 -208 l 1,32,-1
 507 -208 l 1,33,-1
 507 -18 l 1,34,35
 405 -7 405 -7 314 40.5 c 128,-1,36
 223 88 223 88 166.5 182.5 c 128,-1,37
 110 277 110 277 110 429 c 1,38,-1
 296 429 l 1,39,40
 296 316 296 316 338.5 253.5 c 128,-1,41
 381 191 381 191 445.5 166 c 128,-1,42
 510 141 510 141 575 141 c 0,43,44
 709 141 709 141 782.5 204.5 c 128,-1,45
 856 268 856 268 856 375 c 0,0,1
EndSplineSet
Substitution2: "'c2sc' Capitals to Small Capitals lookup 0 subtable" dollar.smcp
Position2: "'cpsp' Capital Spacing lookup 0 subtable" dx=36 dy=0 dh=72 dv=0
EndChar

StartChar: dollar.smcp
Encoding: 65728 -1 377
Width: 1056
GlyphClass: 2
Flags: W
LayerCount: 2
Fore
SplineSet
803 298 m 0,0,1
 803 347 803 347 780 383.5 c 128,-1,2
 757 420 757 420 698.5 449 c 128,-1,3
 640 478 640 478 531 504 c 0,4,5
 338 551 338 551 223 633.5 c 128,-1,6
 108 716 108 716 108 861 c 0,7,8
 108 989 108 989 208 1076 c 128,-1,9
 308 1163 308 1163 476 1178 c 1,10,-1
 476 1395 l 1,11,-1
 625 1395 l 1,12,-1
 625 1176 l 1,13,14
 797 1155 797 1155 892 1055.5 c 128,-1,15
 987 956 987 956 987 826 c 1,16,-1
 801 826 l 1,17,18
 801 915 801 915 737 972.5 c 128,-1,19
 673 1030 673 1030 540 1030 c 0,20,21
 415 1030 415 1030 354 981.5 c 128,-1,22
 293 933 293 933 293 862 c 0,23,24
 293 794 293 794 360 749.5 c 128,-1,25
 427 705 427 705 587 664 c 0,26,27
 781 615 781 615 885.5 529.5 c 128,-1,28
 990 444 990 444 990 300 c 0,29,30
 990 168 990 168 890.5 86 c 128,-1,31
 791 4 791 4 625 -12 c 1,32,-1
 625 -237 l 1,33,-1
 476 -237 l 1,34,-1
 476 -12 l 1,35,36
 370 -1 370 -1 277 42 c 128,-1,37
 184 85 184 85 126 162 c 128,-1,38
 68 239 68 239 68 349 c 1,39,-1
 254 349 l 1,40,41
 254 272 254 272 294 224.5 c 128,-1,42
 334 177 334 177 401 155.5 c 128,-1,43
 468 134 468 134 548 134 c 0,44,45
 673 134 673 134 738 179.5 c 128,-1,46
 803 225 803 225 803 298 c 0,0,1
EndSplineSet
EndChar

StartChar: dotaccent
Encoding: 729 729 378
Width: 498
GlyphClass: 2
Flags: W
LayerCount: 2
Fore
SplineSet
142 1368 m 256,0,1
 142 1412 142 1412 169.5 1443 c 128,-1,2
 197 1474 197 1474 251 1474 c 0,3,4
 304 1474 304 1474 332.5 1443 c 128,-1,5
 361 1412 361 1412 361 1368 c 256,6,7
 361 1324 361 1324 332.5 1293.5 c 128,-1,8
 304 1263 304 1263 251 1263 c 0,9,10
 197 1263 197 1263 169.5 1293.5 c 128,-1,11
 142 1324 142 1324 142 1368 c 256,0,1
EndSplineSet
EndChar

StartChar: dotbelow
Encoding: 803 803 379
Width: 0
GlyphClass: 4
Flags: W
AnchorPoint: "Anchor-2" -597 -354 basemark 0
AnchorPoint: "Anchor-2" -597 0 mark 0
AnchorPoint: "Anchor-1" -597 0 mark 0
LayerCount: 2
Fore
SplineSet
-712 -246 m 0,0,1
 -712 -201 -712 -201 -684.5 -170 c 128,-1,2
 -657 -139 -657 -139 -603 -139 c 0,3,4
 -550 -139 -550 -139 -521.5 -170 c 128,-1,5
 -493 -201 -493 -201 -493 -246 c 0,6,7
 -493 -289 -493 -289 -521.5 -319.5 c 128,-1,8
 -550 -350 -550 -350 -603 -350 c 0,9,10
 -657 -350 -657 -350 -684.5 -319.5 c 128,-1,11
 -712 -289 -712 -289 -712 -246 c 0,0,1
EndSplineSet
EndChar

StartChar: dotlessi
Encoding: 305 305 380
Width: 507
GlyphClass: 2
Flags: W
AnchorPoint: "Anchor-1" 249 10 basechar 0
AnchorPoint: "Anchor-0" 252 1288 basechar 0
LayerCount: 2
Fore
SplineSet
341 1082 m 1,0,-1
 341 0 l 1,1,-1
 156 0 l 1,2,-1
 156 1082 l 1,3,-1
 341 1082 l 1,0,-1
EndSplineSet
Substitution2: "'smcp' Lowercase to Small Capitals lookup 1 subtable" I.smcp
EndChar

StartChar: e
Encoding: 101 101 381
Width: 1086
GlyphClass: 2
Flags: W
AnchorPoint: "Anchor-1" 568 0 basechar 0
AnchorPoint: "Anchor-0" 565 1290 basechar 0
LayerCount: 2
Fore
SplineSet
590 -20 m 0,0,1
 439 -20 439 -20 327.5 47 c 128,-1,2
 216 114 216 114 154.5 232.5 c 128,-1,3
 93 351 93 351 93 503 c 2,4,-1
 93 545 l 2,5,6
 93 722 93 722 160.5 846.5 c 128,-1,7
 228 971 228 971 336.5 1036.5 c 128,-1,8
 445 1102 445 1102 566 1102 c 0,9,10
 721 1102 721 1102 819.5 1032.5 c 128,-1,11
 918 963 918 963 964.5 843.5 c 128,-1,12
 1011 724 1011 724 1011 572 c 2,13,-1
 1011 489 l 1,14,-1
 279 489 l 1,15,16
 282 390 282 390 321 308.5 c 128,-1,17
 360 227 360 227 430.5 179 c 128,-1,18
 501 131 501 131 600 131 c 0,19,20
 698 131 698 131 766 171 c 128,-1,21
 834 211 834 211 885 278 c 1,22,-1
 997 189 l 1,23,24
 945 109 945 109 848 44.5 c 128,-1,25
 751 -20 751 -20 590 -20 c 0,0,1
566 950 m 0,26,27
 456 950 456 950 380 870 c 128,-1,28
 304 790 304 790 285 640 c 1,29,-1
 826 640 l 1,30,-1
 826 654 l 1,31,32
 822 726 822 726 796.5 794 c 128,-1,33
 771 862 771 862 716 906 c 128,-1,34
 661 950 661 950 566 950 c 0,26,27
EndSplineSet
Substitution2: "'unic' Unicase lookup 2 subtable" E.unic
Substitution2: "'smcp' Lowercase to Small Capitals lookup 1 subtable" E.smcp
EndChar

StartChar: eight
Encoding: 56 56 389
Width: 1151
GlyphClass: 2
Flags: W
LayerCount: 2
Fore
SplineSet
1039 394 m 0,0,1
 1039 261 1039 261 977.5 168.5 c 128,-1,2
 916 76 916 76 811.5 28 c 128,-1,3
 707 -20 707 -20 576 -20 c 256,4,5
 445 -20 445 -20 340 28 c 128,-1,6
 235 76 235 76 174 168.5 c 128,-1,7
 113 261 113 261 113 394 c 0,8,9
 113 516 113 516 178.5 609.5 c 128,-1,10
 244 703 244 703 356 751 c 1,11,12
 259 798 259 798 202.5 884 c 128,-1,13
 146 970 146 970 146 1077 c 0,14,15
 146 1204 146 1204 201.5 1293 c 128,-1,16
 257 1382 257 1382 354 1429 c 128,-1,17
 451 1476 451 1476 575 1476 c 0,18,19
 700 1476 700 1476 797 1429 c 128,-1,20
 894 1382 894 1382 949.5 1293 c 128,-1,21
 1005 1204 1005 1204 1005 1077 c 0,22,23
 1005 969 1005 969 947 883.5 c 128,-1,24
 889 798 889 798 792 751 c 1,25,26
 905 703 905 703 972 609 c 128,-1,27
 1039 515 1039 515 1039 394 c 0,0,1
820 1074 m 0,28,29
 820 1183 820 1183 752 1253.5 c 128,-1,30
 684 1324 684 1324 575 1324 c 256,31,32
 466 1324 466 1324 399 1256.5 c 128,-1,33
 332 1189 332 1189 332 1074 c 0,34,35
 332 961 332 961 399 893 c 128,-1,36
 466 825 466 825 576 825 c 0,37,38
 685 825 685 825 752.5 893 c 128,-1,39
 820 961 820 961 820 1074 c 0,28,29
853 398 m 0,40,41
 853 520 853 520 776 597 c 128,-1,42
 699 674 699 674 574 674 c 0,43,44
 447 674 447 674 372.5 597 c 128,-1,45
 298 520 298 520 298 398 c 0,46,47
 298 272 298 272 372.5 202 c 128,-1,48
 447 132 447 132 576 132 c 256,49,50
 705 132 705 132 779 202 c 128,-1,51
 853 272 853 272 853 398 c 0,40,41
EndSplineSet
Substitution2: "'ss01' Style Set 1 lookup 35 subtable" uni06F8
Substitution2: "'numr' Numerators lookup 21 subtable" eight.frac
Substitution2: "'dnom' Denominators lookup 20 subtable" eight.sup
Substitution2: "'frac' Diagonal Fractions lookup 19 subtable" eight.frac
Substitution2: "Single Substitution lookup 18 subtable" eight.sup
Substitution2: "'lnum' Lining Figures lookup 15 subtable" eight.pnum
Substitution2: "'onum' Oldstyle Figures lookup 14 subtable" eight.tnum
Substitution2: "'c2sc' Capitals to Small Capitals lookup 0 subtable" eight.smcp
Position2: "'cpsp' Capital Spacing lookup 0 subtable" dx=36 dy=0 dh=72 dv=0
EndChar

StartChar: eight.smcp
Encoding: 65731 -1 392
Width: 1040
GlyphClass: 2
Flags: W
LayerCount: 2
Fore
SplineSet
942 317 m 0,0,1
 942 209 942 209 885.5 134.5 c 128,-1,2
 829 60 829 60 733.5 22 c 128,-1,3
 638 -16 638 -16 520 -16 c 0,4,5
 401 -16 401 -16 305 22 c 128,-1,6
 209 60 209 60 153 134 c 128,-1,7
 97 208 97 208 97 317 c 0,8,9
 97 415 97 415 154 488.5 c 128,-1,10
 211 562 211 562 308 601 c 1,11,12
 224 639 224 639 175.5 706 c 128,-1,13
 127 773 127 773 127 859 c 0,14,15
 127 1014 127 1014 237.5 1097.5 c 128,-1,16
 348 1181 348 1181 518 1181 c 0,17,18
 631 1181 631 1181 720 1143.5 c 128,-1,19
 809 1106 809 1106 860.5 1034 c 128,-1,20
 912 962 912 962 912 859 c 0,21,22
 912 773 912 773 862.5 705.5 c 128,-1,23
 813 638 813 638 729 600 c 1,24,25
 827 561 827 561 884.5 487.5 c 128,-1,26
 942 414 942 414 942 317 c 0,0,1
727 852 m 0,27,28
 727 930 727 930 668.5 979.5 c 128,-1,29
 610 1029 610 1029 518 1029 c 0,30,31
 425 1029 425 1029 369 981.5 c 128,-1,32
 313 934 313 934 313 852 c 0,33,34
 313 771 313 771 369.5 722.5 c 128,-1,35
 426 674 426 674 520 674 c 0,36,37
 612 674 612 674 669.5 722.5 c 128,-1,38
 727 771 727 771 727 852 c 0,27,28
756 327 m 0,39,40
 756 415 756 415 690 468.5 c 128,-1,41
 624 522 624 522 518 522 c 0,42,43
 410 522 410 522 346 468.5 c 128,-1,44
 282 415 282 415 282 327 c 0,45,46
 282 236 282 236 346.5 185.5 c 128,-1,47
 411 135 411 135 520 135 c 0,48,49
 626 135 626 135 691 185.5 c 128,-1,50
 756 236 756 236 756 327 c 0,39,40
EndSplineSet
EndChar

StartChar: eight.sup
Encoding: 65732 -1 393
Width: 751
GlyphClass: 2
Flags: W
LayerCount: 2
Fore
SplineSet
671 216 m 0,0,1
 671 104 671 104 586.5 46.5 c 128,-1,2
 502 -11 502 -11 376 -11 c 256,3,4
 250 -11 250 -11 164.5 46.5 c 128,-1,5
 79 104 79 104 79 216 c 0,6,7
 79 282 79 282 116.5 331 c 128,-1,8
 154 380 154 380 217 407 c 1,9,10
 162 433 162 433 130.5 477.5 c 128,-1,11
 99 522 99 522 99 580 c 0,12,13
 99 687 99 687 176.5 743.5 c 128,-1,14
 254 800 254 800 375 800 c 0,15,16
 495 800 495 800 573.5 743.5 c 128,-1,17
 652 687 652 687 652 580 c 0,18,19
 652 522 652 522 620.5 477 c 128,-1,20
 589 432 589 432 534 406 c 1,21,22
 597 379 597 379 634 330.5 c 128,-1,23
 671 282 671 282 671 216 c 0,0,1
494 570 m 256,24,25
 494 616 494 616 462 644 c 128,-1,26
 430 672 430 672 375 672 c 256,27,28
 320 672 320 672 288 645 c 128,-1,29
 256 618 256 618 256 570 c 0,30,31
 256 524 256 524 288.5 496 c 128,-1,32
 321 468 321 468 376 468 c 256,33,34
 431 468 431 468 462.5 496 c 128,-1,35
 494 524 494 524 494 570 c 256,24,25
515 228 m 256,36,37
 515 280 515 280 476 309.5 c 128,-1,38
 437 339 437 339 375 339 c 0,39,40
 312 339 312 339 274.5 309.5 c 128,-1,41
 237 280 237 280 237 228 c 256,42,43
 237 176 237 176 274.5 146.5 c 128,-1,44
 312 117 312 117 376 117 c 0,45,46
 438 117 438 117 476.5 146.5 c 128,-1,47
 515 176 515 176 515 228 c 256,36,37
EndSplineSet
EndChar

StartChar: emdash
Encoding: 8212 8212 397
Width: 1600
GlyphClass: 2
Flags: W
LayerCount: 2
Fore
SplineSet
1460 443 m 1,0,-1
 140 443 l 1,1,-1
 140 594 l 1,2,-1
 1460 594 l 1,3,-1
 1460 443 l 1,0,-1
EndSplineSet
EndChar

StartChar: endash
Encoding: 8211 8211 398
Width: 1345
GlyphClass: 2
Flags: W
LayerCount: 2
Fore
SplineSet
1205 443 m 1,0,-1
 140 443 l 1,1,-1
 140 594 l 1,2,-1
 1205 594 l 1,3,-1
 1205 443 l 1,0,-1
EndSplineSet
EndChar

StartChar: eng
Encoding: 331 331 399
Width: 1161
GlyphClass: 2
Flags: W
AnchorPoint: "Anchor-1" 563 10 basechar 0
AnchorPoint: "Anchor-0" 573 1290 basechar 0
LayerCount: 2
Fore
SplineSet
1009 -89 m 2,0,1
 1009 -258 1009 -258 923.5 -347.5 c 128,-1,2
 838 -437 838 -437 686 -437 c 0,3,4
 655 -437 655 -437 628.5 -433.5 c 128,-1,5
 602 -430 602 -430 572 -420 c 1,6,-1
 586 -263 l 1,7,8
 602 -269 602 -269 637 -272 c 128,-1,9
 672 -275 672 -275 686 -275 c 0,10,11
 751 -275 751 -275 787.5 -228 c 128,-1,12
 824 -181 824 -181 824 -89 c 2,13,-1
 824 679 l 2,14,15
 824 829 824 829 762.5 887.5 c 128,-1,16
 701 946 701 946 588 946 c 0,17,18
 495 946 495 946 431.5 910 c 128,-1,19
 368 874 368 874 331 812 c 1,20,-1
 331 0 l 1,21,-1
 146 0 l 1,22,-1
 146 1082 l 1,23,-1
 312 1082 l 1,24,-1
 325 929 l 1,25,26
 378 1010 378 1010 458.5 1056 c 128,-1,27
 539 1102 539 1102 643 1102 c 0,28,29
 812 1102 812 1102 910.5 1003.5 c 128,-1,30
 1009 905 1009 905 1009 682 c 2,31,-1
 1009 -89 l 2,0,1
EndSplineSet
Substitution2: "'unic' Unicase lookup 2 subtable" Eng
Substitution2: "'smcp' Lowercase to Small Capitals lookup 1 subtable" Eng.smcp
EndChar

StartChar: eogonek
Encoding: 281 281 400
Width: 1086
GlyphClass: 2
Flags: W
AnchorPoint: "Anchor-1" 568 0 basechar 0
AnchorPoint: "Anchor-0" 565 1290 basechar 0
LayerCount: 2
Fore
SplineSet
833 -364 m 1,0,1
 808 -379 808 -379 769.5 -393.5 c 128,-1,2
 731 -408 731 -408 672 -408 c 0,3,4
 591 -408 591 -408 535.5 -359.5 c 128,-1,5
 480 -311 480 -311 480 -217 c 0,6,7
 480 -167 480 -167 503.5 -116.5 c 128,-1,8
 527 -66 527 -66 577 -20 c 1,9,10
 430 -17 430 -17 321 51 c 128,-1,11
 212 119 212 119 152.5 236 c 128,-1,12
 93 353 93 353 93 503 c 2,13,-1
 93 545 l 2,14,15
 93 722 93 722 160.5 846.5 c 128,-1,16
 228 971 228 971 336.5 1036.5 c 128,-1,17
 445 1102 445 1102 566 1102 c 0,18,19
 721 1102 721 1102 819.5 1032.5 c 128,-1,20
 918 963 918 963 964.5 843.5 c 128,-1,21
 1011 724 1011 724 1011 572 c 2,22,-1
 1011 489 l 1,23,-1
 279 489 l 1,24,25
 282 390 282 390 321 308.5 c 128,-1,26
 360 227 360 227 430.5 179 c 128,-1,27
 501 131 501 131 600 131 c 0,28,29
 698 131 698 131 766 171 c 128,-1,30
 834 211 834 211 885 278 c 1,31,-1
 997 189 l 1,32,33
 966 142 966 142 920.5 98.5 c 128,-1,34
 875 55 875 55 811 25 c 1,35,36
 747 -23 747 -23 694 -77 c 128,-1,37
 641 -131 641 -131 641 -196 c 0,38,39
 641 -229 641 -229 658.5 -249 c 128,-1,40
 676 -269 676 -269 719 -269 c 0,41,42
 752 -269 752 -269 778 -259.5 c 128,-1,43
 804 -250 804 -250 819 -242 c 1,44,-1
 833 -364 l 1,0,1
566 950 m 0,45,46
 456 950 456 950 380 870 c 128,-1,47
 304 790 304 790 285 640 c 1,48,-1
 826 640 l 1,49,-1
 826 654 l 1,50,51
 822 726 822 726 796.5 794 c 128,-1,52
 771 862 771 862 716 906 c 128,-1,53
 661 950 661 950 566 950 c 0,45,46
EndSplineSet
Substitution2: "'locl' Localized Forms in Latin lookup 8 subtable" eogonek.NAV
Substitution2: "'unic' Unicase lookup 2 subtable" Eogonek.unic
Substitution2: "'smcp' Lowercase to Small Capitals lookup 1 subtable" Eogonek.smcp
EndChar

StartChar: equal
Encoding: 61 61 402
Width: 1124
GlyphClass: 2
Flags: W
LayerCount: 2
Fore
SplineSet
986 634 m 1,0,-1
 152 634 l 1,1,-1
 152 785 l 1,2,-1
 986 785 l 1,3,-1
 986 634 l 1,0,-1
986 249 m 1,4,-1
 152 249 l 1,5,-1
 152 399 l 1,6,-1
 986 399 l 1,7,-1
 986 249 l 1,4,-1
EndSplineSet
EndChar

StartChar: estimated
Encoding: 8494 8494 403
Width: 1304
GlyphClass: 2
Flags: W
LayerCount: 2
Fore
SplineSet
1044 198 m 1,0,-1
 1046 94 l 1,1,2
 962 42 962 42 868 11 c 128,-1,3
 774 -20 774 -20 676 -20 c 0,4,5
 567 -20 567 -20 472 24 c 128,-1,6
 377 68 377 68 305 145 c 128,-1,7
 233 222 233 222 192.5 324 c 128,-1,8
 152 426 152 426 152 541 c 0,9,10
 152 657 152 657 196.5 758.5 c 128,-1,11
 241 860 241 860 316 937 c 128,-1,12
 391 1014 391 1014 484.5 1058 c 128,-1,13
 578 1102 578 1102 676 1102 c 0,14,15
 813 1102 813 1102 925.5 1031.5 c 128,-1,16
 1038 961 1038 961 1104.5 839 c 128,-1,17
 1171 717 1171 717 1171 561 c 2,18,-1
 1171 514 l 1,19,-1
 403 514 l 1,20,-1
 403 186 l 1,21,22
 458 135 458 135 528 105.5 c 128,-1,23
 598 76 598 76 676 76 c 0,24,25
 769 76 769 76 862.5 105.5 c 128,-1,26
 956 135 956 135 1044 198 c 1,0,-1
676 1008 m 0,27,28
 601 1008 601 1008 530.5 975 c 128,-1,29
 460 942 460 942 403 886 c 1,30,-1
 403 609 l 1,31,-1
 943 609 l 1,32,-1
 943 895 l 1,33,34
 891 947 891 947 822 977.5 c 128,-1,35
 753 1008 753 1008 676 1008 c 0,27,28
EndSplineSet
EndChar

StartChar: eth
Encoding: 240 240 404
Width: 1201
GlyphClass: 2
Flags: W
LayerCount: 2
Fore
SplineSet
255 1421 m 1,0,-1
 312 1581 l 1,1,2
 551 1527 551 1527 727 1388 c 1,3,-1
 915 1516 l 1,4,-1
 988 1417 l 1,5,-1
 820 1303 l 1,6,7
 938 1178 938 1178 1004 1009 c 128,-1,8
 1070 840 1070 840 1070 633 c 2,9,-1
 1070 535 l 2,10,11
 1070 371 1070 371 1009.5 245.5 c 128,-1,12
 949 120 949 120 843.5 50 c 128,-1,13
 738 -20 738 -20 602 -20 c 0,14,15
 462 -20 462 -20 354.5 45.5 c 128,-1,16
 247 111 247 111 186.5 221.5 c 128,-1,17
 126 332 126 332 126 468 c 0,18,19
 126 622 126 622 184 736.5 c 128,-1,20
 242 851 242 851 343.5 914.5 c 128,-1,21
 445 978 445 978 574 978 c 0,22,23
 658 978 658 978 731 947 c 128,-1,24
 804 916 804 916 857 865 c 1,25,26
 832 969 832 969 783.5 1052 c 128,-1,27
 735 1135 735 1135 669 1200 c 1,28,-1
 451 1051 l 1,29,-1
 378 1151 l 1,30,-1
 570 1281 l 1,31,32
 500 1330 500 1330 420 1364.5 c 128,-1,33
 340 1399 340 1399 255 1421 c 1,0,-1
312 468 m 0,34,35
 312 386 312 386 346 308.5 c 128,-1,36
 380 231 380 231 446 181.5 c 128,-1,37
 512 132 512 132 606 132 c 0,38,39
 692 132 692 132 754.5 185 c 128,-1,40
 817 238 817 238 850.5 329 c 128,-1,41
 884 420 884 420 884 535 c 2,42,-1
 884 635 l 2,43,44
 884 665 884 665 882 694 c 1,45,46
 854 745 854 745 788 785.5 c 128,-1,47
 722 826 722 826 618 826 c 0,48,49
 472 826 472 826 392 729.5 c 128,-1,50
 312 633 312 633 312 468 c 0,34,35
EndSplineSet
Substitution2: "'unic' Unicase lookup 2 subtable" Eth
Substitution2: "'smcp' Lowercase to Small Capitals lookup 1 subtable" Eth.smcp
EndChar

StartChar: exclam
Encoding: 33 33 405
Width: 556
GlyphClass: 2
Flags: W
LayerCount: 2
Fore
SplineSet
182 1381 m 1,0,-1
 379 1381 l 1,1,-1
 353 438 l 1,2,-1
 208 438 l 1,3,-1
 182 1381 l 1,0,-1
145 134 m 0,4,5
 145 189 145 189 184 228.5 c 128,-1,6
 223 268 223 268 278 268 c 256,7,8
 333 268 333 268 372 228.5 c 128,-1,9
 411 189 411 189 411 134 c 256,10,11
 411 79 411 79 372 40 c 128,-1,12
 333 1 333 1 278 1 c 256,13,14
 223 1 223 1 184 39 c 128,-1,15
 145 77 145 77 145 134 c 0,4,5
EndSplineSet
EndChar

StartChar: exclamdown
Encoding: 161 161 407
Width: 500
GlyphClass: 2
Flags: W
LayerCount: 2
Fore
SplineSet
358 996 m 256,0,1
 358 952 358 952 330.5 921 c 128,-1,2
 303 890 303 890 249 890 c 0,3,4
 196 890 196 890 167.5 921 c 128,-1,5
 139 952 139 952 139 996 c 256,6,7
 139 1040 139 1040 167.5 1070.5 c 128,-1,8
 196 1101 196 1101 249 1101 c 0,9,10
 303 1101 303 1101 330.5 1070.5 c 128,-1,11
 358 1040 358 1040 358 996 c 256,0,1
157 -361 m 1,12,-1
 171 684 l 1,13,-1
 338 684 l 1,14,-1
 352 -361 l 1,15,-1
 157 -361 l 1,12,-1
EndSplineSet
EndChar

StartChar: f
Encoding: 102 102 408
Width: 712
GlyphClass: 2
Flags: W
AnchorPoint: "Anchor-1" 330 10 basechar 0
AnchorPoint: "Anchor-0" 502 1754 basechar 0
LayerCount: 2
Fore
SplineSet
417 0 m 1,0,-1
 232 0 l 1,1,-1
 232 940 l 1,2,-1
 61 940 l 1,3,-1
 61 1082 l 1,4,-1
 232 1082 l 1,5,-1
 232 1196 l 2,6,7
 232 1371 232 1371 326.5 1464 c 128,-1,8
 421 1557 421 1557 587 1557 c 0,9,10
 648 1557 648 1557 715 1541 c 1,11,-1
 705 1390 l 1,12,13
 663 1399 663 1399 605 1399 c 0,14,15
 516 1399 516 1399 466.5 1346.5 c 128,-1,16
 417 1294 417 1294 417 1196 c 2,17,-1
 417 1082 l 1,18,-1
 647 1082 l 1,19,-1
 647 940 l 1,20,-1
 417 940 l 1,21,-1
 417 0 l 1,0,-1
EndSplineSet
Substitution2: "'unic' Unicase lookup 2 subtable" F
Substitution2: "'smcp' Lowercase to Small Capitals lookup 1 subtable" F.smcp
EndChar

StartChar: f_f_i
Encoding: 64259 64259 410
Width: 1748
GlyphClass: 3
Flags: W
LayerCount: 2
Fore
SplineSet
417 0 m 1,0,-1
 232 0 l 1,1,-1
 232 940 l 1,2,-1
 61 940 l 1,3,-1
 61 1082 l 1,4,-1
 232 1082 l 1,5,-1
 232 1196 l 2,6,7
 232 1371 232 1371 326.5 1464 c 128,-1,8
 421 1557 421 1557 587 1557 c 0,9,10
 648 1557 648 1557 715 1541 c 1,11,-1
 705 1390 l 1,12,13
 663 1399 663 1399 605 1399 c 0,14,15
 516 1399 516 1399 466.5 1346.5 c 128,-1,16
 417 1294 417 1294 417 1196 c 2,17,-1
 417 1082 l 1,18,-1
 817 1082 l 1,19,-1
 817 1176 l 2,20,21
 817 1361 817 1361 922.5 1459 c 128,-1,22
 1028 1557 1028 1557 1212 1557 c 0,23,24
 1285 1557 1285 1557 1354 1539.5 c 128,-1,25
 1423 1522 1423 1522 1496 1496 c 1,26,-1
 1464 1340 l 1,27,28
 1419 1358 1419 1358 1358 1374.5 c 128,-1,29
 1297 1391 1297 1391 1226 1391 c 0,30,31
 1107 1391 1107 1391 1054.5 1337.5 c 128,-1,32
 1002 1284 1002 1284 1002 1176 c 2,33,-1
 1002 1082 l 1,34,-1
 1223 1082 l 1,35,-1
 1223 940 l 1,36,-1
 1002 940 l 1,37,-1
 1002 0 l 1,38,-1
 817 0 l 1,39,-1
 817 940 l 1,40,-1
 417 940 l 1,41,-1
 417 0 l 1,0,-1
1587 1082 m 1,42,-1
 1587 0 l 1,43,-1
 1402 0 l 1,44,-1
 1402 1082 l 1,45,-1
 1587 1082 l 1,42,-1
EndSplineSet
Ligature2: "'liga' Standard Ligatures in Latin lookup 10 subtable" f f i
EndChar

StartChar: f_f_l
Encoding: 64260 64260 411
Width: 1748
GlyphClass: 3
Flags: W
LayerCount: 2
Fore
SplineSet
417 0 m 1,0,-1
 232 0 l 1,1,-1
 232 940 l 1,2,-1
 61 940 l 1,3,-1
 61 1082 l 1,4,-1
 232 1082 l 1,5,-1
 232 1196 l 2,6,7
 232 1371 232 1371 326.5 1464 c 128,-1,8
 421 1557 421 1557 587 1557 c 0,9,10
 648 1557 648 1557 715 1541 c 1,11,-1
 705 1390 l 1,12,13
 663 1399 663 1399 605 1399 c 0,14,15
 516 1399 516 1399 466.5 1346.5 c 128,-1,16
 417 1294 417 1294 417 1196 c 2,17,-1
 417 1082 l 1,18,-1
 817 1082 l 1,19,-1
 817 1196 l 2,20,21
 817 1371 817 1371 913.5 1464 c 128,-1,22
 1010 1557 1010 1557 1187 1557 c 0,23,24
 1253 1557 1253 1557 1366 1537.5 c 128,-1,25
 1479 1518 1479 1518 1587 1496 c 1,26,-1
 1587 0 l 1,27,-1
 1402 0 l 1,28,-1
 1402 1379 l 1,29,30
 1277 1399 1277 1399 1201 1399 c 0,31,32
 1002 1399 1002 1399 1002 1196 c 2,33,-1
 1002 1082 l 1,34,-1
 1232 1082 l 1,35,-1
 1232 940 l 1,36,-1
 1002 940 l 1,37,-1
 1002 0 l 1,38,-1
 817 0 l 1,39,-1
 817 940 l 1,40,-1
 417 940 l 1,41,-1
 417 0 l 1,0,-1
EndSplineSet
Ligature2: "'liga' Standard Ligatures in Latin lookup 11 subtable" f f l
EndChar

StartChar: f_l
Encoding: 64258 64258 412
Width: 1163
GlyphClass: 3
Flags: W
LayerCount: 2
Fore
SplineSet
417 0 m 1,0,-1
 232 0 l 1,1,-1
 232 940 l 1,2,-1
 61 940 l 1,3,-1
 61 1082 l 1,4,-1
 232 1082 l 1,5,-1
 232 1196 l 2,6,7
 232 1371 232 1371 328.5 1464 c 128,-1,8
 425 1557 425 1557 602 1557 c 0,9,10
 668 1557 668 1557 781 1537.5 c 128,-1,11
 894 1518 894 1518 1002 1496 c 1,12,-1
 1002 0 l 1,13,-1
 817 0 l 1,14,-1
 817 1379 l 1,15,16
 692 1399 692 1399 616 1399 c 0,17,18
 417 1399 417 1399 417 1196 c 2,19,-1
 417 1082 l 1,20,-1
 647 1082 l 1,21,-1
 647 940 l 1,22,-1
 417 940 l 1,23,-1
 417 0 l 1,0,-1
EndSplineSet
Ligature2: "'liga' Standard Ligatures in Latin lookup 11 subtable" f l
EndChar

StartChar: fi
Encoding: 64257 64257 413
Width: 1135
GlyphClass: 3
Flags: W
LayerCount: 2
Fore
SplineSet
388 0 m 1,0,-1
 203 0 l 1,1,-1
 203 940 l 1,2,-1
 32 940 l 1,3,-1
 32 1082 l 1,4,-1
 203 1082 l 1,5,-1
 203 1176 l 2,6,7
 203 1361 203 1361 309 1459 c 128,-1,8
 415 1557 415 1557 599 1557 c 0,9,10
 671 1557 671 1557 740 1539.5 c 128,-1,11
 809 1522 809 1522 882 1496 c 1,12,-1
 851 1340 l 1,13,14
 805 1358 805 1358 744.5 1374.5 c 128,-1,15
 684 1391 684 1391 612 1391 c 0,16,17
 493 1391 493 1391 440.5 1337.5 c 128,-1,18
 388 1284 388 1284 388 1176 c 2,19,-1
 388 1082 l 1,20,-1
 609 1082 l 1,21,-1
 609 940 l 1,22,-1
 388 940 l 1,23,-1
 388 0 l 1,0,-1
973 1082 m 1,24,-1
 973 0 l 1,25,-1
 788 0 l 1,26,-1
 788 1082 l 1,27,-1
 973 1082 l 1,24,-1
EndSplineSet
Ligature2: "'liga' Standard Ligatures in Latin lookup 10 subtable" f i
EndChar

StartChar: figuredash
Encoding: 8210 8210 414
Width: 1025
GlyphClass: 2
Flags: W
LayerCount: 2
Fore
SplineSet
885 443 m 1,0,-1
 140 443 l 1,1,-1
 140 594 l 1,2,-1
 885 594 l 1,3,-1
 885 443 l 1,0,-1
EndSplineSet
EndChar

StartChar: five
Encoding: 53 53 415
Width: 1151
GlyphClass: 2
Flags: W
LayerCount: 2
Fore
SplineSet
355 693 m 1,0,-1
 207 731 l 1,1,-1
 280 1456 l 1,2,-1
 1027 1456 l 1,3,-1
 1027 1285 l 1,4,-1
 437 1285 l 1,5,-1
 393 889 l 1,6,7
 433 912 433 912 494.5 932 c 128,-1,8
 556 952 556 952 636 952 c 0,9,10
 837 952 837 952 953.5 819.5 c 128,-1,11
 1070 687 1070 687 1070 464 c 0,12,13
 1070 325 1070 325 1019.5 215.5 c 128,-1,14
 969 106 969 106 867 43 c 128,-1,15
 765 -20 765 -20 609 -20 c 0,16,17
 491 -20 491 -20 392.5 24 c 128,-1,18
 294 68 294 68 230.5 157.5 c 128,-1,19
 167 247 167 247 154 383 c 1,20,-1
 330 383 l 1,21,22
 347 259 347 259 419 195.5 c 128,-1,23
 491 132 491 132 609 132 c 0,24,25
 740 132 740 132 812 221 c 128,-1,26
 884 310 884 310 884 462 c 0,27,28
 884 599 884 599 808.5 692.5 c 128,-1,29
 733 786 733 786 593 786 c 0,30,31
 500 786 500 786 452.5 761 c 128,-1,32
 405 736 405 736 355 693 c 1,0,-1
EndSplineSet
Substitution2: "'ss01' Style Set 1 lookup 35 subtable" uni06F5
Substitution2: "'numr' Numerators lookup 21 subtable" five.frac
Substitution2: "'dnom' Denominators lookup 20 subtable" five.sup
Substitution2: "'frac' Diagonal Fractions lookup 19 subtable" five.frac
Substitution2: "Single Substitution lookup 18 subtable" five.sup
Substitution2: "'onum' Oldstyle Figures lookup 14 subtable" five.tnum
Substitution2: "'c2sc' Capitals to Small Capitals lookup 0 subtable" five.smcp
Position2: "'cpsp' Capital Spacing lookup 0 subtable" dx=36 dy=0 dh=72 dv=0
EndChar

StartChar: five.onum
Encoding: 65737 -1 417
Width: 1131
GlyphClass: 1
Flags: W
LayerCount: 2
Fore
SplineSet
288 355 m 1,0,-1
 134 372 l 1,1,-1
 236 1164 l 1,2,-1
 1024 1164 l 1,3,-1
 1024 993 l 1,4,-1
 383 993 l 1,5,-1
 328 598 l 1,6,7
 372 624 372 624 436 643 c 128,-1,8
 500 662 500 662 588 663 c 0,9,10
 724 665 724 665 823 604.5 c 128,-1,11
 922 544 922 544 976 433.5 c 128,-1,12
 1030 323 1030 323 1030 174 c 0,13,14
 1030 28 1030 28 970 -91.5 c 128,-1,15
 910 -211 910 -211 792 -281.5 c 128,-1,16
 674 -352 674 -352 500 -352 c 0,17,18
 394 -352 394 -352 293.5 -324.5 c 128,-1,19
 193 -297 193 -297 101 -238 c 1,20,-1
 159 -100 l 1,21,22
 226 -152 226 -152 313 -176 c 128,-1,23
 400 -200 400 -200 500 -200 c 0,24,25
 606 -200 606 -200 683 -151.5 c 128,-1,26
 760 -103 760 -103 802.5 -19 c 128,-1,27
 845 65 845 65 845 172 c 0,28,29
 845 263 845 263 809 336.5 c 128,-1,30
 773 410 773 410 705.5 453.5 c 128,-1,31
 638 497 638 497 544 497 c 0,32,33
 458 497 458 497 408.5 479.5 c 128,-1,34
 359 462 359 462 332.5 430 c 128,-1,35
 306 398 306 398 288 355 c 1,0,-1
EndSplineSet
EndChar

StartChar: five.smcp
Encoding: 65738 -1 418
Width: 1040
GlyphClass: 2
Flags: W
LayerCount: 2
Fore
SplineSet
313 542 m 1,0,-1
 165 579 l 1,1,-1
 233 1165 l 1,2,-1
 913 1165 l 1,3,-1
 913 1003 l 1,4,-1
 390 1003 l 1,5,-1
 352 714 l 1,6,7
 385 730 385 730 440 746.5 c 128,-1,8
 495 763 495 763 567 763 c 0,9,10
 749 763 749 763 857 658.5 c 128,-1,11
 965 554 965 554 965 373 c 0,12,13
 965 265 965 265 920 177 c 128,-1,14
 875 89 875 89 782.5 36.5 c 128,-1,15
 690 -16 690 -16 547 -16 c 0,16,17
 441 -16 441 -16 349.5 21 c 128,-1,18
 258 58 258 58 198.5 131 c 128,-1,19
 139 204 139 204 129 312 c 1,20,-1
 307 312 l 1,21,22
 320 223 320 223 384.5 179 c 128,-1,23
 449 135 449 135 547 135 c 0,24,25
 663 135 663 135 721.5 203 c 128,-1,26
 780 271 780 271 780 378 c 0,27,28
 780 480 780 480 713 546 c 128,-1,29
 646 612 646 612 524 612 c 0,30,31
 440 612 440 612 397 591.5 c 128,-1,32
 354 571 354 571 313 542 c 1,0,-1
EndSplineSet
EndChar

StartChar: five.sup
Encoding: 65739 -1 419
Width: 751
GlyphClass: 2
Flags: W
LayerCount: 2
Fore
SplineSet
238 356 m 1,0,-1
 113 388 l 1,1,-1
 162 789 l 1,2,-1
 641 789 l 1,3,-1
 641 658 l 1,4,-1
 292 658 l 1,5,-1
 269 487 l 1,6,7
 288 495 288 495 325.5 506 c 128,-1,8
 363 517 363 517 409 517 c 0,9,10
 536 517 536 517 608 448.5 c 128,-1,11
 680 380 680 380 680 258 c 0,12,13
 680 151 680 151 608 70 c 128,-1,14
 536 -11 536 -11 386 -11 c 0,15,16
 312 -11 312 -11 246 15.5 c 128,-1,17
 180 42 180 42 138 93 c 128,-1,18
 96 144 96 144 92 216 c 1,19,-1
 247 216 l 1,20,21
 252 165 252 165 290 141 c 128,-1,22
 328 117 328 117 386 117 c 0,23,24
 459 117 459 117 490.5 158 c 128,-1,25
 522 199 522 199 522 260 c 0,26,27
 522 322 522 322 483 361 c 128,-1,28
 444 400 444 400 371 400 c 0,29,30
 316 400 316 400 288 386 c 128,-1,31
 260 372 260 372 238 356 c 1,0,-1
EndSplineSet
EndChar

StartChar: florin
Encoding: 402 402 422
Width: 698
GlyphClass: 2
Flags: W
LayerCount: 2
Fore
SplineSet
608 1082 m 1,0,-1
 608 940 l 1,1,-1
 405 940 l 1,2,-1
 405 -89 l 2,3,4
 405 -258 405 -258 320 -347.5 c 128,-1,5
 235 -437 235 -437 83 -437 c 0,6,7
 52 -437 52 -437 26 -433.5 c 128,-1,8
 0 -430 0 -430 -29 -420 c 1,9,-1
 -15 -272 l 1,10,11
 0 -278 0 -278 34.5 -281.5 c 128,-1,12
 69 -285 69 -285 83 -285 c 0,13,14
 148 -285 148 -285 184 -233 c 128,-1,15
 220 -181 220 -181 220 -89 c 2,16,-1
 220 940 l 1,17,-1
 49 940 l 1,18,-1
 49 1082 l 1,19,-1
 220 1082 l 1,20,-1
 220 1196 l 2,21,22
 220 1371 220 1371 310 1464 c 128,-1,23
 400 1557 400 1557 558 1557 c 0,24,25
 594 1557 594 1557 629.5 1551 c 128,-1,26
 665 1545 665 1545 701 1536 c 1,27,-1
 679 1390 l 1,28,29
 637 1400 637 1400 580 1400 c 0,30,31
 492 1400 492 1400 448.5 1347 c 128,-1,32
 405 1294 405 1294 405 1196 c 2,33,-1
 405 1082 l 1,34,-1
 608 1082 l 1,0,-1
EndSplineSet
EndChar

StartChar: four
Encoding: 52 52 423
Width: 1151
GlyphClass: 2
Flags: W
LayerCount: 2
Fore
SplineSet
1105 490 m 1,0,-1
 1105 338 l 1,1,-1
 902 338 l 1,2,-1
 902 0 l 1,3,-1
 717 0 l 1,4,-1
 717 338 l 1,5,-1
 53 338 l 1,6,-1
 53 447 l 1,7,-1
 705 1456 l 1,8,-1
 902 1456 l 1,9,-1
 902 490 l 1,10,-1
 1105 490 l 1,0,-1
263 490 m 1,11,-1
 717 490 l 1,12,-1
 717 1205 l 1,13,-1
 694 1164 l 1,14,-1
 263 490 l 1,11,-1
EndSplineSet
Substitution2: "'ss01' Style Set 1 lookup 35 subtable" uni06F4
Substitution2: "'numr' Numerators lookup 21 subtable" four.frac
Substitution2: "'dnom' Denominators lookup 20 subtable" four.sup
Substitution2: "'frac' Diagonal Fractions lookup 19 subtable" four.frac
Substitution2: "Single Substitution lookup 18 subtable" four.sup
Substitution2: "'onum' Oldstyle Figures lookup 14 subtable" four.tnum
Substitution2: "'c2sc' Capitals to Small Capitals lookup 0 subtable" four.smcp
Position2: "'cpsp' Capital Spacing lookup 0 subtable" dx=36 dy=0 dh=72 dv=0
EndChar

StartChar: four.onum
Encoding: 65742 -1 425
Width: 1231
GlyphClass: 1
Flags: W
LayerCount: 2
Fore
SplineSet
1184 151 m 1,0,-1
 1184 -1 l 1,1,-1
 987 -1 l 1,2,-1
 987 -330 l 1,3,-1
 802 -330 l 1,4,-1
 802 -1 l 1,5,-1
 62 -1 l 1,6,-1
 62 109 l 1,7,-1
 789 1165 l 1,8,-1
 987 1165 l 1,9,-1
 987 151 l 1,10,-1
 1184 151 l 1,0,-1
280 151 m 1,11,-1
 802 151 l 1,12,-1
 802 915 l 1,13,-1
 774 861 l 1,14,-1
 280 151 l 1,11,-1
EndSplineSet
EndChar

StartChar: four.smcp
Encoding: 65743 -1 426
Width: 1040
GlyphClass: 2
Flags: W
LayerCount: 2
Fore
SplineSet
997 414 m 1,0,-1
 997 262 l 1,1,-1
 821 262 l 1,2,-1
 821 0 l 1,3,-1
 636 0 l 1,4,-1
 636 262 l 1,5,-1
 51 262 l 1,6,-1
 49 377 l 1,7,-1
 627 1165 l 1,8,-1
 821 1165 l 1,9,-1
 821 414 l 1,10,-1
 997 414 l 1,0,-1
247 414 m 1,11,-1
 636 414 l 1,12,-1
 636 921 l 1,13,-1
 610 874 l 1,14,-1
 247 414 l 1,11,-1
EndSplineSet
EndChar

StartChar: four.sup
Encoding: 65744 -1 427
Width: 751
GlyphClass: 2
Flags: W
LayerCount: 2
Fore
SplineSet
700 300 m 1,0,-1
 700 170 l 1,1,-1
 592 170 l 1,2,-1
 592 0 l 1,3,-1
 435 0 l 1,4,-1
 435 170 l 1,5,-1
 61 170 l 1,6,-1
 54 272 l 1,7,-1
 432 789 l 1,8,-1
 592 789 l 1,9,-1
 592 300 l 1,10,-1
 700 300 l 1,0,-1
212 300 m 1,11,-1
 435 300 l 1,12,-1
 435 587 l 1,13,-1
 419 560 l 1,14,-1
 212 300 l 1,11,-1
EndSplineSet
EndChar

StartChar: fraction
Encoding: 8260 8260 429
Width: 931
GlyphClass: 2
Flags: W
LayerCount: 2
Fore
SplineSet
875 1249 m 1,0,-1
 164 111 l 1,1,-1
 60 177 l 1,2,-1
 771 1315 l 1,3,-1
 875 1249 l 1,0,-1
EndSplineSet
EndChar

StartChar: g
Encoding: 103 103 431
Width: 1150
GlyphClass: 2
Flags: W
AnchorPoint: "Anchor-1" 554 -447 basechar 0
AnchorPoint: "Anchor-0" 556 1290 basechar 0
LayerCount: 2
Fore
SplineSet
97 529 m 2,0,-1
 97 550 l 2,1,2
 97 715 97 715 149 839.5 c 128,-1,3
 201 964 201 964 296.5 1033 c 128,-1,4
 392 1102 392 1102 524 1102 c 0,5,6
 627 1102 627 1102 703.5 1066 c 128,-1,7
 780 1030 780 1030 833 962 c 1,8,-1
 842 1082 l 1,9,-1
 1010 1082 l 1,10,-1
 1010 23 l 2,11,12
 1010 -120 1010 -120 952 -221 c 128,-1,13
 894 -322 894 -322 790.5 -374.5 c 128,-1,14
 687 -427 687 -427 552 -427 c 0,15,16
 496 -427 496 -427 420.5 -409.5 c 128,-1,17
 345 -392 345 -392 272.5 -350.5 c 128,-1,18
 200 -309 200 -309 151 -239 c 1,19,-1
 248 -129 l 1,20,21
 316 -211 316 -211 390.5 -243 c 128,-1,22
 465 -275 465 -275 538 -275 c 0,23,24
 669 -275 669 -275 747 -201.5 c 128,-1,25
 825 -128 825 -128 825 14 c 2,26,-1
 825 109 l 1,27,28
 772 47 772 47 696.5 13.5 c 128,-1,29
 621 -20 621 -20 522 -20 c 0,30,31
 392 -20 392 -20 296.5 51.5 c 128,-1,32
 201 123 201 123 149 247 c 128,-1,33
 97 371 97 371 97 529 c 2,0,-1
282 550 m 2,34,-1
 282 529 l 2,35,36
 282 422 282 422 311.5 332.5 c 128,-1,37
 341 243 341 243 404 190 c 128,-1,38
 467 137 467 137 567 137 c 0,39,40
 666 137 666 137 727.5 182 c 128,-1,41
 789 227 789 227 825 297 c 1,42,-1
 825 790 l 1,43,44
 790 857 790 857 728 901.5 c 128,-1,45
 666 946 666 946 569 946 c 0,46,47
 468 946 468 946 404.5 892 c 128,-1,48
 341 838 341 838 311.5 748 c 128,-1,49
 282 658 282 658 282 550 c 2,34,-1
EndSplineSet
Substitution2: "'salt' Stylistic Alternatives lookup 13 subtable" g.alt
Substitution2: "'unic' Unicase lookup 2 subtable" G
Substitution2: "'smcp' Lowercase to Small Capitals lookup 1 subtable" G.smcp
EndChar

StartChar: g.alt
Encoding: 65746 -1 432
Width: 1082
GlyphClass: 2
Flags: W
LayerCount: 2
Fore
SplineSet
93 722 m 2,0,-1
 93 744 l 2,1,2
 93 848 93 848 147.5 929 c 128,-1,3
 202 1010 202 1010 298.5 1056 c 128,-1,4
 395 1102 395 1102 521 1102 c 0,5,6
 602 1102 602 1102 674 1082 c 1,7,-1
 1039 1082 l 1,8,-1
 1041 936 l 1,9,-1
 891 936 l 1,10,11
 950 852 950 852 950 744 c 2,12,-1
 950 722 l 2,13,14
 950 624 950 624 896 542.5 c 128,-1,15
 842 461 842 461 746 412.5 c 128,-1,16
 650 364 650 364 523 364 c 0,17,18
 443 364 443 364 372 385 c 1,19,20
 351 368 351 368 335.5 342.5 c 128,-1,21
 320 317 320 317 320 279 c 0,22,23
 320 232 320 232 357 214 c 128,-1,24
 394 196 394 196 447 196 c 2,25,-1
 619 196 l 2,26,27
 813 196 813 196 921.5 125 c 128,-1,28
 1030 54 1030 54 1030 -98 c 0,29,30
 1030 -174 1030 -174 967 -253 c 128,-1,31
 904 -332 904 -332 784.5 -385 c 128,-1,32
 665 -438 665 -438 494 -438 c 0,33,34
 344 -438 344 -438 240.5 -399.5 c 128,-1,35
 137 -361 137 -361 84 -298 c 128,-1,36
 31 -235 31 -235 31 -161 c 0,37,38
 31 -65 31 -65 84.5 0.5 c 128,-1,39
 138 66 138 66 210 103 c 1,40,41
 153 149 153 149 153 224 c 0,42,43
 153 301 153 301 189.5 350 c 128,-1,44
 226 399 226 399 268 430 c 1,45,46
 186 479 186 479 139.5 555.5 c 128,-1,47
 93 632 93 632 93 722 c 2,0,-1
278 744 m 2,48,-1
 278 722 l 2,49,50
 278 670 278 670 308.5 622.5 c 128,-1,51
 339 575 339 575 394 545 c 128,-1,52
 449 515 449 515 523 515 c 0,53,54
 596 515 596 515 650.5 545 c 128,-1,55
 705 575 705 575 735 622.5 c 128,-1,56
 765 670 765 670 765 722 c 2,57,-1
 765 744 l 2,58,59
 765 827 765 827 698 888.5 c 128,-1,60
 631 950 631 950 521 950 c 0,61,62
 412 950 412 950 345 888.5 c 128,-1,63
 278 827 278 827 278 744 c 2,48,-1
216 -124 m 0,64,65
 216 -191 216 -191 283.5 -239 c 128,-1,66
 351 -287 351 -287 494 -287 c 0,67,68
 607 -287 607 -287 685.5 -257 c 128,-1,69
 764 -227 764 -227 804.5 -183 c 128,-1,70
 845 -139 845 -139 845 -98 c 0,71,72
 845 -30 845 -30 796.5 7.5 c 128,-1,73
 748 45 748 45 619 45 c 2,74,-1
 411 45 l 2,75,76
 370 45 370 45 333 51 c 1,77,78
 284 30 284 30 250 -17 c 128,-1,79
 216 -64 216 -64 216 -124 c 0,64,65
EndSplineSet
EndChar

StartChar: germandbls
Encoding: 223 223 437
Width: 1218
GlyphClass: 2
Flags: W
LayerCount: 2
Fore
SplineSet
324 1112 m 2,0,-1
 324 0 l 1,1,-1
 140 0 l 1,2,-1
 140 1112 l 2,3,4
 140 1331 140 1331 249 1442.5 c 128,-1,5
 358 1554 358 1554 533 1554 c 0,6,7
 696 1554 696 1554 802.5 1472 c 128,-1,8
 909 1390 909 1390 909 1217 c 0,9,10
 909 1137 909 1137 889.5 1083.5 c 128,-1,11
 870 1030 870 1030 845 989.5 c 128,-1,12
 820 949 820 949 800.5 910 c 128,-1,13
 781 871 781 871 781 820 c 0,14,15
 781 765 781 765 816 721.5 c 128,-1,16
 851 678 851 678 903 638 c 128,-1,17
 955 598 955 598 1007.5 553 c 128,-1,18
 1060 508 1060 508 1095 451 c 128,-1,19
 1130 394 1130 394 1130 317 c 0,20,21
 1130 146 1130 146 1021.5 63 c 128,-1,22
 913 -20 913 -20 745 -20 c 0,23,24
 691 -20 691 -20 631 -9.5 c 128,-1,25
 571 1 571 1 521.5 17.5 c 128,-1,26
 472 34 472 34 446 52 c 1,27,-1
 488 207 l 1,28,29
 523 185 523 185 589.5 158 c 128,-1,30
 656 131 656 131 726 131 c 0,31,32
 843 131 843 131 894 183 c 128,-1,33
 945 235 945 235 945 308 c 0,34,35
 945 365 945 365 910 408.5 c 128,-1,36
 875 452 875 452 823 492.5 c 128,-1,37
 771 533 771 533 718.5 578 c 128,-1,38
 666 623 666 623 631 682 c 128,-1,39
 596 741 596 741 596 822 c 0,40,41
 596 882 596 882 617 928 c 128,-1,42
 638 974 638 974 665 1014.5 c 128,-1,43
 692 1055 692 1055 713 1099.5 c 128,-1,44
 734 1144 734 1144 734 1201 c 0,45,46
 734 1301 734 1301 679.5 1352 c 128,-1,47
 625 1403 625 1403 543 1403 c 0,48,49
 440 1403 440 1403 382 1332.5 c 128,-1,50
 324 1262 324 1262 324 1112 c 2,0,-1
EndSplineSet
Substitution2: "'smcp' Lowercase to Small Capitals lookup 1 subtable" Germandbls.smcp
EndChar

StartChar: grave
Encoding: 96 96 438
Width: 633
GlyphClass: 2
Flags: W
LayerCount: 2
Fore
SplineSet
281 1536 m 1,0,-1
 474 1242 l 1,1,-1
 315 1242 l 1,2,-1
 57 1536 l 1,3,-1
 281 1536 l 1,0,-1
EndSplineSet
EndChar

StartChar: gravecomb
Encoding: 768 768 439
Width: 0
GlyphClass: 4
Flags: W
AnchorPoint: "Anchor-3" -530 1641 basemark 0
AnchorPoint: "Anchor-3" -530 1290 mark 0
AnchorPoint: "Anchor-0" -530 1290 mark 0
LayerCount: 2
Fore
SplineSet
-634 1536 m 1,0,-1
 -441 1242 l 1,1,-1
 -599 1242 l 1,2,-1
 -857 1536 l 1,3,-1
 -634 1536 l 1,0,-1
EndSplineSet
EndChar

StartChar: greater
Encoding: 62 62 440
Width: 1071
GlyphClass: 2
Flags: W
LayerCount: 2
Fore
SplineSet
135 388 m 1,0,-1
 797 651 l 1,1,-1
 135 909 l 1,2,-1
 135 1100 l 1,3,-1
 989 722 l 1,4,-1
 989 576 l 1,5,-1
 135 197 l 1,6,-1
 135 388 l 1,0,-1
EndSplineSet
EndChar

StartChar: greaterequal
Encoding: 8805 8805 441
Width: 1071
GlyphClass: 2
Flags: W
LayerCount: 2
Fore
SplineSet
135 467 m 1,0,-1
 798 706 l 1,1,-1
 135 941 l 1,2,-1
 135 1114 l 1,3,-1
 989 771 l 1,4,-1
 989 638 l 1,5,-1
 135 294 l 1,6,-1
 135 467 l 1,0,-1
967 152 m 1,7,-1
 967 0 l 1,8,-1
 132 0 l 1,9,-1
 132 152 l 1,10,-1
 967 152 l 1,7,-1
EndSplineSet
EndChar

StartChar: guillemotleft
Encoding: 171 171 442
Width: 918
GlyphClass: 2
Flags: W
LayerCount: 2
Fore
SplineSet
446 61 m 1,0,-1
 351 -30 l 1,1,2
 227 117 227 117 164.5 231 c 128,-1,3
 102 345 102 345 102 452 c 256,4,5
 102 559 102 559 164.5 673 c 128,-1,6
 227 787 227 787 351 933 c 1,7,-1
 446 841 l 1,8,9
 351 714 351 714 303.5 624 c 128,-1,10
 256 534 256 534 256 452 c 256,11,12
 256 370 256 370 304 279.5 c 128,-1,13
 352 189 352 189 446 61 c 1,0,-1
799 61 m 1,14,-1
 704 -30 l 1,15,16
 580 116 580 116 518 230.5 c 128,-1,17
 456 345 456 345 456 452 c 256,18,19
 456 559 456 559 518 673.5 c 128,-1,20
 580 788 580 788 704 933 c 1,21,-1
 799 841 l 1,22,23
 704 714 704 714 656.5 624 c 128,-1,24
 609 534 609 534 609 452 c 256,25,26
 609 370 609 370 657 279.5 c 128,-1,27
 705 189 705 189 799 61 c 1,14,-1
EndSplineSet
EndChar

StartChar: guillemotright
Encoding: 187 187 443
Width: 918
GlyphClass: 2
Flags: W
LayerCount: 2
Fore
SplineSet
472 61 m 1,0,1
 567 189 567 189 614 279.5 c 128,-1,2
 661 370 661 370 661 452 c 256,3,4
 661 534 661 534 614 624 c 128,-1,5
 567 714 567 714 472 841 c 1,6,-1
 567 933 l 1,7,8
 692 787 692 787 754 673 c 128,-1,9
 816 559 816 559 816 452 c 256,10,11
 816 345 816 345 754 231 c 128,-1,12
 692 117 692 117 567 -30 c 1,13,-1
 472 61 l 1,0,1
119 61 m 1,14,15
 214 189 214 189 261 279.5 c 128,-1,16
 308 370 308 370 308 452 c 256,17,18
 308 534 308 534 261 624 c 128,-1,19
 214 714 214 714 119 841 c 1,20,-1
 214 933 l 1,21,22
 339 788 339 788 400.5 673.5 c 128,-1,23
 462 559 462 559 462 452 c 256,24,25
 462 345 462 345 400 230.5 c 128,-1,26
 338 116 338 116 214 -30 c 1,27,-1
 119 61 l 1,14,15
EndSplineSet
EndChar

StartChar: guilsinglleft
Encoding: 8249 8249 444
Width: 615
GlyphClass: 2
Flags: W
LayerCount: 2
Fore
SplineSet
545 949 m 1,0,-1
 287 551 l 1,1,-1
 545 153 l 1,2,-1
 403 153 l 1,3,-1
 108 542 l 1,4,-1
 108 561 l 1,5,-1
 403 949 l 1,6,-1
 545 949 l 1,0,-1
EndSplineSet
EndChar

StartChar: guilsinglright
Encoding: 8250 8250 445
Width: 615
GlyphClass: 2
Flags: W
LayerCount: 2
Fore
SplineSet
90 153 m 1,0,-1
 348 551 l 1,1,-1
 90 949 l 1,2,-1
 232 949 l 1,3,-1
 527 560 l 1,4,-1
 527 541 l 1,5,-1
 232 153 l 1,6,-1
 90 153 l 1,0,-1
EndSplineSet
EndChar

StartChar: h
Encoding: 104 104 446
Width: 1128
GlyphClass: 2
Flags: W
AnchorPoint: "Anchor-1" 588 10 basechar 0
AnchorPoint: "Anchor-0" 501 1611 basechar 0
LayerCount: 2
Fore
SplineSet
326 1536 m 1,0,-1
 326 953 l 1,1,2
 384 1023 384 1023 465 1062.5 c 128,-1,3
 546 1102 546 1102 645 1102 c 0,4,5
 805 1102 805 1102 898.5 1012 c 128,-1,6
 992 922 992 922 992 709 c 2,7,-1
 992 0 l 1,8,-1
 806 0 l 1,9,-1
 806 711 l 2,10,11
 806 838 806 838 750.5 892 c 128,-1,12
 695 946 695 946 590 946 c 0,13,14
 501 946 501 946 433 898 c 128,-1,15
 365 850 365 850 326 773 c 1,16,-1
 326 0 l 1,17,-1
 141 0 l 1,18,-1
 141 1536 l 1,19,-1
 326 1536 l 1,0,-1
EndSplineSet
Substitution2: "'unic' Unicase lookup 2 subtable" H
Substitution2: "'smcp' Lowercase to Small Capitals lookup 1 subtable" H.smcp
EndChar

StartChar: hbar
Encoding: 295 295 447
Width: 1158
GlyphClass: 2
Flags: W
AnchorPoint: "Anchor-1" 588 10 basechar 0
AnchorPoint: "Anchor-0" 501 1611 basechar 0
LayerCount: 2
Fore
SplineSet
638 1385 m 1,0,-1
 638 1233 l 1,1,-1
 356 1233 l 1,2,-1
 356 953 l 1,3,4
 414 1023 414 1023 495 1062.5 c 128,-1,5
 576 1102 576 1102 675 1102 c 0,6,7
 835 1102 835 1102 928.5 1012 c 128,-1,8
 1022 922 1022 922 1022 709 c 2,9,-1
 1022 0 l 1,10,-1
 836 0 l 1,11,-1
 836 711 l 2,12,13
 836 838 836 838 780.5 892 c 128,-1,14
 725 946 725 946 620 946 c 0,15,16
 531 946 531 946 463 898 c 128,-1,17
 395 850 395 850 356 773 c 1,18,-1
 356 0 l 1,19,-1
 171 0 l 1,20,-1
 171 1233 l 1,21,-1
 1 1233 l 1,22,-1
 1 1385 l 1,23,-1
 171 1385 l 1,24,-1
 171 1536 l 1,25,-1
 356 1536 l 1,26,-1
 356 1385 l 1,27,-1
 638 1385 l 1,0,-1
EndSplineSet
Substitution2: "'unic' Unicase lookup 2 subtable" Hbar
Substitution2: "'smcp' Lowercase to Small Capitals lookup 1 subtable" Hbar.smcp
EndChar

StartChar: hook
Encoding: 777 777 449
Width: 0
GlyphClass: 4
Flags: W
AnchorPoint: "Anchor-3" -590 1721 basemark 0
AnchorPoint: "Anchor-3" -590 1274 mark 0
AnchorPoint: "Anchor-0" -590 1274 mark 0
LayerCount: 2
Fore
SplineSet
-520 1242 m 1,0,-1
 -653 1242 l 1,1,-1
 -654 1394 l 1,2,3
 -578 1399 -578 1399 -543.5 1414.5 c 128,-1,4
 -509 1430 -509 1430 -509 1469 c 0,5,6
 -509 1511 -509 1511 -558 1528.5 c 128,-1,7
 -607 1546 -607 1546 -675 1546 c 1,8,-1
 -668 1652 l 1,9,10
 -519 1652 -519 1652 -442 1601 c 128,-1,11
 -365 1550 -365 1550 -365 1465 c 0,12,13
 -365 1389 -365 1389 -413 1354.5 c 128,-1,14
 -461 1320 -461 1320 -519 1312 c 1,15,-1
 -520 1242 l 1,0,-1
EndSplineSet
EndChar

StartChar: hungarumlaut
Encoding: 733 733 450
Width: 764
GlyphClass: 2
Flags: W
LayerCount: 2
Fore
SplineSet
375 1232 m 1,0,-1
 605 1535 l 1,1,-1
 812 1535 l 1,2,-1
 544 1232 l 1,3,-1
 375 1232 l 1,0,-1
95 1232 m 1,4,-1
 265 1535 l 1,5,-1
 463 1535 l 1,6,-1
 245 1232 l 1,7,-1
 95 1232 l 1,4,-1
EndSplineSet
EndChar

StartChar: hyphen
Encoding: 45 45 451
Width: 955
GlyphClass: 2
Flags: W
LayerCount: 2
Fore
SplineSet
815 443 m 1,0,-1
 140 443 l 1,1,-1
 140 594 l 1,2,-1
 815 594 l 1,3,-1
 815 443 l 1,0,-1
EndSplineSet
EndChar

StartChar: hyphendot
Encoding: 8231 8231 453
Width: 383
GlyphClass: 2
Flags: W
LayerCount: 2
Fore
SplineSet
82 619 m 0,0,1
 82 664 82 664 110 695 c 128,-1,2
 138 726 138 726 191 726 c 0,3,4
 245 726 245 726 273 695 c 128,-1,5
 301 664 301 664 301 619 c 0,6,7
 301 575 301 575 273 544.5 c 128,-1,8
 245 514 245 514 191 514 c 0,9,10
 138 514 138 514 110 544.5 c 128,-1,11
 82 575 82 575 82 619 c 0,0,1
EndSplineSet
EndChar

StartChar: i
Encoding: 105 105 455
Width: 498
GlyphClass: 2
Flags: W
AnchorPoint: "Anchor-1" 249 10 basechar 0
AnchorPoint: "Anchor-0" 251 1600 basechar 0
LayerCount: 2
Fore
SplineSet
142 1369 m 0,0,1
 142 1414 142 1414 169.5 1445 c 128,-1,2
 197 1476 197 1476 251 1476 c 0,3,4
 304 1476 304 1476 332.5 1445 c 128,-1,5
 361 1414 361 1414 361 1369 c 0,6,7
 361 1326 361 1326 332.5 1295.5 c 128,-1,8
 304 1265 304 1265 251 1265 c 0,9,10
 197 1265 197 1265 169.5 1295.5 c 128,-1,11
 142 1326 142 1326 142 1369 c 0,0,1
342 1082 m 1,12,-1
 342 0 l 1,13,-1
 156 0 l 1,14,-1
 156 1082 l 1,15,-1
 342 1082 l 1,12,-1
EndSplineSet
Substitution2: "Single Substitution lookup 3 subtable" uni0069.ccmp
Substitution2: "'unic' Unicase lookup 2 subtable" I
Substitution2: "'smcp' Lowercase to Small Capitals lookup 1 subtable" I.smcp
EndChar

StartChar: infinity
Encoding: 8734 8734 463
Width: 2106
GlyphClass: 2
Flags: W
LayerCount: 2
Fore
SplineSet
99 527 m 2,0,-1
 99 554 l 2,1,2
 99 700 99 700 159.5 824.5 c 128,-1,3
 220 949 220 949 329 1025.5 c 128,-1,4
 438 1102 438 1102 583 1102 c 0,5,6
 708 1102 708 1102 797.5 1046 c 128,-1,7
 887 990 887 990 948 906.5 c 128,-1,8
 1009 823 1009 823 1047 741 c 1,9,10
 1085 823 1085 823 1146 906.5 c 128,-1,11
 1207 990 1207 990 1297 1046 c 128,-1,12
 1387 1102 1387 1102 1512 1102 c 0,13,14
 1657 1102 1657 1102 1765.5 1025.5 c 128,-1,15
 1874 949 1874 949 1935 824.5 c 128,-1,16
 1996 700 1996 700 1996 554 c 2,17,-1
 1996 527 l 2,18,19
 1996 382 1996 382 1935 257 c 128,-1,20
 1874 132 1874 132 1765 55.5 c 128,-1,21
 1656 -21 1656 -21 1510 -21 c 0,22,23
 1386 -21 1386 -21 1296.5 35 c 128,-1,24
 1207 91 1207 91 1146 174.5 c 128,-1,25
 1085 258 1085 258 1047 340 c 1,26,27
 1009 258 1009 258 948.5 174.5 c 128,-1,28
 888 91 888 91 798.5 35 c 128,-1,29
 709 -21 709 -21 585 -21 c 0,30,31
 439 -21 439 -21 329.5 55.5 c 128,-1,32
 220 132 220 132 159.5 257 c 128,-1,33
 99 382 99 382 99 527 c 2,0,-1
284 554 m 2,34,-1
 284 527 l 2,35,36
 284 419 284 419 318.5 329 c 128,-1,37
 353 239 353 239 420.5 185 c 128,-1,38
 488 131 488 131 585 131 c 0,39,40
 674 131 674 131 739 178.5 c 128,-1,41
 804 226 804 226 847.5 293.5 c 128,-1,42
 891 361 891 361 916 424.5 c 128,-1,43
 941 488 941 488 948 520 c 1,44,-1
 948 562 l 1,45,46
 941 593 941 593 916 656 c 128,-1,47
 891 719 891 719 847 787 c 128,-1,48
 803 855 803 855 737.5 902.5 c 128,-1,49
 672 950 672 950 583 950 c 0,50,51
 486 950 486 950 419.5 895.5 c 128,-1,52
 353 841 353 841 318.5 751 c 128,-1,53
 284 661 284 661 284 554 c 2,34,-1
1811 527 m 2,54,-1
 1811 554 l 2,55,56
 1811 661 1811 661 1776 751 c 128,-1,57
 1741 841 1741 841 1674.5 895.5 c 128,-1,58
 1608 950 1608 950 1512 950 c 0,59,60
 1422 950 1422 950 1356.5 902.5 c 128,-1,61
 1291 855 1291 855 1247 787 c 128,-1,62
 1203 719 1203 719 1178.5 656 c 128,-1,63
 1154 593 1154 593 1146 562 c 1,64,-1
 1146 520 l 1,65,66
 1154 488 1154 488 1178.5 424.5 c 128,-1,67
 1203 361 1203 361 1247 293.5 c 128,-1,68
 1291 226 1291 226 1356 178.5 c 128,-1,69
 1421 131 1421 131 1510 131 c 0,70,71
 1607 131 1607 131 1674 185 c 128,-1,72
 1741 239 1741 239 1776 329 c 128,-1,73
 1811 419 1811 419 1811 527 c 2,54,-1
EndSplineSet
EndChar

StartChar: integral
Encoding: 8747 8747 464
Width: 525
GlyphClass: 2
Flags: W
LayerCount: 2
Fore
SplineSet
358 -107 m 2,0,1
 358 -276 358 -276 272.5 -356.5 c 128,-1,2
 187 -437 187 -437 36 -437 c 0,3,4
 -25 -437 -25 -437 -81 -418 c 1,5,-1
 -62 -272 l 1,6,7
 -48 -276 -48 -276 -23 -280.5 c 128,-1,8
 2 -285 2 -285 18 -285 c 0,9,10
 91 -285 91 -285 131.5 -242 c 128,-1,11
 172 -199 172 -199 172 -107 c 2,12,-1
 172 1198 l 2,13,14
 172 1373 172 1373 263 1465 c 128,-1,15
 354 1557 354 1557 511 1557 c 0,16,17
 547 1557 547 1557 582.5 1551 c 128,-1,18
 618 1545 618 1545 654 1536 c 1,19,-1
 631 1394 l 1,20,21
 614 1399 614 1399 591.5 1402 c 128,-1,22
 569 1405 569 1405 540 1405 c 0,23,24
 451 1405 451 1405 404.5 1350.5 c 128,-1,25
 358 1296 358 1296 358 1198 c 2,26,-1
 358 -107 l 2,0,1
EndSplineSet
EndChar

StartChar: j
Encoding: 106 106 467
Width: 490
GlyphClass: 2
Flags: W
AnchorPoint: "Anchor-1" 190 -459 basechar 0
AnchorPoint: "Anchor-0" 223 1600 basechar 0
LayerCount: 2
Fore
SplineSet
127 1369 m 0,0,1
 127 1414 127 1414 155 1445 c 128,-1,2
 183 1476 183 1476 236 1476 c 0,3,4
 290 1476 290 1476 318 1445 c 128,-1,5
 346 1414 346 1414 346 1369 c 0,6,7
 346 1326 346 1326 318 1295.5 c 128,-1,8
 290 1265 290 1265 236 1265 c 0,9,10
 183 1265 183 1265 155 1295.5 c 128,-1,11
 127 1326 127 1326 127 1369 c 0,0,1
146 1082 m 1,12,-1
 332 1082 l 1,13,-1
 332 -129 l 2,14,15
 332 -278 332 -278 261.5 -357.5 c 128,-1,16
 191 -437 191 -437 49 -437 c 0,17,18
 24 -437 24 -437 -9.5 -432 c 128,-1,19
 -43 -427 -43 -427 -66 -420 c 1,20,-1
 -65 -271 l 1,21,22
 -46 -275 -46 -275 -22 -277.5 c 128,-1,23
 2 -280 2 -280 20 -280 c 0,24,25
 81 -280 81 -280 113.5 -245.5 c 128,-1,26
 146 -211 146 -211 146 -129 c 2,27,-1
 146 1082 l 1,12,-1
EndSplineSet
Substitution2: "Single Substitution lookup 3 subtable" uni006A.ccmp
Substitution2: "'unic' Unicase lookup 2 subtable" J
Substitution2: "'smcp' Lowercase to Small Capitals lookup 1 subtable" J.smcp
EndChar

StartChar: k
Encoding: 107 107 469
Width: 1038
GlyphClass: 2
Flags: W
AnchorPoint: "Anchor-1" 529 71 basechar 0
AnchorPoint: "Anchor-0" 549 1611 basechar 0
LayerCount: 2
Fore
SplineSet
819 0 m 1,0,-1
 444 502 l 1,1,-1
 327 381 l 1,2,-1
 327 0 l 1,3,-1
 141 0 l 1,4,-1
 141 1536 l 1,5,-1
 327 1536 l 1,6,-1
 327 608 l 1,7,-1
 426 726 l 1,8,-1
 762 1082 l 1,9,-1
 988 1082 l 1,10,-1
 566 631 l 1,11,-1
 1037 0 l 1,12,-1
 819 0 l 1,0,-1
EndSplineSet
Substitution2: "'unic' Unicase lookup 2 subtable" K
Substitution2: "'smcp' Lowercase to Small Capitals lookup 1 subtable" K.smcp
EndChar

StartChar: kgreenlandic
Encoding: 312 312 471
Width: 1140
GlyphClass: 2
Flags: W
AnchorPoint: "Anchor-1" 590 10 basechar 0
AnchorPoint: "Anchor-0" 590 1290 basechar 0
LayerCount: 2
Fore
SplineSet
854 0 m 1,0,-1
 448 462 l 1,1,-1
 340 462 l 1,2,-1
 340 0 l 1,3,-1
 155 0 l 1,4,-1
 155 1082 l 1,5,-1
 340 1082 l 1,6,-1
 340 624 l 1,7,-1
 432 624 l 1,8,-1
 828 1082 l 1,9,-1
 1052 1082 l 1,10,-1
 600 558 l 1,11,-1
 1088 0 l 1,12,-1
 854 0 l 1,0,-1
EndSplineSet
EndChar

StartChar: l
Encoding: 108 108 472
Width: 498
GlyphClass: 2
Flags: W
AnchorPoint: "Anchor-1" 249 10 basechar 0
AnchorPoint: "Anchor-0" 249 1697 basechar 0
LayerCount: 2
Fore
SplineSet
342 1536 m 1,0,-1
 342 0 l 1,1,-1
 156 0 l 1,2,-1
 156 1536 l 1,3,-1
 342 1536 l 1,0,-1
EndSplineSet
Substitution2: "'unic' Unicase lookup 2 subtable" L
Substitution2: "'smcp' Lowercase to Small Capitals lookup 1 subtable" L.smcp
EndChar

StartChar: less
Encoding: 60 60 478
Width: 1041
GlyphClass: 2
Flags: W
LayerCount: 2
Fore
SplineSet
890 902 m 1,0,-1
 266 645 l 1,1,-1
 890 392 l 1,2,-1
 890 196 l 1,3,-1
 72 575 l 1,4,-1
 72 720 l 1,5,-1
 890 1098 l 1,6,-1
 890 902 l 1,0,-1
EndSplineSet
EndChar

StartChar: lessequal
Encoding: 8804 8804 479
Width: 1041
GlyphClass: 2
Flags: W
LayerCount: 2
Fore
SplineSet
890 916 m 1,0,-1
 266 683 l 1,1,-1
 890 453 l 1,2,-1
 890 275 l 1,3,-1
 72 619 l 1,4,-1
 72 751 l 1,5,-1
 890 1094 l 1,6,-1
 890 916 l 1,0,-1
896 153 m 1,7,-1
 896 1 l 1,8,-1
 61 1 l 1,9,-1
 61 153 l 1,10,-1
 896 153 l 1,7,-1
EndSplineSet
EndChar

StartChar: lira
Encoding: 8356 8356 480
Width: 1191
GlyphClass: 2
Flags: W
LayerCount: 2
Fore
SplineSet
790 595 m 1,0,-1
 790 470 l 1,1,-1
 455 470 l 1,2,-1
 457 402 l 2,3,4
 458 332 458 332 442.5 268 c 128,-1,5
 427 204 427 204 396 157 c 1,6,-1
 1128 157 l 1,7,-1
 1128 0 l 1,8,-1
 95 0 l 1,9,-1
 95 157 l 1,10,-1
 172 157 l 1,11,12
 207 166 207 166 227.5 207.5 c 128,-1,13
 248 249 248 249 256.5 303 c 128,-1,14
 265 357 265 357 265 401 c 2,15,-1
 263 470 l 1,16,-1
 91 470 l 1,17,-1
 91 595 l 1,18,-1
 258 595 l 1,19,-1
 254 732 l 1,20,-1
 91 732 l 1,21,-1
 91 857 l 1,22,-1
 249 857 l 1,23,-1
 243 1039 l 1,24,25
 243 1177 243 1177 301 1274.5 c 128,-1,26
 359 1372 359 1372 459.5 1424 c 128,-1,27
 560 1476 560 1476 687 1476 c 0,28,29
 883 1476 883 1476 991.5 1368.5 c 128,-1,30
 1100 1261 1100 1261 1100 1087 c 1,31,-1
 908 1087 l 1,32,33
 908 1171 908 1171 874.5 1222 c 128,-1,34
 841 1273 841 1273 787 1296 c 128,-1,35
 733 1319 733 1319 671 1319 c 0,36,37
 572 1319 572 1319 503.5 1246.5 c 128,-1,38
 435 1174 435 1174 435 1039 c 1,39,-1
 441 857 l 1,40,-1
 790 857 l 1,41,-1
 790 732 l 1,42,-1
 446 732 l 1,43,-1
 450 595 l 1,44,-1
 790 595 l 1,0,-1
EndSplineSet
Substitution2: "'c2sc' Capitals to Small Capitals lookup 0 subtable" lira.smcp
Position2: "'cpsp' Capital Spacing lookup 0 subtable" dx=36 dy=0 dh=72 dv=0
EndChar

StartChar: lira.smcp
Encoding: 65749 -1 481
Width: 1076
GlyphClass: 2
Flags: W
LayerCount: 2
Fore
SplineSet
390 744 m 2,0,-1
 392 681 l 1,1,-1
 797 681 l 1,2,-1
 797 559 l 1,3,-1
 395 559 l 1,4,-1
 398 466 l 2,5,6
 398 458 398 458 398 450 c 1,7,-1
 797 450 l 1,8,-1
 797 329 l 1,9,-1
 394 329 l 1,10,11
 388 279 388 279 377 234 c 128,-1,12
 366 189 366 189 348 152 c 1,13,-1
 1007 152 l 1,14,-1
 1007 0 l 1,15,-1
 114 0 l 1,16,-1
 114 152 l 1,17,-1
 124 152 l 1,18,19
 161 163 161 163 180.5 214 c 128,-1,20
 200 265 200 265 208 329 c 1,21,-1
 49 329 l 1,22,-1
 49 450 l 1,23,-1
 214 450 l 1,24,25
 214 458 214 458 214 466 c 2,26,-1
 211 559 l 1,27,-1
 49 559 l 1,28,-1
 49 681 l 1,29,-1
 207 681 l 1,30,-1
 205 744 l 2,31,32
 198 951 198 951 302.5 1066 c 128,-1,33
 407 1181 407 1181 582 1181 c 0,34,35
 776 1181 776 1181 872 1074 c 128,-1,36
 968 967 968 967 968 794 c 1,37,-1
 783 794 l 1,38,39
 783 922 783 922 723.5 974 c 128,-1,40
 664 1026 664 1026 582 1026 c 0,41,42
 491 1026 491 1026 438.5 954 c 128,-1,43
 386 882 386 882 390 744 c 2,0,-1
EndSplineSet
EndChar

StartChar: logicalnot
Encoding: 172 172 482
Width: 1134
GlyphClass: 2
Flags: W
LayerCount: 2
Fore
SplineSet
958 801 m 1,0,-1
 958 376 l 1,1,-1
 773 376 l 1,2,-1
 773 639 l 1,3,-1
 127 639 l 1,4,-1
 127 801 l 1,5,-1
 958 801 l 1,0,-1
EndSplineSet
EndChar

StartChar: longs
Encoding: 383 383 483
Width: 508
GlyphClass: 2
Flags: W
AnchorPoint: "Anchor-1" 248 10 basechar 0
AnchorPoint: "Anchor-0" 428 1754 basechar 0
LayerCount: 2
Fore
SplineSet
346 0 m 1,0,-1
 161 0 l 1,1,-1
 161 1196 l 2,2,3
 161 1371 161 1371 251.5 1464 c 128,-1,4
 342 1557 342 1557 499 1557 c 0,5,6
 536 1557 536 1557 571 1551 c 128,-1,7
 606 1545 606 1545 643 1536 c 1,8,-1
 619 1394 l 1,9,10
 602 1399 602 1399 579.5 1402 c 128,-1,11
 557 1405 557 1405 528 1405 c 0,12,13
 440 1405 440 1405 393 1349.5 c 128,-1,14
 346 1294 346 1294 346 1196 c 2,15,-1
 346 0 l 1,0,-1
EndSplineSet
EndChar

StartChar: longst
Encoding: 65750 -1 484
Width: 1262
GlyphClass: 3
Flags: W
LayerCount: 2
Fore
SplineSet
1174 1082 m 1,0,-1
 1174 940 l 1,1,-1
 972 940 l 1,2,-1
 972 268 l 2,3,4
 972 185 972 185 1008.5 162 c 128,-1,5
 1045 139 1045 139 1091 139 c 0,6,7
 1114 139 1114 139 1139.5 143.5 c 128,-1,8
 1165 148 1165 148 1178 151 c 1,9,-1
 1179 0 l 1,10,11
 1157 -7 1157 -7 1121.5 -13.5 c 128,-1,12
 1086 -20 1086 -20 1037 -20 c 0,13,14
 968 -20 968 -20 911.5 7 c 128,-1,15
 855 34 855 34 821 97.5 c 128,-1,16
 787 161 787 161 787 269 c 2,17,-1
 787 940 l 1,18,-1
 589 940 l 1,19,-1
 589 1082 l 1,20,-1
 787 1082 l 1,21,-1
 787 1369 l 1,22,23
 757 1385 757 1385 700.5 1395 c 128,-1,24
 644 1405 644 1405 599 1405 c 0,25,26
 511 1405 511 1405 464 1349.5 c 128,-1,27
 417 1294 417 1294 417 1196 c 2,28,-1
 417 0 l 1,29,-1
 232 0 l 1,30,-1
 232 940 l 1,31,-1
 61 940 l 1,32,-1
 61 1082 l 1,33,-1
 232 1082 l 1,34,-1
 232 1196 l 2,35,36
 232 1371 232 1371 322.5 1464 c 128,-1,37
 413 1557 413 1557 570 1557 c 0,38,39
 659 1557 659 1557 769.5 1530 c 128,-1,40
 880 1503 880 1503 972 1457 c 1,41,-1
 972 1082 l 1,42,-1
 1174 1082 l 1,0,-1
EndSplineSet
Ligature2: "'dlig' Discretionary Ligatures lookup 12 subtable" longs t
EndChar

StartChar: lozenge
Encoding: 9674 9674 485
Width: 1032
GlyphClass: 2
Flags: W
LayerCount: 2
Fore
SplineSet
44 727 m 1,0,-1
 444 1456 l 1,1,-1
 585 1456 l 1,2,-1
 989 727 l 1,3,-1
 589 0 l 1,4,-1
 448 0 l 1,5,-1
 44 727 l 1,0,-1
234 727 m 1,6,-1
 519 201 l 1,7,-1
 798 727 l 1,8,-1
 513 1254 l 1,9,-1
 234 727 l 1,6,-1
EndSplineSet
EndChar

StartChar: lslash
Encoding: 322 322 486
Width: 554
GlyphClass: 2
Flags: W
AnchorPoint: "Anchor-1" 280 10 basechar 0
AnchorPoint: "Anchor-0" 280 1697 basechar 0
LayerCount: 2
Fore
SplineSet
523 930 m 1,0,-1
 523 808 l 1,1,-1
 364 747 l 1,2,-1
 364 0 l 1,3,-1
 179 0 l 1,4,-1
 179 676 l 1,5,-1
 35 621 l 1,6,-1
 35 743 l 1,7,-1
 179 798 l 1,8,-1
 179 1536 l 1,9,-1
 364 1536 l 1,10,-1
 364 869 l 1,11,-1
 523 930 l 1,0,-1
EndSplineSet
Substitution2: "'smcp' Lowercase to Small Capitals lookup 1 subtable" Lslash.smcp
EndChar

StartChar: m
Encoding: 109 109 487
Width: 1796
GlyphClass: 2
Flags: W
AnchorPoint: "Anchor-1" 897 10 basechar 0
AnchorPoint: "Anchor-0" 911 1290 basechar 0
LayerCount: 2
Fore
SplineSet
574 946 m 0,0,1
 475 946 475 946 415 904 c 128,-1,2
 355 862 355 862 325 793 c 1,3,-1
 325 0 l 1,4,-1
 139 0 l 1,5,-1
 139 1082 l 1,6,-1
 315 1082 l 1,7,-1
 320 964 l 1,8,9
 375 1029 375 1029 455 1065.5 c 128,-1,10
 535 1102 535 1102 640 1102 c 0,11,12
 744 1102 744 1102 825.5 1060.5 c 128,-1,13
 907 1019 907 1019 950 928 c 1,14,15
 1004 1006 1004 1006 1090.5 1054 c 128,-1,16
 1177 1102 1177 1102 1294 1102 c 0,17,18
 1468 1102 1468 1102 1562.5 1009 c 128,-1,19
 1657 916 1657 916 1657 711 c 2,20,-1
 1657 0 l 1,21,-1
 1471 0 l 1,22,-1
 1471 713 l 2,23,24
 1471 849 1471 849 1408.5 897.5 c 128,-1,25
 1346 946 1346 946 1240 946 c 0,26,27
 1128 946 1128 946 1064 879.5 c 128,-1,28
 1000 813 1000 813 990 718 c 1,29,-1
 990 0 l 1,30,-1
 805 0 l 1,31,-1
 805 712 l 2,32,33
 805 839 805 839 742 892.5 c 128,-1,34
 679 946 679 946 574 946 c 0,0,1
EndSplineSet
Substitution2: "'unic' Unicase lookup 2 subtable" M.unic
Substitution2: "'smcp' Lowercase to Small Capitals lookup 1 subtable" M.smcp
EndChar

StartChar: macron
Encoding: 175 175 488
Width: 939
GlyphClass: 2
Flags: W
LayerCount: 2
Fore
SplineSet
814 1445 m 1,0,-1
 814 1303 l 1,1,-1
 143 1303 l 1,2,-1
 143 1445 l 1,3,-1
 814 1445 l 1,0,-1
EndSplineSet
EndChar

StartChar: mu
Encoding: 181 181 491
Width: 1161
GlyphClass: 2
Flags: W
LayerCount: 2
Fore
SplineSet
155 1082 m 1,0,-1
 339 1082 l 1,1,-1
 339 460 l 2,2,3
 339 323 339 323 369 252 c 128,-1,4
 399 181 399 181 449 156 c 128,-1,5
 499 131 499 131 560 131 c 0,6,7
 669 131 669 131 730.5 172 c 128,-1,8
 792 213 792 213 821 284 c 1,9,-1
 821 1082 l 1,10,-1
 1006 1082 l 1,11,-1
 1006 0 l 1,12,-1
 839 0 l 1,13,-1
 831 115 l 1,14,15
 788 51 788 51 722.5 15 c 128,-1,16
 657 -21 657 -21 568 -21 c 0,17,18
 420 -21 420 -21 339 53 c 1,19,-1
 339 -416 l 1,20,-1
 155 -416 l 1,21,-1
 155 1082 l 1,0,-1
EndSplineSet
EndChar

StartChar: multiply
Encoding: 215 215 492
Width: 1028
GlyphClass: 2
Flags: W
LayerCount: 2
Fore
SplineSet
407 515 m 1,0,-1
 142 786 l 1,1,-1
 247 896 l 1,2,-1
 514 624 l 1,3,-1
 781 896 l 1,4,-1
 886 786 l 1,5,-1
 621 515 l 1,6,-1
 888 243 l 1,7,-1
 782 133 l 1,8,-1
 514 406 l 1,9,-1
 246 133 l 1,10,-1
 140 243 l 1,11,-1
 407 515 l 1,0,-1
EndSplineSet
EndChar

StartChar: n
Encoding: 110 110 493
Width: 1131
GlyphClass: 2
Flags: W
AnchorPoint: "Anchor-1" 563 10 basechar 0
AnchorPoint: "Anchor-0" 573 1290 basechar 0
LayerCount: 2
Fore
SplineSet
590 946 m 0,0,1
 501 946 501 946 433 898 c 128,-1,2
 365 850 365 850 326 773 c 1,3,-1
 326 0 l 1,4,-1
 141 0 l 1,5,-1
 141 1082 l 1,6,-1
 316 1082 l 1,7,-1
 322 947 l 1,8,9
 380 1020 380 1020 462 1061 c 128,-1,10
 544 1102 544 1102 645 1102 c 0,11,12
 805 1102 805 1102 898.5 1012 c 128,-1,13
 992 922 992 922 992 709 c 2,14,-1
 992 0 l 1,15,-1
 806 0 l 1,16,-1
 806 711 l 2,17,18
 806 838 806 838 750.5 892 c 128,-1,19
 695 946 695 946 590 946 c 0,0,1
EndSplineSet
Substitution2: "'unic' Unicase lookup 2 subtable" N.unic
Substitution2: "'smcp' Lowercase to Small Capitals lookup 1 subtable" N.smcp
EndChar

StartChar: naira
Encoding: 8358 8358 495
Width: 1622
GlyphClass: 2
Flags: W
LayerCount: 2
Fore
SplineSet
1591 641 m 1,0,-1
 1591 489 l 1,1,-1
 1367 489 l 1,2,-1
 1367 0 l 1,3,-1
 1174 0 l 1,4,-1
 855 489 l 1,5,-1
 441 489 l 1,6,-1
 441 0 l 1,7,-1
 248 0 l 1,8,-1
 248 489 l 1,9,-1
 31 489 l 1,10,-1
 31 641 l 1,11,-1
 248 641 l 1,12,-1
 248 789 l 1,13,-1
 31 789 l 1,14,-1
 31 941 l 1,15,-1
 248 941 l 1,16,-1
 248 1456 l 1,17,-1
 441 1456 l 1,18,-1
 778 941 l 1,19,-1
 1177 941 l 1,20,-1
 1177 1456 l 1,21,-1
 1367 1456 l 1,22,-1
 1367 941 l 1,23,-1
 1591 941 l 1,24,-1
 1591 789 l 1,25,-1
 1367 789 l 1,26,-1
 1367 641 l 1,27,-1
 1591 641 l 1,0,-1
441 1123 m 1,28,-1
 441 941 l 1,29,-1
 560 941 l 1,30,-1
 441 1123 l 1,28,-1
441 641 m 1,31,-1
 756 641 l 1,32,-1
 659 789 l 1,33,-1
 441 789 l 1,34,-1
 441 641 l 1,31,-1
974 641 m 1,35,-1
 1177 641 l 1,36,-1
 1177 789 l 1,37,-1
 877 789 l 1,38,-1
 974 641 l 1,35,-1
1177 330 m 1,39,-1
 1177 489 l 1,40,-1
 1073 489 l 1,41,-1
 1177 330 l 1,39,-1
EndSplineSet
EndChar

StartChar: nine
Encoding: 57 57 500
Width: 1151
GlyphClass: 2
Flags: W
LayerCount: 2
Fore
SplineSet
305 155 m 1,0,-1
 324 155 l 2,1,2
 475 155 475 155 572 195 c 128,-1,3
 669 235 669 235 724.5 304 c 128,-1,4
 780 373 780 373 803.5 460 c 128,-1,5
 827 547 827 547 831 642 c 1,6,7
 773 573 773 573 692 530 c 128,-1,8
 611 487 611 487 516 487 c 0,9,10
 372 487 372 487 280 559 c 128,-1,11
 188 631 188 631 144 742.5 c 128,-1,12
 100 854 100 854 100 973 c 0,13,14
 100 1112 100 1112 151 1226 c 128,-1,15
 202 1340 202 1340 303 1408 c 128,-1,16
 404 1476 404 1476 552 1476 c 0,17,18
 677 1476 677 1476 765 1426 c 128,-1,19
 853 1376 853 1376 908.5 1292 c 128,-1,20
 964 1208 964 1208 990 1103 c 128,-1,21
 1016 998 1016 998 1016 887 c 2,22,-1
 1016 820 l 2,23,24
 1016 707 1016 707 1001.5 590.5 c 128,-1,25
 987 474 987 474 946.5 368 c 128,-1,26
 906 262 906 262 829 178.5 c 128,-1,27
 752 95 752 95 628.5 46.5 c 128,-1,28
 505 -2 505 -2 324 -2 c 2,29,-1
 305 -2 l 1,30,-1
 305 155 l 1,0,-1
282 983 m 0,31,32
 282 897 282 897 311 818.5 c 128,-1,33
 340 740 340 740 398.5 690.5 c 128,-1,34
 457 641 457 641 546 641 c 0,35,36
 641 641 641 641 718.5 698 c 128,-1,37
 796 755 796 755 832 839 c 1,38,-1
 832 912 l 2,39,40
 832 1045 832 1045 793 1136.5 c 128,-1,41
 754 1228 754 1228 690 1275.5 c 128,-1,42
 626 1323 626 1323 552 1323 c 0,43,44
 423 1323 423 1323 352.5 1226 c 128,-1,45
 282 1129 282 1129 282 983 c 0,31,32
EndSplineSet
Substitution2: "'ss01' Style Set 1 lookup 35 subtable" uni06F9
Substitution2: "'numr' Numerators lookup 21 subtable" nine.frac
Substitution2: "'dnom' Denominators lookup 20 subtable" nine.sup
Substitution2: "'frac' Diagonal Fractions lookup 19 subtable" nine.frac
Substitution2: "Single Substitution lookup 18 subtable" nine.sup
Substitution2: "'onum' Oldstyle Figures lookup 14 subtable" nine.tnum
Substitution2: "'c2sc' Capitals to Small Capitals lookup 0 subtable" nine.smcp
Position2: "'cpsp' Capital Spacing lookup 0 subtable" dx=36 dy=0 dh=72 dv=0
EndChar

StartChar: nine.onum
Encoding: 65752 -1 502
Width: 1210
GlyphClass: 1
Flags: W
LayerCount: 2
Fore
SplineSet
480 -192 m 0,0,1
 647 -192 647 -192 760.5 -76 c 128,-1,2
 874 40 874 40 897 270 c 1,3,4
 780 166 780 166 596 166 c 0,5,6
 452 166 452 166 347.5 230.5 c 128,-1,7
 243 295 243 295 186.5 408.5 c 128,-1,8
 130 522 130 522 130 668 c 0,9,10
 130 835 130 835 192 950 c 128,-1,11
 254 1065 254 1065 358.5 1125 c 128,-1,12
 463 1185 463 1185 590 1185 c 0,13,14
 738 1185 738 1185 850 1123.5 c 128,-1,15
 962 1062 962 1062 1025 936.5 c 128,-1,16
 1088 811 1088 811 1088 620 c 2,17,-1
 1088 378 l 2,18,19
 1088 142 1088 142 1010.5 -18.5 c 128,-1,20
 933 -179 933 -179 799.5 -261 c 128,-1,21
 666 -343 666 -343 498 -343 c 0,22,23
 432 -343 432 -343 358 -329 c 128,-1,24
 284 -315 284 -315 220 -284 c 1,25,-1
 258 -142 l 1,26,27
 308 -161 308 -161 362 -176.5 c 128,-1,28
 416 -192 416 -192 480 -192 c 0,0,1
316 668 m 0,29,30
 316 576 316 576 351 495.5 c 128,-1,31
 386 415 386 415 450.5 366 c 128,-1,32
 515 317 515 317 605 317 c 0,33,34
 727 317 727 317 800.5 370 c 128,-1,35
 874 423 874 423 902 491 c 1,36,-1
 902 640 l 2,37,38
 902 836 902 836 821.5 935 c 128,-1,39
 741 1034 741 1034 595 1034 c 0,40,41
 477 1034 477 1034 396.5 942 c 128,-1,42
 316 850 316 850 316 668 c 0,29,30
EndSplineSet
EndChar

StartChar: nine.smcp
Encoding: 65753 -1 503
Width: 1040
GlyphClass: 2
Flags: W
LayerCount: 2
Fore
SplineSet
274 147 m 1,0,-1
 292 147 l 2,1,2
 450 147 450 147 545 192 c 128,-1,3
 640 237 640 237 684.5 315 c 128,-1,4
 729 393 729 393 736 493 c 1,5,6
 693 446 693 446 624.5 414 c 128,-1,7
 556 382 556 382 464 382 c 0,8,9
 336 382 336 382 252 436.5 c 128,-1,10
 168 491 168 491 127 580.5 c 128,-1,11
 86 670 86 670 86 774 c 0,12,13
 86 886 86 886 134 978 c 128,-1,14
 182 1070 182 1070 275 1125.5 c 128,-1,15
 368 1181 368 1181 501 1181 c 0,16,17
 646 1181 646 1181 739.5 1117.5 c 128,-1,18
 833 1054 833 1054 878 946.5 c 128,-1,19
 923 839 923 839 923 707 c 2,20,-1
 923 639 l 2,21,22
 923 509 923 509 893.5 392.5 c 128,-1,23
 864 276 864 276 793.5 186 c 128,-1,24
 723 96 723 96 600.5 44.5 c 128,-1,25
 478 -7 478 -7 292 -7 c 2,26,-1
 273 -7 l 1,27,-1
 274 147 l 1,0,-1
269 777 m 0,28,29
 269 680 269 680 325.5 604.5 c 128,-1,30
 382 529 382 529 497 529 c 0,31,32
 581 529 581 529 645.5 571 c 128,-1,33
 710 613 710 613 738 673 c 1,34,-1
 738 739 l 2,35,36
 738 881 738 881 667 954.5 c 128,-1,37
 596 1028 596 1028 501 1028 c 0,38,39
 391 1028 391 1028 330 953.5 c 128,-1,40
 269 879 269 879 269 777 c 0,28,29
EndSplineSet
EndChar

StartChar: nine.sup
Encoding: 65754 -1 504
Width: 751
GlyphClass: 2
Flags: W
LayerCount: 2
Fore
SplineSet
209 120 m 1,0,-1
 223 120 l 2,1,2
 359 120 359 120 426 169 c 128,-1,3
 493 218 493 218 503 321 c 1,4,5
 472 292 472 292 428.5 273.5 c 128,-1,6
 385 255 385 255 333 255 c 0,7,8
 206 255 206 255 140 328.5 c 128,-1,9
 74 402 74 402 74 519 c 0,10,11
 74 596 74 596 109.5 659.5 c 128,-1,12
 145 723 145 723 210.5 761.5 c 128,-1,13
 276 800 276 800 366 800 c 0,14,15
 506 800 506 800 583.5 715 c 128,-1,16
 661 630 661 630 661 478 c 2,17,-1
 661 427 l 2,18,19
 661 218 661 218 555 105.5 c 128,-1,20
 449 -7 449 -7 224 -7 c 2,21,-1
 209 -7 l 1,22,-1
 209 120 l 1,0,-1
230 519 m 0,23,24
 230 459 230 459 265 418 c 128,-1,25
 300 377 300 377 368 377 c 0,26,27
 418 377 418 377 453.5 398.5 c 128,-1,28
 489 420 489 420 505 449 c 1,29,-1
 505 508 l 2,30,31
 505 591 505 591 465 631 c 128,-1,32
 425 671 425 671 366 671 c 0,33,34
 302 671 302 671 266 626 c 128,-1,35
 230 581 230 581 230 519 c 0,23,24
EndSplineSet
EndChar

StartChar: notequal
Encoding: 8800 8800 506
Width: 1124
GlyphClass: 2
Flags: W
LayerCount: 2
Fore
SplineSet
986 560 m 1,0,-1
 986 399 l 1,1,-1
 456 399 l 1,2,-1
 314 156 l 1,3,-1
 219 215 l 1,4,-1
 326 399 l 1,5,-1
 152 399 l 1,6,-1
 152 560 l 1,7,-1
 421 560 l 1,8,-1
 569 814 l 1,9,-1
 152 814 l 1,10,-1
 152 975 l 1,11,-1
 663 975 l 1,12,-1
 816 1237 l 1,13,-1
 911 1178 l 1,14,-1
 792 975 l 1,15,-1
 986 975 l 1,16,-1
 986 814 l 1,17,-1
 698 814 l 1,18,-1
 550 560 l 1,19,-1
 986 560 l 1,0,-1
EndSplineSet
EndChar

StartChar: nsuperior
Encoding: 8319 8319 507
Width: 865
GlyphClass: 2
Flags: W
LayerCount: 2
Fore
SplineSet
446 1322 m 0,0,1
 388 1322 388 1322 350 1292.5 c 128,-1,2
 312 1263 312 1263 292 1214 c 1,3,-1
 292 651 l 1,4,-1
 122 651 l 1,5,-1
 122 1451 l 1,6,-1
 251 1451 l 1,7,-1
 280 1328 l 1,8,9
 316 1393 316 1393 372 1429.5 c 128,-1,10
 428 1466 428 1466 501 1466 c 0,11,12
 620 1466 620 1466 690.5 1393.5 c 128,-1,13
 761 1321 761 1321 761 1159 c 2,14,-1
 761 651 l 1,15,-1
 591 651 l 1,16,-1
 591 1127 l 2,17,18
 591 1236 591 1236 551 1279 c 128,-1,19
 511 1322 511 1322 446 1322 c 0,0,1
EndSplineSet
EndChar

StartChar: numbersign
Encoding: 35 35 509
Width: 1261
GlyphClass: 2
Flags: W
LayerCount: 2
Fore
SplineSet
279 0 m 1,0,-1
 359 410 l 1,1,-1
 119 410 l 1,2,-1
 119 548 l 1,3,-1
 386 548 l 1,4,-1
 454 901 l 1,5,-1
 195 901 l 1,6,-1
 195 1040 l 1,7,-1
 481 1040 l 1,8,-1
 562 1456 l 1,9,-1
 706 1456 l 1,10,-1
 625 1040 l 1,11,-1
 889 1040 l 1,12,-1
 970 1456 l 1,13,-1
 1113 1456 l 1,14,-1
 1032 1040 l 1,15,-1
 1235 1040 l 1,16,-1
 1235 901 l 1,17,-1
 1005 901 l 1,18,-1
 936 548 l 1,19,-1
 1160 548 l 1,20,-1
 1160 410 l 1,21,-1
 909 410 l 1,22,-1
 829 0 l 1,23,-1
 686 0 l 1,24,-1
 766 410 l 1,25,-1
 502 410 l 1,26,-1
 422 0 l 1,27,-1
 279 0 l 1,0,-1
529 548 m 1,28,-1
 793 548 l 1,29,-1
 862 901 l 1,30,-1
 598 901 l 1,31,-1
 529 548 l 1,28,-1
EndSplineSet
EndChar

StartChar: o
Encoding: 111 111 510
Width: 1168
GlyphClass: 2
Flags: W
AnchorPoint: "Anchor-1" 584 -1 basechar 0
AnchorPoint: "Anchor-0" 575 1290 basechar 0
LayerCount: 2
Fore
SplineSet
92 529 m 2,0,-1
 92 552 l 2,1,2
 92 709 92 709 152 833 c 128,-1,3
 212 957 212 957 322 1029.5 c 128,-1,4
 432 1102 432 1102 583 1102 c 0,5,6
 736 1102 736 1102 846.5 1029.5 c 128,-1,7
 957 957 957 957 1017 833 c 128,-1,8
 1077 709 1077 709 1077 552 c 2,9,-1
 1077 529 l 2,10,11
 1077 373 1077 373 1017 248.5 c 128,-1,12
 957 124 957 124 847 52 c 128,-1,13
 737 -20 737 -20 585 -20 c 256,14,15
 433 -20 433 -20 322.5 52 c 128,-1,16
 212 124 212 124 152 248.5 c 128,-1,17
 92 373 92 373 92 529 c 2,0,-1
277 552 m 2,18,-1
 277 529 l 2,19,20
 277 422 277 422 311 331.5 c 128,-1,21
 345 241 345 241 413.5 186.5 c 128,-1,22
 482 132 482 132 585 132 c 0,23,24
 687 132 687 132 755 186.5 c 128,-1,25
 823 241 823 241 857 331.5 c 128,-1,26
 891 422 891 422 891 529 c 2,27,-1
 891 552 l 2,28,29
 891 658 891 658 856.5 748.5 c 128,-1,30
 822 839 822 839 754 894.5 c 128,-1,31
 686 950 686 950 583 950 c 0,32,33
 481 950 481 950 413 894.5 c 128,-1,34
 345 839 345 839 311 748.5 c 128,-1,35
 277 658 277 658 277 552 c 2,18,-1
EndSplineSet
Substitution2: "'unic' Unicase lookup 2 subtable" O
Substitution2: "'smcp' Lowercase to Small Capitals lookup 1 subtable" O.smcp
EndChar

StartChar: oe
Encoding: 339 339 515
Width: 1860
GlyphClass: 2
Flags: W
AnchorPoint: "Anchor-1" 945 -1 basechar 0
AnchorPoint: "Anchor-0" 945 1290 basechar 0
LayerCount: 2
Fore
SplineSet
97 529 m 2,0,-1
 97 552 l 2,1,2
 97 709 97 709 155 833 c 128,-1,3
 213 957 213 957 321 1029.5 c 128,-1,4
 429 1102 429 1102 579 1102 c 0,5,6
 715 1102 715 1102 816 1044 c 128,-1,7
 917 986 917 986 978 886 c 1,8,9
 1043 987 1043 987 1141.5 1045 c 128,-1,10
 1240 1103 1240 1103 1351 1102 c 0,11,12
 1500 1102 1500 1102 1598 1040.5 c 128,-1,13
 1696 979 1696 979 1744 870 c 128,-1,14
 1792 761 1792 761 1792 620 c 2,15,-1
 1792 498 l 1,16,-1
 1075 498 l 1,17,18
 1079 396 1079 396 1114 312.5 c 128,-1,19
 1149 229 1149 229 1215.5 180 c 128,-1,20
 1282 131 1282 131 1379 131 c 0,21,22
 1489 131 1489 131 1563.5 162.5 c 128,-1,23
 1638 194 1638 194 1688 239 c 1,24,-1
 1761 113 l 1,25,26
 1712 65 1712 65 1619 22 c 128,-1,27
 1526 -21 1526 -21 1379 -21 c 0,28,29
 1245 -21 1245 -21 1142 36 c 128,-1,30
 1039 93 1039 93 976 192 c 1,31,32
 915 94 915 94 815 36.5 c 128,-1,33
 715 -21 715 -21 581 -21 c 0,34,35
 430 -21 430 -21 321.5 51.5 c 128,-1,36
 213 124 213 124 155 248.5 c 128,-1,37
 97 373 97 373 97 529 c 2,0,-1
1351 950 m 0,38,39
 1246 950 1246 950 1173.5 864.5 c 128,-1,40
 1101 779 1101 779 1081 649 c 1,41,-1
 1607 649 l 1,42,-1
 1607 675 l 2,43,44
 1607 748 1607 748 1580 810.5 c 128,-1,45
 1553 873 1553 873 1496.5 911.5 c 128,-1,46
 1440 950 1440 950 1351 950 c 0,38,39
283 552 m 2,47,-1
 283 529 l 2,48,49
 283 422 283 422 315 331 c 128,-1,50
 347 240 347 240 412.5 185.5 c 128,-1,51
 478 131 478 131 581 131 c 0,52,53
 683 131 683 131 749 185.5 c 128,-1,54
 815 240 815 240 847 331 c 128,-1,55
 879 422 879 422 879 529 c 2,56,-1
 879 552 l 2,57,58
 879 658 879 658 847 748.5 c 128,-1,59
 815 839 815 839 748.5 894.5 c 128,-1,60
 682 950 682 950 579 950 c 0,61,62
 478 950 478 950 412 894.5 c 128,-1,63
 346 839 346 839 314.5 748.5 c 128,-1,64
 283 658 283 658 283 552 c 2,47,-1
EndSplineSet
Substitution2: "'unic' Unicase lookup 2 subtable" OE
Substitution2: "'smcp' Lowercase to Small Capitals lookup 1 subtable" OE.smcp
EndChar

StartChar: ogonek
Encoding: 731 731 516
Width: 555
GlyphClass: 2
Flags: W
LayerCount: 2
Fore
SplineSet
308 57 m 1,0,-1
 382 0 l 1,1,2
 318 -48 318 -48 264.5 -102.5 c 128,-1,3
 211 -157 211 -157 211 -222 c 0,4,5
 211 -255 211 -255 228.5 -275 c 128,-1,6
 246 -295 246 -295 289 -295 c 0,7,8
 322 -295 322 -295 348 -285.5 c 128,-1,9
 374 -276 374 -276 389 -268 c 1,10,-1
 403 -390 l 1,11,12
 378 -405 378 -405 339.5 -419.5 c 128,-1,13
 301 -434 301 -434 242 -434 c 0,14,15
 161 -434 161 -434 105.5 -385.5 c 128,-1,16
 50 -337 50 -337 50 -243 c 0,17,18
 50 -163 50 -163 111 -84.5 c 128,-1,19
 172 -6 172 -6 308 57 c 1,0,-1
EndSplineSet
EndChar

StartChar: ohorn
Encoding: 417 417 518
Width: 1171
GlyphClass: 2
Flags: W
AnchorPoint: "Anchor-1" 502 0 basechar 0
AnchorPoint: "Anchor-0" 582 1290 basechar 0
LayerCount: 2
Fore
SplineSet
92 529 m 2,0,-1
 92 552 l 2,1,2
 92 709 92 709 152 833 c 128,-1,3
 212 957 212 957 322 1029.5 c 128,-1,4
 432 1102 432 1102 583 1102 c 0,5,6
 690 1102 690 1102 776.5 1065.5 c 128,-1,7
 863 1029 863 1029 926 964 c 1,8,9
 1013 975 1013 975 1037 1039 c 128,-1,10
 1061 1103 1061 1103 1061 1201 c 1,11,-1
 1210 1201 l 1,12,13
 1210 1065 1210 1065 1163.5 976 c 128,-1,14
 1117 887 1117 887 1003 859 c 1,15,16
 1076 726 1076 726 1076 552 c 2,17,-1
 1076 529 l 2,18,19
 1076 373 1076 373 1016.5 248.5 c 128,-1,20
 957 124 957 124 847 52 c 128,-1,21
 737 -20 737 -20 585 -20 c 256,22,23
 433 -20 433 -20 322.5 52 c 128,-1,24
 212 124 212 124 152 248.5 c 128,-1,25
 92 373 92 373 92 529 c 2,0,-1
277 552 m 2,26,-1
 277 529 l 2,27,28
 277 422 277 422 311 331.5 c 128,-1,29
 345 241 345 241 413.5 186.5 c 128,-1,30
 482 132 482 132 585 132 c 0,31,32
 687 132 687 132 755 186.5 c 128,-1,33
 823 241 823 241 857 331.5 c 128,-1,34
 891 422 891 422 891 529 c 2,35,-1
 891 552 l 2,36,37
 891 658 891 658 856.5 748.5 c 128,-1,38
 822 839 822 839 754 894.5 c 128,-1,39
 686 950 686 950 583 950 c 0,40,41
 481 950 481 950 413 894.5 c 128,-1,42
 345 839 345 839 311 748.5 c 128,-1,43
 277 658 277 658 277 552 c 2,26,-1
EndSplineSet
EndChar

StartChar: one
Encoding: 49 49 521
Width: 1151
GlyphClass: 2
Flags: W
LayerCount: 2
Fore
SplineSet
729 1464 m 1,0,-1
 729 0 l 1,1,-1
 544 0 l 1,2,-1
 544 1233 l 1,3,-1
 171 1097 l 1,4,-1
 171 1264 l 1,5,-1
 700 1464 l 1,6,-1
 729 1464 l 1,0,-1
EndSplineSet
Substitution2: "'ss01' Style Set 1 lookup 35 subtable" uni06F1
Substitution2: "'numr' Numerators lookup 21 subtable" onesuperior
Substitution2: "'dnom' Denominators lookup 20 subtable" one.sup
Substitution2: "'frac' Diagonal Fractions lookup 19 subtable" onesuperior
Substitution2: "Single Substitution lookup 18 subtable" one.sup
Substitution2: "'onum' Oldstyle Figures lookup 14 subtable" one.tnum
Substitution2: "'c2sc' Capitals to Small Capitals lookup 0 subtable" one.smcp
Position2: "'cpsp' Capital Spacing lookup 0 subtable" dx=36 dy=0 dh=72 dv=0
EndChar

StartChar: one.onum
Encoding: 65756 -1 522
Width: 981
GlyphClass: 1
Flags: W
LayerCount: 2
Fore
SplineSet
713 1165 m 1,0,-1
 713 0 l 1,1,-1
 528 0 l 1,2,-1
 528 935 l 1,3,-1
 160 796 l 1,4,-1
 160 963 l 1,5,-1
 682 1165 l 1,6,-1
 713 1165 l 1,0,-1
EndSplineSet
EndChar

StartChar: one.smcp
Encoding: 65757 -1 523
Width: 1040
GlyphClass: 2
Flags: W
LayerCount: 2
Fore
SplineSet
670 1168 m 1,0,-1
 670 0 l 1,1,-1
 484 0 l 1,2,-1
 484 943 l 1,3,-1
 153 845 l 1,4,-1
 153 1003 l 1,5,-1
 644 1168 l 1,6,-1
 670 1168 l 1,0,-1
EndSplineSet
EndChar

StartChar: one.sup
Encoding: 65758 -1 524
Width: 751
GlyphClass: 2
Flags: W
LayerCount: 2
Fore
SplineSet
495 789 m 1,0,-1
 495 0 l 1,1,-1
 339 0 l 1,2,-1
 339 601 l 1,3,-1
 123 544 l 1,4,-1
 123 673 l 1,5,-1
 477 789 l 1,6,-1
 495 789 l 1,0,-1
EndSplineSet
EndChar

StartChar: onesuperior
Encoding: 185 185 529
Width: 751
GlyphClass: 2
Flags: W
LayerCount: 2
Fore
SplineSet
495 1456 m 1,0,-1
 495 667 l 1,1,-1
 339 667 l 1,2,-1
 339 1268 l 1,3,-1
 123 1211 l 1,4,-1
 123 1340 l 1,5,-1
 477 1456 l 1,6,-1
 495 1456 l 1,0,-1
EndSplineSet
EndChar

StartChar: ordfeminine
Encoding: 170 170 530
Width: 916
GlyphClass: 2
Flags: W
LayerCount: 2
Fore
SplineSet
619 706 m 1,0,1
 608 741 608 741 602 778 c 1,2,3
 570 744 570 744 519 718 c 128,-1,4
 468 692 468 692 396 692 c 0,5,6
 276 692 276 692 211.5 753.5 c 128,-1,7
 147 815 147 815 147 918 c 0,8,9
 147 1028 147 1028 231.5 1088.5 c 128,-1,10
 316 1149 316 1149 486 1149 c 2,11,-1
 595 1149 l 1,12,-1
 595 1202 l 2,13,14
 595 1336 595 1336 471 1336 c 0,15,16
 402 1336 402 1336 362.5 1309.5 c 128,-1,17
 323 1283 323 1283 323 1231 c 1,18,-1
 162 1244 l 1,19,20
 162 1345 162 1345 246.5 1411 c 128,-1,21
 331 1477 331 1477 471 1477 c 0,22,23
 600 1477 600 1477 679 1407.5 c 128,-1,24
 758 1338 758 1338 758 1201 c 2,25,-1
 758 887 l 2,26,27
 758 838 758 838 764 794 c 128,-1,28
 770 750 770 750 784 706 c 1,29,-1
 619 706 l 1,0,1
435 829 m 0,30,31
 479 829 479 829 523.5 849.5 c 128,-1,32
 568 870 568 870 595 897 c 1,33,-1
 595 1038 l 1,34,-1
 487 1038 l 2,35,36
 396 1038 396 1038 353 1003.5 c 128,-1,37
 310 969 310 969 310 922 c 0,38,39
 310 829 310 829 435 829 c 0,30,31
EndSplineSet
EndChar

StartChar: ordmasculine
Encoding: 186 186 531
Width: 932
GlyphClass: 2
Flags: W
LayerCount: 2
Fore
SplineSet
123 1043 m 2,0,-1
 123 1124 l 2,1,2
 123 1279 123 1279 215.5 1378 c 128,-1,3
 308 1477 308 1477 465 1477 c 0,4,5
 624 1477 624 1477 715.5 1378 c 128,-1,6
 807 1279 807 1279 807 1124 c 2,7,-1
 807 1043 l 2,8,9
 807 889 807 889 716 790 c 128,-1,10
 625 691 625 691 467 691 c 0,11,12
 308 691 308 691 215.5 790 c 128,-1,13
 123 889 123 889 123 1043 c 2,0,-1
286 1124 m 2,14,-1
 286 1043 l 2,15,16
 286 952 286 952 330.5 891 c 128,-1,17
 375 830 375 830 467 830 c 0,18,19
 556 830 556 830 600.5 891 c 128,-1,20
 645 952 645 952 645 1043 c 2,21,-1
 645 1124 l 2,22,23
 645 1213 645 1213 600.5 1274.5 c 128,-1,24
 556 1336 556 1336 465 1336 c 256,25,26
 374 1336 374 1336 330 1274.5 c 128,-1,27
 286 1213 286 1213 286 1124 c 2,14,-1
EndSplineSet
EndChar

StartChar: oslash
Encoding: 248 248 532
Width: 1161
GlyphClass: 2
Flags: W
AnchorPoint: "Anchor-0" 537 1289 basechar 0
LayerCount: 2
Fore
SplineSet
92 529 m 2,0,-1
 92 552 l 2,1,2
 92 709 92 709 152 833 c 128,-1,3
 212 957 212 957 322 1029.5 c 128,-1,4
 432 1102 432 1102 583 1102 c 0,5,6
 694 1102 694 1102 787 1061 c 1,7,-1
 860 1209 l 1,8,-1
 983 1209 l 1,9,-1
 882 1004 l 1,10,11
 975 930 975 930 1025.5 812.5 c 128,-1,12
 1076 695 1076 695 1076 552 c 2,13,-1
 1076 529 l 2,14,15
 1076 373 1076 373 1016.5 248.5 c 128,-1,16
 957 124 957 124 847 52 c 128,-1,17
 737 -20 737 -20 585 -20 c 0,18,19
 482 -20 482 -20 394 16 c 1,20,-1
 320 -135 l 1,21,-1
 197 -135 l 1,22,-1
 298 69 l 1,23,24
 200 142 200 142 146 261.5 c 128,-1,25
 92 381 92 381 92 529 c 2,0,-1
277 552 m 2,26,-1
 277 529 l 2,27,28
 277 438 277 438 301 358.5 c 128,-1,29
 325 279 325 279 374 224 c 1,30,-1
 717 918 l 1,31,32
 657 950 657 950 583 950 c 0,33,34
 481 950 481 950 413 894.5 c 128,-1,35
 345 839 345 839 311 748.5 c 128,-1,36
 277 658 277 658 277 552 c 2,26,-1
891 552 m 2,37,38
 891 637 891 637 869 713 c 128,-1,39
 847 789 847 789 803 845 c 1,40,-1
 464 157 l 1,41,42
 519 132 519 132 585 132 c 0,43,44
 687 132 687 132 755 186.5 c 128,-1,45
 823 241 823 241 857 331.5 c 128,-1,46
 891 422 891 422 891 529 c 2,47,-1
 891 552 l 2,37,38
EndSplineSet
Substitution2: "'unic' Unicase lookup 2 subtable" Oslash
Substitution2: "'smcp' Lowercase to Small Capitals lookup 1 subtable" Oslash.smcp
EndChar

StartChar: p
Encoding: 112 112 535
Width: 1150
GlyphClass: 2
Flags: W
AnchorPoint: "Anchor-1" 231 -407 basechar 0
AnchorPoint: "Anchor-0" 629 1280 basechar 0
LayerCount: 2
Fore
SplineSet
1055 550 m 2,0,-1
 1055 529 l 2,1,2
 1055 371 1055 371 1006 247 c 128,-1,3
 957 123 957 123 863 51.5 c 128,-1,4
 769 -20 769 -20 635 -20 c 0,5,6
 535 -20 535 -20 458 12.5 c 128,-1,7
 381 45 381 45 326 105 c 1,8,-1
 326 -416 l 1,9,-1
 140 -416 l 1,10,-1
 140 1082 l 1,11,-1
 310 1082 l 1,12,-1
 319 963 l 1,13,14
 374 1030 374 1030 452 1066 c 128,-1,15
 530 1102 530 1102 632 1102 c 0,16,17
 769 1102 769 1102 863 1033 c 128,-1,18
 957 964 957 964 1006 839.5 c 128,-1,19
 1055 715 1055 715 1055 550 c 2,0,-1
869 529 m 2,20,-1
 869 550 l 2,21,22
 869 658 869 658 838.5 748 c 128,-1,23
 808 838 808 838 743.5 892 c 128,-1,24
 679 946 679 946 578 946 c 0,25,26
 484 946 484 946 423 903.5 c 128,-1,27
 362 861 362 861 326 797 c 1,28,-1
 326 279 l 1,29,30
 363 215 363 215 423.5 173.5 c 128,-1,31
 484 132 484 132 580 132 c 0,32,33
 680 132 680 132 744 186.5 c 128,-1,34
 808 241 808 241 838.5 331.5 c 128,-1,35
 869 422 869 422 869 529 c 2,20,-1
EndSplineSet
Substitution2: "'unic' Unicase lookup 2 subtable" P
Substitution2: "'smcp' Lowercase to Small Capitals lookup 1 subtable" P.smcp
EndChar

StartChar: paragraph
Encoding: 182 182 536
Width: 1002
GlyphClass: 2
Flags: W
LayerCount: 2
Fore
SplineSet
833 0 m 1,0,-1
 647 0 l 1,1,-1
 647 520 l 1,2,-1
 560 520 l 2,3,4
 401 520 401 520 291 580.5 c 128,-1,5
 181 641 181 641 124.5 747 c 128,-1,6
 68 853 68 853 68 988 c 0,7,8
 68 1122 68 1122 124.5 1228 c 128,-1,9
 181 1334 181 1334 291 1395 c 128,-1,10
 401 1456 401 1456 560 1456 c 2,11,-1
 833 1456 l 1,12,-1
 833 0 l 1,0,-1
EndSplineSet
EndChar

StartChar: parenleft
Encoding: 40 40 537
Width: 700
GlyphClass: 2
Flags: W
LayerCount: 2
Fore
SplineSet
312 591 m 256,0,1
 312 403 312 403 352 222.5 c 128,-1,2
 392 42 392 42 469.5 -105 c 128,-1,3
 547 -252 547 -252 661 -339 c 1,4,-1
 623 -461 l 1,5,6
 512 -401 512 -401 422 -294 c 128,-1,7
 332 -187 332 -187 267.5 -46.5 c 128,-1,8
 203 94 203 94 168 257 c 128,-1,9
 133 420 133 420 133 591 c 256,10,11
 133 762 133 762 168 925 c 128,-1,12
 203 1088 203 1088 267.5 1228.5 c 128,-1,13
 332 1369 332 1369 422 1476 c 128,-1,14
 512 1583 512 1583 623 1643 c 1,15,-1
 661 1521 l 1,16,17
 547 1434 547 1434 469.5 1287 c 128,-1,18
 392 1140 392 1140 352 959.5 c 128,-1,19
 312 779 312 779 312 591 c 256,0,1
EndSplineSet
Position2: "Single Positioning lookup 9 subtable" dx=0 dy=0 dh=80 dv=0
Position2: "Single Positioning lookup 8 subtable" dx=0 dy=0 dh=160 dv=0
EndChar

StartChar: parenright
Encoding: 41 41 538
Width: 700
GlyphClass: 2
Flags: W
LayerCount: 2
Fore
SplineSet
388 591 m 256,0,1
 388 779 388 779 348.5 959.5 c 128,-1,2
 309 1140 309 1140 231 1287 c 128,-1,3
 153 1434 153 1434 39 1521 c 1,4,-1
 77 1643 l 1,5,6
 188 1583 188 1583 278 1476 c 128,-1,7
 368 1369 368 1369 432.5 1228.5 c 128,-1,8
 497 1088 497 1088 532 925 c 128,-1,9
 567 762 567 762 567 591 c 256,10,11
 567 420 567 420 532 257 c 128,-1,12
 497 94 497 94 432.5 -46.5 c 128,-1,13
 368 -187 368 -187 278 -294 c 128,-1,14
 188 -401 188 -401 77 -461 c 1,15,-1
 39 -339 l 1,16,17
 153 -252 153 -252 231 -105 c 128,-1,18
 309 42 309 42 348.5 222.5 c 128,-1,19
 388 403 388 403 388 591 c 256,0,1
EndSplineSet
EndChar

